M48
; DRILL file {KiCad 5.1.10} date Tue May  4 23:08:32 2021
; FORMAT={-:-/ absolute / inch / decimal}
; #@! TF.CreationDate,2021-05-04T23:08:32-04:00
; #@! TF.GenerationSoftware,Kicad,Pcbnew,5.1.10
; #@! TF.FileFunction,Plated,1,2,PTH
FMAT,2
INCH
T1C0.0130
T2C0.0400
%
G90
G05
T1
X4.236Y-4.086
X4.275Y-4.525
X4.303Y-4.0613
X4.304Y-3.892
X4.307Y-4.299
X4.3369Y-4.3814
X4.362Y-3.997
X4.3633Y-4.1983
X4.3634Y-4.1422
X4.4Y-3.9
X4.425Y-4.3814
X4.426Y-4.196
X4.475Y-3.925
X4.475Y-4.3814
X4.5Y-4.05
X4.5Y-4.3
X4.506Y-4.196
X4.509Y-4.146
X4.51Y-3.945
X4.5575Y-3.8941
X4.575Y-4.375
X4.5959Y-3.9279
X4.596Y-4.196
X4.662Y-4.001
X4.697Y-3.9091
X4.7Y-4.15
X4.7028Y-3.9605
X4.85Y-4.016
X4.875Y-3.95
X4.875Y-4.384
X4.885Y-4.289
X4.925Y-4.2
X4.99Y-4.199
X5.002Y-4.015
X5.0378Y-4.4236
X5.051Y-4.365
X5.105Y-4.013
X5.125Y-4.15
X5.1914Y-4.284
X5.2Y-4.025
X5.225Y-4.2
X5.2276Y-4.4013
X5.2298Y-4.279
X5.3587Y-4.0584
X5.3591Y-4.2952
X5.3604Y-4.1762
X5.3615Y-4.1252
X5.3618Y-4.2234
X5.3639Y-4.4305
X5.3707Y-4.3982
X5.4118Y-4.0736
X5.5105Y-4.1027
X5.517Y-4.3019
X5.527Y-4.427
X5.5347Y-4.0777
X5.58Y-4.302
X5.604Y-3.921
X5.6114Y-4.0824
X5.65Y-3.975
X5.654Y-4.447
X5.6827Y-4.3085
X5.7Y-4.256
X5.702Y-3.934
X5.702Y-4.192
X5.703Y-4.1508
X5.704Y-4.093
X5.7656Y-4.4717
T2
X4.1902Y-4.04
X4.1902Y-4.24
X4.1902Y-4.44
X4.2Y-3.94
X4.2Y-4.14
X4.2Y-4.34
X4.35Y-3.835
X4.35Y-4.535
X4.45Y-3.845
X4.45Y-4.545
X4.55Y-3.835
X4.55Y-4.535
X4.65Y-3.845
X4.65Y-4.545
X4.75Y-3.835
X4.75Y-4.535
X4.85Y-3.845
X4.85Y-4.545
X4.95Y-3.835
X4.95Y-4.535
X5.05Y-3.845
X5.05Y-4.545
X5.15Y-3.835
X5.15Y-4.535
X5.25Y-3.845
X5.25Y-4.545
X5.35Y-3.835
X5.35Y-4.535
X5.45Y-3.845
X5.45Y-4.545
X5.55Y-3.835
X5.55Y-4.535
X5.65Y-3.845
X5.65Y-4.545
X5.75Y-3.835
X5.75Y-4.535
T0
M30
