%TF.GenerationSoftware,KiCad,Pcbnew,5.1.10*%
%TF.CreationDate,2021-05-04T23:01:40-04:00*%
%TF.ProjectId,NINA-W102_minimal_breakout,4e494e41-2d57-4313-9032-5f6d696e696d,0.5*%
%TF.SameCoordinates,Original*%
%TF.FileFunction,Other,ECO2*%
%FSLAX46Y46*%
G04 Gerber Fmt 4.6, Leading zero omitted, Abs format (unit mm)*
G04 Created by KiCad (PCBNEW 5.1.10) date 2021-05-04 23:01:40*
%MOMM*%
%LPD*%
G01*
G04 APERTURE LIST*
%ADD10C,0.300000*%
G04 APERTURE END LIST*
D10*
X172321428Y-99162500D02*
X172250000Y-99091071D01*
X172178571Y-98948214D01*
X172178571Y-98591071D01*
X172250000Y-98448214D01*
X172321428Y-98376785D01*
X172464285Y-98305357D01*
X172607142Y-98305357D01*
X172821428Y-98376785D01*
X173678571Y-99233928D01*
X173678571Y-98305357D01*
X173535714Y-97662500D02*
X173607142Y-97591071D01*
X173678571Y-97662500D01*
X173607142Y-97733928D01*
X173535714Y-97662500D01*
X173678571Y-97662500D01*
X172178571Y-96233928D02*
X172178571Y-96948214D01*
X172892857Y-97019642D01*
X172821428Y-96948214D01*
X172750000Y-96805357D01*
X172750000Y-96448214D01*
X172821428Y-96305357D01*
X172892857Y-96233928D01*
X173035714Y-96162500D01*
X173392857Y-96162500D01*
X173535714Y-96233928D01*
X173607142Y-96305357D01*
X173678571Y-96448214D01*
X173678571Y-96805357D01*
X173607142Y-96948214D01*
X173535714Y-97019642D01*
X172178571Y-94876785D02*
X172178571Y-95162500D01*
X172250000Y-95305357D01*
X172321428Y-95376785D01*
X172535714Y-95519642D01*
X172821428Y-95591071D01*
X173392857Y-95591071D01*
X173535714Y-95519642D01*
X173607142Y-95448214D01*
X173678571Y-95305357D01*
X173678571Y-95019642D01*
X173607142Y-94876785D01*
X173535714Y-94805357D01*
X173392857Y-94733928D01*
X173035714Y-94733928D01*
X172892857Y-94805357D01*
X172821428Y-94876785D01*
X172750000Y-95019642D01*
X172750000Y-95305357D01*
X172821428Y-95448214D01*
X172892857Y-95519642D01*
X173035714Y-95591071D01*
X172178571Y-93376785D02*
X172178571Y-94091071D01*
X172892857Y-94162500D01*
X172821428Y-94091071D01*
X172750000Y-93948214D01*
X172750000Y-93591071D01*
X172821428Y-93448214D01*
X172892857Y-93376785D01*
X173035714Y-93305357D01*
X173392857Y-93305357D01*
X173535714Y-93376785D01*
X173607142Y-93448214D01*
X173678571Y-93591071D01*
X173678571Y-93948214D01*
X173607142Y-94091071D01*
X173535714Y-94162500D01*
X173678571Y-91519642D02*
X172678571Y-91519642D01*
X172821428Y-91519642D02*
X172750000Y-91448214D01*
X172678571Y-91305357D01*
X172678571Y-91091071D01*
X172750000Y-90948214D01*
X172892857Y-90876785D01*
X173678571Y-90876785D01*
X172892857Y-90876785D02*
X172750000Y-90805357D01*
X172678571Y-90662500D01*
X172678571Y-90448214D01*
X172750000Y-90305357D01*
X172892857Y-90233928D01*
X173678571Y-90233928D01*
X173678571Y-89519642D02*
X172678571Y-89519642D01*
X172821428Y-89519642D02*
X172750000Y-89448214D01*
X172678571Y-89305357D01*
X172678571Y-89091071D01*
X172750000Y-88948214D01*
X172892857Y-88876785D01*
X173678571Y-88876785D01*
X172892857Y-88876785D02*
X172750000Y-88805357D01*
X172678571Y-88662500D01*
X172678571Y-88448214D01*
X172750000Y-88305357D01*
X172892857Y-88233928D01*
X173678571Y-88233928D01*
X166329912Y-94945200D02*
X166329912Y-92379800D01*
X171359112Y-94945200D02*
X163629912Y-94945200D01*
X171359112Y-92379800D02*
X163629912Y-92379800D01*
X166329912Y-92379800D02*
X166916333Y-93506304D01*
X166329912Y-92379800D02*
X165743491Y-93506304D01*
X166329912Y-94945200D02*
X166916333Y-93818696D01*
X166329912Y-94945200D02*
X165743491Y-93818696D01*
X169178571Y-111921228D02*
X169178571Y-110921228D01*
X170678571Y-111564085D01*
X170535714Y-110349800D02*
X170607142Y-110278371D01*
X170678571Y-110349800D01*
X170607142Y-110421228D01*
X170535714Y-110349800D01*
X170678571Y-110349800D01*
X169178571Y-108992657D02*
X169178571Y-109278371D01*
X169250000Y-109421228D01*
X169321428Y-109492657D01*
X169535714Y-109635514D01*
X169821428Y-109706942D01*
X170392857Y-109706942D01*
X170535714Y-109635514D01*
X170607142Y-109564085D01*
X170678571Y-109421228D01*
X170678571Y-109135514D01*
X170607142Y-108992657D01*
X170535714Y-108921228D01*
X170392857Y-108849800D01*
X170035714Y-108849800D01*
X169892857Y-108921228D01*
X169821428Y-108992657D01*
X169750000Y-109135514D01*
X169750000Y-109421228D01*
X169821428Y-109564085D01*
X169892857Y-109635514D01*
X170035714Y-109706942D01*
X169321428Y-108278371D02*
X169250000Y-108206942D01*
X169178571Y-108064085D01*
X169178571Y-107706942D01*
X169250000Y-107564085D01*
X169321428Y-107492657D01*
X169464285Y-107421228D01*
X169607142Y-107421228D01*
X169821428Y-107492657D01*
X170678571Y-108349800D01*
X170678571Y-107421228D01*
X169178571Y-106492657D02*
X169178571Y-106349800D01*
X169250000Y-106206942D01*
X169321428Y-106135514D01*
X169464285Y-106064085D01*
X169750000Y-105992657D01*
X170107142Y-105992657D01*
X170392857Y-106064085D01*
X170535714Y-106135514D01*
X170607142Y-106206942D01*
X170678571Y-106349800D01*
X170678571Y-106492657D01*
X170607142Y-106635514D01*
X170535714Y-106706942D01*
X170392857Y-106778371D01*
X170107142Y-106849800D01*
X169750000Y-106849800D01*
X169464285Y-106778371D01*
X169321428Y-106706942D01*
X169250000Y-106635514D01*
X169178571Y-106492657D01*
X170678571Y-104206942D02*
X169678571Y-104206942D01*
X169821428Y-104206942D02*
X169750000Y-104135514D01*
X169678571Y-103992657D01*
X169678571Y-103778371D01*
X169750000Y-103635514D01*
X169892857Y-103564085D01*
X170678571Y-103564085D01*
X169892857Y-103564085D02*
X169750000Y-103492657D01*
X169678571Y-103349800D01*
X169678571Y-103135514D01*
X169750000Y-102992657D01*
X169892857Y-102921228D01*
X170678571Y-102921228D01*
X170678571Y-102206942D02*
X169678571Y-102206942D01*
X169821428Y-102206942D02*
X169750000Y-102135514D01*
X169678571Y-101992657D01*
X169678571Y-101778371D01*
X169750000Y-101635514D01*
X169892857Y-101564085D01*
X170678571Y-101564085D01*
X169892857Y-101564085D02*
X169750000Y-101492657D01*
X169678571Y-101349800D01*
X169678571Y-101135514D01*
X169750000Y-100992657D01*
X169892857Y-100921228D01*
X170678571Y-100921228D01*
X166116000Y-102539800D02*
X166116000Y-110159800D01*
X163728400Y-102539800D02*
X168816000Y-102539800D01*
X163728400Y-110159800D02*
X168816000Y-110159800D01*
X166116000Y-110159800D02*
X165529579Y-109033296D01*
X166116000Y-110159800D02*
X166702421Y-109033296D01*
X166116000Y-102539800D02*
X165529579Y-103666304D01*
X166116000Y-102539800D02*
X166702421Y-103666304D01*
X122185800Y-88041371D02*
X122185800Y-89041371D01*
X121828657Y-87469942D02*
X121471514Y-88541371D01*
X122400085Y-88541371D01*
X123614371Y-87541371D02*
X123328657Y-87541371D01*
X123185800Y-87612800D01*
X123114371Y-87684228D01*
X122971514Y-87898514D01*
X122900085Y-88184228D01*
X122900085Y-88755657D01*
X122971514Y-88898514D01*
X123042942Y-88969942D01*
X123185800Y-89041371D01*
X123471514Y-89041371D01*
X123614371Y-88969942D01*
X123685800Y-88898514D01*
X123757228Y-88755657D01*
X123757228Y-88398514D01*
X123685800Y-88255657D01*
X123614371Y-88184228D01*
X123471514Y-88112800D01*
X123185800Y-88112800D01*
X123042942Y-88184228D01*
X122971514Y-88255657D01*
X122900085Y-88398514D01*
X124400085Y-88898514D02*
X124471514Y-88969942D01*
X124400085Y-89041371D01*
X124328657Y-88969942D01*
X124400085Y-88898514D01*
X124400085Y-89041371D01*
X125328657Y-88184228D02*
X125185800Y-88112800D01*
X125114371Y-88041371D01*
X125042942Y-87898514D01*
X125042942Y-87827085D01*
X125114371Y-87684228D01*
X125185800Y-87612800D01*
X125328657Y-87541371D01*
X125614371Y-87541371D01*
X125757228Y-87612800D01*
X125828657Y-87684228D01*
X125900085Y-87827085D01*
X125900085Y-87898514D01*
X125828657Y-88041371D01*
X125757228Y-88112800D01*
X125614371Y-88184228D01*
X125328657Y-88184228D01*
X125185800Y-88255657D01*
X125114371Y-88327085D01*
X125042942Y-88469942D01*
X125042942Y-88755657D01*
X125114371Y-88898514D01*
X125185800Y-88969942D01*
X125328657Y-89041371D01*
X125614371Y-89041371D01*
X125757228Y-88969942D01*
X125828657Y-88898514D01*
X125900085Y-88755657D01*
X125900085Y-88469942D01*
X125828657Y-88327085D01*
X125757228Y-88255657D01*
X125614371Y-88184228D01*
X126757228Y-88184228D02*
X126614371Y-88112800D01*
X126542942Y-88041371D01*
X126471514Y-87898514D01*
X126471514Y-87827085D01*
X126542942Y-87684228D01*
X126614371Y-87612800D01*
X126757228Y-87541371D01*
X127042942Y-87541371D01*
X127185800Y-87612800D01*
X127257228Y-87684228D01*
X127328657Y-87827085D01*
X127328657Y-87898514D01*
X127257228Y-88041371D01*
X127185800Y-88112800D01*
X127042942Y-88184228D01*
X126757228Y-88184228D01*
X126614371Y-88255657D01*
X126542942Y-88327085D01*
X126471514Y-88469942D01*
X126471514Y-88755657D01*
X126542942Y-88898514D01*
X126614371Y-88969942D01*
X126757228Y-89041371D01*
X127042942Y-89041371D01*
X127185800Y-88969942D01*
X127257228Y-88898514D01*
X127328657Y-88755657D01*
X127328657Y-88469942D01*
X127257228Y-88327085D01*
X127185800Y-88255657D01*
X127042942Y-88184228D01*
X128185800Y-88184228D02*
X128042942Y-88112800D01*
X127971514Y-88041371D01*
X127900085Y-87898514D01*
X127900085Y-87827085D01*
X127971514Y-87684228D01*
X128042942Y-87612800D01*
X128185800Y-87541371D01*
X128471514Y-87541371D01*
X128614371Y-87612800D01*
X128685800Y-87684228D01*
X128757228Y-87827085D01*
X128757228Y-87898514D01*
X128685800Y-88041371D01*
X128614371Y-88112800D01*
X128471514Y-88184228D01*
X128185800Y-88184228D01*
X128042942Y-88255657D01*
X127971514Y-88327085D01*
X127900085Y-88469942D01*
X127900085Y-88755657D01*
X127971514Y-88898514D01*
X128042942Y-88969942D01*
X128185800Y-89041371D01*
X128471514Y-89041371D01*
X128614371Y-88969942D01*
X128685800Y-88898514D01*
X128757228Y-88755657D01*
X128757228Y-88469942D01*
X128685800Y-88327085D01*
X128614371Y-88255657D01*
X128471514Y-88184228D01*
X130542942Y-89041371D02*
X130542942Y-88041371D01*
X130542942Y-88184228D02*
X130614371Y-88112800D01*
X130757228Y-88041371D01*
X130971514Y-88041371D01*
X131114371Y-88112800D01*
X131185800Y-88255657D01*
X131185800Y-89041371D01*
X131185800Y-88255657D02*
X131257228Y-88112800D01*
X131400085Y-88041371D01*
X131614371Y-88041371D01*
X131757228Y-88112800D01*
X131828657Y-88255657D01*
X131828657Y-89041371D01*
X132542942Y-89041371D02*
X132542942Y-88041371D01*
X132542942Y-88184228D02*
X132614371Y-88112800D01*
X132757228Y-88041371D01*
X132971514Y-88041371D01*
X133114371Y-88112800D01*
X133185800Y-88255657D01*
X133185800Y-89041371D01*
X133185800Y-88255657D02*
X133257228Y-88112800D01*
X133400085Y-88041371D01*
X133614371Y-88041371D01*
X133757228Y-88112800D01*
X133828657Y-88255657D01*
X133828657Y-89041371D01*
X151130000Y-89712800D02*
X104241600Y-89712800D01*
X151130000Y-100330000D02*
X151130000Y-87012800D01*
X104241600Y-100330000D02*
X104241600Y-87012800D01*
X104241600Y-89712800D02*
X105368104Y-89126379D01*
X104241600Y-89712800D02*
X105368104Y-90299221D01*
X151130000Y-89712800D02*
X150003496Y-89126379D01*
X151130000Y-89712800D02*
X150003496Y-90299221D01*
X99785571Y-100173614D02*
X99857000Y-100245042D01*
X99928428Y-100387900D01*
X99928428Y-100745042D01*
X99857000Y-100887900D01*
X99785571Y-100959328D01*
X99642714Y-101030757D01*
X99499857Y-101030757D01*
X99285571Y-100959328D01*
X98428428Y-100102185D01*
X98428428Y-101030757D01*
X99928428Y-101959328D02*
X99928428Y-102102185D01*
X99857000Y-102245042D01*
X99785571Y-102316471D01*
X99642714Y-102387900D01*
X99357000Y-102459328D01*
X98999857Y-102459328D01*
X98714142Y-102387900D01*
X98571285Y-102316471D01*
X98499857Y-102245042D01*
X98428428Y-102102185D01*
X98428428Y-101959328D01*
X98499857Y-101816471D01*
X98571285Y-101745042D01*
X98714142Y-101673614D01*
X98999857Y-101602185D01*
X99357000Y-101602185D01*
X99642714Y-101673614D01*
X99785571Y-101745042D01*
X99857000Y-101816471D01*
X99928428Y-101959328D01*
X98571285Y-103102185D02*
X98499857Y-103173614D01*
X98428428Y-103102185D01*
X98499857Y-103030757D01*
X98571285Y-103102185D01*
X98428428Y-103102185D01*
X99928428Y-104459328D02*
X99928428Y-104173614D01*
X99857000Y-104030757D01*
X99785571Y-103959328D01*
X99571285Y-103816471D01*
X99285571Y-103745042D01*
X98714142Y-103745042D01*
X98571285Y-103816471D01*
X98499857Y-103887900D01*
X98428428Y-104030757D01*
X98428428Y-104316471D01*
X98499857Y-104459328D01*
X98571285Y-104530757D01*
X98714142Y-104602185D01*
X99071285Y-104602185D01*
X99214142Y-104530757D01*
X99285571Y-104459328D01*
X99357000Y-104316471D01*
X99357000Y-104030757D01*
X99285571Y-103887900D01*
X99214142Y-103816471D01*
X99071285Y-103745042D01*
X99928428Y-105959328D02*
X99928428Y-105245042D01*
X99214142Y-105173614D01*
X99285571Y-105245042D01*
X99357000Y-105387900D01*
X99357000Y-105745042D01*
X99285571Y-105887900D01*
X99214142Y-105959328D01*
X99071285Y-106030757D01*
X98714142Y-106030757D01*
X98571285Y-105959328D01*
X98499857Y-105887900D01*
X98428428Y-105745042D01*
X98428428Y-105387900D01*
X98499857Y-105245042D01*
X98571285Y-105173614D01*
X99928428Y-106959328D02*
X99928428Y-107102185D01*
X99857000Y-107245042D01*
X99785571Y-107316471D01*
X99642714Y-107387900D01*
X99357000Y-107459328D01*
X98999857Y-107459328D01*
X98714142Y-107387900D01*
X98571285Y-107316471D01*
X98499857Y-107245042D01*
X98428428Y-107102185D01*
X98428428Y-106959328D01*
X98499857Y-106816471D01*
X98571285Y-106745042D01*
X98714142Y-106673614D01*
X98999857Y-106602185D01*
X99357000Y-106602185D01*
X99642714Y-106673614D01*
X99785571Y-106745042D01*
X99857000Y-106816471D01*
X99928428Y-106959328D01*
X98428428Y-109245042D02*
X99428428Y-109245042D01*
X99285571Y-109245042D02*
X99357000Y-109316471D01*
X99428428Y-109459328D01*
X99428428Y-109673614D01*
X99357000Y-109816471D01*
X99214142Y-109887900D01*
X98428428Y-109887900D01*
X99214142Y-109887900D02*
X99357000Y-109959328D01*
X99428428Y-110102185D01*
X99428428Y-110316471D01*
X99357000Y-110459328D01*
X99214142Y-110530757D01*
X98428428Y-110530757D01*
X98428428Y-111245042D02*
X99428428Y-111245042D01*
X99285571Y-111245042D02*
X99357000Y-111316471D01*
X99428428Y-111459328D01*
X99428428Y-111673614D01*
X99357000Y-111816471D01*
X99214142Y-111887900D01*
X98428428Y-111887900D01*
X99214142Y-111887900D02*
X99357000Y-111959328D01*
X99428428Y-112102185D01*
X99428428Y-112316471D01*
X99357000Y-112459328D01*
X99214142Y-112530757D01*
X98428428Y-112530757D01*
X100457000Y-96062800D02*
X100457000Y-116713000D01*
X105257600Y-96062800D02*
X97757000Y-96062800D01*
X105257600Y-116713000D02*
X97757000Y-116713000D01*
X100457000Y-116713000D02*
X99870579Y-115586496D01*
X100457000Y-116713000D02*
X101043421Y-115586496D01*
X100457000Y-96062800D02*
X99870579Y-97189304D01*
X100457000Y-96062800D02*
X101043421Y-97189304D01*
M02*
