%TF.GenerationSoftware,KiCad,Pcbnew,5.1.10*%
%TF.CreationDate,2021-05-04T23:01:40-04:00*%
%TF.ProjectId,NINA-W102_minimal_breakout,4e494e41-2d57-4313-9032-5f6d696e696d,0.5*%
%TF.SameCoordinates,Original*%
%TF.FileFunction,Copper,L2,Bot*%
%TF.FilePolarity,Positive*%
%FSLAX46Y46*%
G04 Gerber Fmt 4.6, Leading zero omitted, Abs format (unit mm)*
G04 Created by KiCad (PCBNEW 5.1.10) date 2021-05-04 23:01:40*
%MOMM*%
%LPD*%
G01*
G04 APERTURE LIST*
%TA.AperFunction,ComponentPad*%
%ADD10C,1.879600*%
%TD*%
%TA.AperFunction,ViaPad*%
%ADD11C,0.685800*%
%TD*%
%TA.AperFunction,Conductor*%
%ADD12C,0.254000*%
%TD*%
%TA.AperFunction,Conductor*%
%ADD13C,0.152400*%
%TD*%
%TA.AperFunction,Conductor*%
%ADD14C,0.100000*%
%TD*%
G04 APERTURE END LIST*
D10*
%TO.P,J3,DTR*%
%TO.N,DTR*%
X106680000Y-100076000D03*
%TO.P,J3,TXO*%
%TO.N,TXD*%
X106430000Y-102616000D03*
%TO.P,J3,RXI*%
%TO.N,RXD*%
X106680000Y-105156000D03*
%TO.P,J3,VCC*%
%TO.N,+3V3*%
X106430000Y-107696000D03*
%TO.P,J3,CTS*%
%TO.N,CTS*%
X106680000Y-110236000D03*
%TO.P,J3,GND*%
%TO.N,GND*%
X106430000Y-112776000D03*
%TD*%
%TO.P,J2,1*%
%TO.N,Net-(J2-Pad1)*%
X110490000Y-97409000D03*
%TO.P,J2,2*%
%TO.N,CTS*%
X113030000Y-97663000D03*
%TO.P,J2,3*%
%TO.N,Net-(J2-Pad3)*%
X115570000Y-97409000D03*
%TO.P,J2,4*%
%TO.N,GND*%
X118110000Y-97663000D03*
%TO.P,J2,5*%
%TO.N,Net-(J2-Pad5)*%
X120650000Y-97409000D03*
%TO.P,J2,6*%
%TO.N,Net-(J2-Pad6)*%
X123190000Y-97663000D03*
%TO.P,J2,7*%
%TO.N,Net-(J2-Pad7)*%
X125730000Y-97409000D03*
%TO.P,J2,8*%
%TO.N,RXD*%
X128270000Y-97663000D03*
%TO.P,J2,9*%
%TO.N,TXD*%
X130810000Y-97409000D03*
%TO.P,J2,10*%
%TO.N,Net-(J2-Pad10)*%
X133350000Y-97663000D03*
%TO.P,J2,11*%
%TO.N,Net-(J2-Pad11)*%
X135890000Y-97409000D03*
%TO.P,J2,12*%
%TO.N,DTR*%
X138430000Y-97663000D03*
%TO.P,J2,13*%
%TO.N,Net-(J2-Pad13)*%
X140970000Y-97409000D03*
%TO.P,J2,14*%
%TO.N,Net-(J2-Pad14)*%
X143510000Y-97663000D03*
%TO.P,J2,15*%
%TO.N,Net-(J2-Pad15)*%
X146050000Y-97409000D03*
%TD*%
%TO.P,J1,1*%
%TO.N,Net-(J1-Pad1)*%
X110490000Y-115189000D03*
%TO.P,J1,2*%
%TO.N,Net-(J1-Pad2)*%
X113030000Y-115443000D03*
%TO.P,J1,3*%
%TO.N,Net-(J1-Pad3)*%
X115570000Y-115189000D03*
%TO.P,J1,4*%
%TO.N,GND*%
X118110000Y-115443000D03*
%TO.P,J1,5*%
%TO.N,Net-(J1-Pad5)*%
X120650000Y-115189000D03*
%TO.P,J1,6*%
%TO.N,Net-(J1-Pad6)*%
X123190000Y-115443000D03*
%TO.P,J1,7*%
%TO.N,Net-(J1-Pad7)*%
X125730000Y-115189000D03*
%TO.P,J1,8*%
%TO.N,Net-(J1-Pad8)*%
X128270000Y-115443000D03*
%TO.P,J1,9*%
%TO.N,Net-(J1-Pad9)*%
X130810000Y-115189000D03*
%TO.P,J1,10*%
%TO.N,Net-(J1-Pad10)*%
X133350000Y-115443000D03*
%TO.P,J1,11*%
%TO.N,GND*%
X135890000Y-115189000D03*
%TO.P,J1,12*%
%TO.N,Net-(J1-Pad12)*%
X138430000Y-115443000D03*
%TO.P,J1,13*%
%TO.N,Net-(J1-Pad13)*%
X140970000Y-115189000D03*
%TO.P,J1,14*%
%TO.N,+1V8*%
X143510000Y-115443000D03*
%TO.P,J1,15*%
%TO.N,+3V3*%
X146050000Y-115189000D03*
%TD*%
D11*
%TO.N,*%
X114300000Y-109220000D03*
%TO.N,+3V3*%
X136242745Y-112534656D03*
X127959193Y-112359510D03*
X146445016Y-113580174D03*
%TO.N,GND*%
X129667000Y-101930200D03*
X127050800Y-101981000D03*
X123190000Y-102006400D03*
X141732000Y-109270800D03*
X144881600Y-103962200D03*
X144856200Y-105430000D03*
X131861540Y-108813600D03*
X128295400Y-110871000D03*
X123825000Y-111353600D03*
X109321600Y-98856800D03*
X112420400Y-106578400D03*
X114452400Y-106578400D03*
X116205000Y-111125000D03*
X113665000Y-111288369D03*
X112395000Y-111288369D03*
X108585000Y-114935000D03*
X142341600Y-99593400D03*
X144830800Y-99923600D03*
X143611600Y-112953800D03*
X107594400Y-103784400D03*
X110794800Y-101523800D03*
X126746000Y-106654600D03*
X144780000Y-108102400D03*
X144830800Y-106476800D03*
X124079000Y-108940600D03*
X140385800Y-112445800D03*
X114554000Y-100203000D03*
X118414800Y-101625400D03*
X109397800Y-109194600D03*
X110157864Y-111288369D03*
X114528600Y-105308400D03*
X116738400Y-106578400D03*
X142528598Y-103692297D03*
X136110661Y-103083229D03*
%TO.N,CTS*%
X110829219Y-105211739D03*
X110828705Y-106635679D03*
X136182661Y-104780596D03*
%TO.N,DTR*%
X109296128Y-103157433D03*
X125095000Y-106680000D03*
X132080000Y-102235000D03*
X143510000Y-100965000D03*
%TO.N,Net-(J1-Pad1)*%
X132715000Y-106680000D03*
%TO.N,Net-(J1-Pad2)*%
X136189038Y-107273330D03*
%TO.N,Net-(J1-Pad3)*%
X140131787Y-109268194D03*
%TO.N,Net-(J1-Pad5)*%
X136121794Y-109098467D03*
X132836230Y-108685336D03*
%TO.N,Net-(J1-Pad6)*%
X136415584Y-111714458D03*
X132781099Y-111792621D03*
%TO.N,Net-(J2-Pad1)*%
X140581396Y-103574427D03*
%TO.N,Net-(J2-Pad3)*%
X139967567Y-104208354D03*
%TO.N,Net-(J2-Pad5)*%
X137460221Y-103470702D03*
X123825000Y-100330000D03*
%TO.N,RXD*%
X115761726Y-98909403D03*
X119303128Y-99292195D03*
X116736413Y-99769150D03*
X111760000Y-99060000D03*
X113665000Y-99695000D03*
%TO.N,TXD*%
X119452207Y-100596021D03*
X114300000Y-102870000D03*
%TO.N,+1V8*%
X144340777Y-109436940D03*
X136153972Y-106074777D03*
X130175000Y-105410000D03*
X119380000Y-105410000D03*
%TD*%
D12*
%TO.N,+3V3*%
X136585644Y-112877555D02*
X136242745Y-112534656D01*
X137299473Y-113591384D02*
X136585644Y-112877555D01*
X135757812Y-112534656D02*
X136242745Y-112534656D01*
X128619272Y-112534656D02*
X135757812Y-112534656D01*
X127959193Y-112359510D02*
X128444126Y-112359510D01*
X128444126Y-112359510D02*
X128619272Y-112534656D01*
X146439427Y-113591384D02*
X137299473Y-113591384D01*
D13*
%TO.N,GND*%
X124079000Y-108940600D02*
X131734540Y-108940600D01*
X131734540Y-108940600D02*
X131861540Y-108813600D01*
X123825000Y-111353600D02*
X124307600Y-110871000D01*
X124307600Y-110871000D02*
X128295400Y-110871000D01*
X114452400Y-106578400D02*
X112420400Y-106578400D01*
X116205000Y-111125000D02*
X114935000Y-109855000D01*
X114935000Y-109855000D02*
X114935000Y-109220000D01*
X144830800Y-99923600D02*
X142671800Y-99923600D01*
X142671800Y-99923600D02*
X142341600Y-99593400D01*
X144729200Y-103352600D02*
X144830800Y-103251000D01*
X144830800Y-103251000D02*
X144830800Y-99923600D01*
X143353228Y-103352600D02*
X144729200Y-103352600D01*
X142528598Y-103692297D02*
X143013531Y-103692297D01*
X143013531Y-103692297D02*
X143353228Y-103352600D01*
X142528598Y-103692297D02*
X142871497Y-103349398D01*
X142871497Y-103349398D02*
X144148202Y-103349398D01*
X143459200Y-112445800D02*
X143459200Y-112801400D01*
X143459200Y-112801400D02*
X143611600Y-112953800D01*
X140385800Y-112445800D02*
X143459200Y-112445800D01*
X108432600Y-104368600D02*
X107848400Y-103784400D01*
X107848400Y-103784400D02*
X107594400Y-103784400D01*
X108432600Y-107744467D02*
X108432600Y-104368600D01*
X109397800Y-109194600D02*
X109397800Y-108709667D01*
X109397800Y-108709667D02*
X108432600Y-107744467D01*
X109397800Y-109194600D02*
X109397800Y-108178600D01*
X104978200Y-98552000D02*
X107823000Y-98552000D01*
X107823000Y-98552000D02*
X110794800Y-101523800D01*
X104952800Y-98577400D02*
X104978200Y-98552000D01*
X104952800Y-111298800D02*
X104952800Y-98577400D01*
X106430000Y-112776000D02*
X104952800Y-111298800D01*
X144830800Y-106476800D02*
X144830800Y-108051600D01*
X144830800Y-108051600D02*
X144780000Y-108102400D01*
X109478000Y-109728000D02*
X109478000Y-109274800D01*
X109478000Y-109274800D02*
X109397800Y-109194600D01*
X106430000Y-112776000D02*
X109478000Y-109728000D01*
X116738400Y-106578400D02*
X115468400Y-105308400D01*
X115468400Y-105308400D02*
X114528600Y-105308400D01*
D12*
X136110661Y-103083229D02*
X136453560Y-102740330D01*
X136453560Y-102740330D02*
X141573282Y-102740330D01*
X141573282Y-102740330D02*
X142549373Y-103716421D01*
D13*
%TO.N,CTS*%
X110828705Y-105212253D02*
X110829219Y-105211739D01*
X110828705Y-106635679D02*
X110828705Y-105212253D01*
X120147596Y-104780596D02*
X135697728Y-104780596D01*
X135697728Y-104780596D02*
X136182661Y-104780596D01*
X113030000Y-97663000D02*
X120147596Y-104780596D01*
%TO.N,DTR*%
X125095000Y-106680000D02*
X123825000Y-106680000D01*
X123825000Y-106680000D02*
X123190000Y-107315000D01*
X123190000Y-107315000D02*
X109855000Y-107315000D01*
X109855000Y-107315000D02*
X109492531Y-106952531D01*
X109492531Y-106952531D02*
X109492531Y-103374403D01*
X109492531Y-103374403D02*
X109294968Y-103176840D01*
X143510000Y-100965000D02*
X142240000Y-102235000D01*
X142240000Y-102235000D02*
X132080000Y-102235000D01*
%TO.N,Net-(J1-Pad1)*%
X110490000Y-115189000D02*
X112522000Y-113157000D01*
X112522000Y-113157000D02*
X115951000Y-113157000D01*
X120592977Y-108515023D02*
X122421043Y-108515023D01*
X115951000Y-113157000D02*
X120592977Y-108515023D01*
X122421043Y-108515023D02*
X123684565Y-107251501D01*
X123684565Y-107251501D02*
X132143499Y-107251501D01*
X132143499Y-107251501D02*
X132715000Y-106680000D01*
%TO.N,Net-(J1-Pad2)*%
X135626192Y-107836176D02*
X124142024Y-107836176D01*
X124142024Y-107836176D02*
X122605800Y-109372400D01*
X136189038Y-107273330D02*
X135626192Y-107836176D01*
X122605800Y-109372400D02*
X120345200Y-109372400D01*
X120345200Y-109372400D02*
X116001800Y-113715800D01*
X116001800Y-113715800D02*
X114757200Y-113715800D01*
X114757200Y-113715800D02*
X113030000Y-115443000D01*
%TO.N,Net-(J1-Pad3)*%
X115570000Y-115189000D02*
X120976533Y-109782467D01*
X120976533Y-109782467D02*
X139582802Y-109782467D01*
X139582802Y-109782467D02*
X140109013Y-109256256D01*
%TO.N,Net-(J1-Pad5)*%
X135636861Y-109098467D02*
X136121794Y-109098467D01*
X133318618Y-109098467D02*
X135636861Y-109098467D01*
X132866342Y-108646191D02*
X133318618Y-109098467D01*
%TO.N,Net-(J1-Pad6)*%
X136337421Y-111792621D02*
X136415584Y-111714458D01*
X132781099Y-111792621D02*
X136337421Y-111792621D01*
%TO.N,Net-(J2-Pad1)*%
X139593081Y-105401285D02*
X140581396Y-104412970D01*
X119126000Y-106045000D02*
X135030971Y-106045000D01*
X112712502Y-99631502D02*
X119126000Y-106045000D01*
X111383425Y-99631502D02*
X112712502Y-99631502D01*
X110490000Y-97409000D02*
X110490000Y-98738077D01*
X135030971Y-106045000D02*
X135674686Y-105401285D01*
X140581396Y-104059360D02*
X140581396Y-103574427D01*
X110490000Y-98738077D02*
X111383425Y-99631502D01*
X140581396Y-104412970D02*
X140581396Y-104059360D01*
X135674686Y-105401285D02*
X139593081Y-105401285D01*
%TO.N,Net-(J2-Pad3)*%
X119315365Y-101154365D02*
X122369354Y-104208354D01*
X116509799Y-98485523D02*
X119178641Y-101154365D01*
X139482634Y-104208354D02*
X139967567Y-104208354D01*
X115570000Y-97409000D02*
X116509799Y-98348799D01*
X119178641Y-101154365D02*
X119315365Y-101154365D01*
X122369354Y-104208354D02*
X139482634Y-104208354D01*
X116509799Y-98348799D02*
X116509799Y-98485523D01*
%TO.N,Net-(J2-Pad5)*%
X123825000Y-100330000D02*
X127308601Y-103813601D01*
X127308601Y-103813601D02*
X136263949Y-103813601D01*
X136606848Y-103470702D02*
X137460221Y-103470702D01*
X136263949Y-103813601D02*
X136606848Y-103470702D01*
%TO.N,RXD*%
X115876666Y-98909403D02*
X115761726Y-98909403D01*
X116736413Y-99769150D02*
X115876666Y-98909403D01*
X119788061Y-99292195D02*
X119303128Y-99292195D01*
X128270000Y-97663000D02*
X126640805Y-99292195D01*
X126640805Y-99292195D02*
X119788061Y-99292195D01*
X113665000Y-99695000D02*
X113030000Y-99060000D01*
X113030000Y-99060000D02*
X111760000Y-99060000D01*
%TO.N,TXD*%
X114300000Y-102870000D02*
X113957101Y-102527101D01*
X113957101Y-102527101D02*
X106496729Y-102527101D01*
X106496729Y-102527101D02*
X106417661Y-102606169D01*
X128549395Y-99669605D02*
X120378623Y-99669605D01*
X119795106Y-100253122D02*
X119452207Y-100596021D01*
X130810000Y-97409000D02*
X128549395Y-99669605D01*
X120378623Y-99669605D02*
X119795106Y-100253122D01*
D12*
%TO.N,+1V8*%
X143997878Y-109094041D02*
X144340777Y-109436940D01*
X140993691Y-106089854D02*
X143997878Y-109094041D01*
X136183433Y-106089854D02*
X140993691Y-106089854D01*
X119380000Y-105410000D02*
X130175000Y-105410000D01*
%TD*%
%TO.N,GND*%
X144879522Y-98034634D02*
X145024067Y-98250961D01*
X145208039Y-98434933D01*
X145424366Y-98579478D01*
X145664737Y-98679043D01*
X145919913Y-98729800D01*
X146180087Y-98729800D01*
X146435263Y-98679043D01*
X146675634Y-98579478D01*
X146891961Y-98434933D01*
X147075933Y-98250961D01*
X147193000Y-98075758D01*
X147193000Y-114522242D01*
X147075933Y-114347039D01*
X146891961Y-114163067D01*
X146883801Y-114157615D01*
X146906476Y-114142464D01*
X147007306Y-114041634D01*
X147086528Y-113923069D01*
X147141097Y-113791328D01*
X147168916Y-113651472D01*
X147168916Y-113508876D01*
X147141097Y-113369020D01*
X147086528Y-113237279D01*
X147007306Y-113118714D01*
X146906476Y-113017884D01*
X146787911Y-112938662D01*
X146656170Y-112884093D01*
X146516314Y-112856274D01*
X146373718Y-112856274D01*
X146233862Y-112884093D01*
X146102121Y-112938662D01*
X145983556Y-113017884D01*
X145918056Y-113083384D01*
X137509893Y-113083384D01*
X136966645Y-112540136D01*
X136966645Y-112463358D01*
X136938826Y-112323502D01*
X136907037Y-112246755D01*
X136977874Y-112175918D01*
X137057096Y-112057353D01*
X137111665Y-111925612D01*
X137139484Y-111785756D01*
X137139484Y-111643160D01*
X137111665Y-111503304D01*
X137057096Y-111371563D01*
X136977874Y-111252998D01*
X136877044Y-111152168D01*
X136758479Y-111072946D01*
X136626738Y-111018377D01*
X136486882Y-110990558D01*
X136344286Y-110990558D01*
X136204430Y-111018377D01*
X136072689Y-111072946D01*
X135954124Y-111152168D01*
X135853294Y-111252998D01*
X135798221Y-111335421D01*
X133346235Y-111335421D01*
X133343389Y-111331161D01*
X133242559Y-111230331D01*
X133123994Y-111151109D01*
X132992253Y-111096540D01*
X132852397Y-111068721D01*
X132709801Y-111068721D01*
X132569945Y-111096540D01*
X132438204Y-111151109D01*
X132319639Y-111230331D01*
X132218809Y-111331161D01*
X132139587Y-111449726D01*
X132085018Y-111581467D01*
X132057199Y-111721323D01*
X132057199Y-111863919D01*
X132085018Y-112003775D01*
X132094496Y-112026656D01*
X128829692Y-112026656D01*
X128820982Y-112017946D01*
X128805074Y-111998562D01*
X128727721Y-111935081D01*
X128639469Y-111887909D01*
X128543711Y-111858861D01*
X128475584Y-111852151D01*
X128420653Y-111797220D01*
X128302088Y-111717998D01*
X128170347Y-111663429D01*
X128030491Y-111635610D01*
X127887895Y-111635610D01*
X127748039Y-111663429D01*
X127616298Y-111717998D01*
X127497733Y-111797220D01*
X127396903Y-111898050D01*
X127317681Y-112016615D01*
X127263112Y-112148356D01*
X127235293Y-112288212D01*
X127235293Y-112430808D01*
X127263112Y-112570664D01*
X127317681Y-112702405D01*
X127396903Y-112820970D01*
X127497733Y-112921800D01*
X127616298Y-113001022D01*
X127748039Y-113055591D01*
X127887895Y-113083410D01*
X128030491Y-113083410D01*
X128170347Y-113055591D01*
X128302088Y-113001022D01*
X128351885Y-112967749D01*
X128423929Y-113006257D01*
X128519687Y-113035305D01*
X128594325Y-113042656D01*
X128594328Y-113042656D01*
X128619272Y-113045113D01*
X128644216Y-113042656D01*
X135726995Y-113042656D01*
X135781285Y-113096946D01*
X135899850Y-113176168D01*
X136031591Y-113230737D01*
X136171447Y-113258556D01*
X136248225Y-113258556D01*
X136922618Y-113932949D01*
X136938525Y-113952332D01*
X137015878Y-114015813D01*
X137104130Y-114062985D01*
X137199888Y-114092033D01*
X137274526Y-114099384D01*
X137274529Y-114099384D01*
X137299473Y-114101841D01*
X137324417Y-114099384D01*
X140223347Y-114099384D01*
X140128039Y-114163067D01*
X139944067Y-114347039D01*
X139799522Y-114563366D01*
X139699957Y-114803737D01*
X139665853Y-114975194D01*
X139600478Y-114817366D01*
X139455933Y-114601039D01*
X139271961Y-114417067D01*
X139055634Y-114272522D01*
X138815263Y-114172957D01*
X138560087Y-114122200D01*
X138299913Y-114122200D01*
X138044737Y-114172957D01*
X137804366Y-114272522D01*
X137588039Y-114417067D01*
X137404067Y-114601039D01*
X137259522Y-114817366D01*
X137159957Y-115057737D01*
X137109200Y-115312913D01*
X137109200Y-115573087D01*
X137159957Y-115828263D01*
X137259522Y-116068634D01*
X137404067Y-116284961D01*
X137452306Y-116333200D01*
X134327694Y-116333200D01*
X134375933Y-116284961D01*
X134520478Y-116068634D01*
X134620043Y-115828263D01*
X134670800Y-115573087D01*
X134670800Y-115312913D01*
X134620043Y-115057737D01*
X134520478Y-114817366D01*
X134375933Y-114601039D01*
X134191961Y-114417067D01*
X133975634Y-114272522D01*
X133735263Y-114172957D01*
X133480087Y-114122200D01*
X133219913Y-114122200D01*
X132964737Y-114172957D01*
X132724366Y-114272522D01*
X132508039Y-114417067D01*
X132324067Y-114601039D01*
X132179522Y-114817366D01*
X132114147Y-114975194D01*
X132080043Y-114803737D01*
X131980478Y-114563366D01*
X131835933Y-114347039D01*
X131651961Y-114163067D01*
X131435634Y-114018522D01*
X131195263Y-113918957D01*
X130940087Y-113868200D01*
X130679913Y-113868200D01*
X130424737Y-113918957D01*
X130184366Y-114018522D01*
X129968039Y-114163067D01*
X129784067Y-114347039D01*
X129639522Y-114563366D01*
X129539957Y-114803737D01*
X129505853Y-114975194D01*
X129440478Y-114817366D01*
X129295933Y-114601039D01*
X129111961Y-114417067D01*
X128895634Y-114272522D01*
X128655263Y-114172957D01*
X128400087Y-114122200D01*
X128139913Y-114122200D01*
X127884737Y-114172957D01*
X127644366Y-114272522D01*
X127428039Y-114417067D01*
X127244067Y-114601039D01*
X127099522Y-114817366D01*
X127034147Y-114975194D01*
X127000043Y-114803737D01*
X126900478Y-114563366D01*
X126755933Y-114347039D01*
X126571961Y-114163067D01*
X126355634Y-114018522D01*
X126115263Y-113918957D01*
X125860087Y-113868200D01*
X125599913Y-113868200D01*
X125344737Y-113918957D01*
X125104366Y-114018522D01*
X124888039Y-114163067D01*
X124704067Y-114347039D01*
X124559522Y-114563366D01*
X124459957Y-114803737D01*
X124425853Y-114975194D01*
X124360478Y-114817366D01*
X124215933Y-114601039D01*
X124031961Y-114417067D01*
X123815634Y-114272522D01*
X123575263Y-114172957D01*
X123320087Y-114122200D01*
X123059913Y-114122200D01*
X122804737Y-114172957D01*
X122564366Y-114272522D01*
X122348039Y-114417067D01*
X122164067Y-114601039D01*
X122019522Y-114817366D01*
X121954147Y-114975194D01*
X121920043Y-114803737D01*
X121820478Y-114563366D01*
X121675933Y-114347039D01*
X121491961Y-114163067D01*
X121275634Y-114018522D01*
X121035263Y-113918957D01*
X120780087Y-113868200D01*
X120519913Y-113868200D01*
X120264737Y-113918957D01*
X120024366Y-114018522D01*
X119808039Y-114163067D01*
X119624067Y-114347039D01*
X119479522Y-114563366D01*
X119379957Y-114803737D01*
X119329200Y-115058913D01*
X119329200Y-115319087D01*
X119379957Y-115574263D01*
X119479522Y-115814634D01*
X119624067Y-116030961D01*
X119808039Y-116214933D01*
X119985038Y-116333200D01*
X116234962Y-116333200D01*
X116411961Y-116214933D01*
X116595933Y-116030961D01*
X116740478Y-115814634D01*
X116840043Y-115574263D01*
X116890800Y-115319087D01*
X116890800Y-115058913D01*
X116840043Y-114803737D01*
X116770275Y-114635302D01*
X121165911Y-110239667D01*
X139560352Y-110239667D01*
X139582802Y-110241878D01*
X139605252Y-110239667D01*
X139605262Y-110239667D01*
X139672429Y-110233052D01*
X139758611Y-110206908D01*
X139838038Y-110164454D01*
X139907655Y-110107320D01*
X139921976Y-110089870D01*
X140026511Y-109985335D01*
X140060489Y-109992094D01*
X140203085Y-109992094D01*
X140342941Y-109964275D01*
X140474682Y-109909706D01*
X140593247Y-109830484D01*
X140694077Y-109729654D01*
X140773299Y-109611089D01*
X140827868Y-109479348D01*
X140855687Y-109339492D01*
X140855687Y-109196896D01*
X140827868Y-109057040D01*
X140773299Y-108925299D01*
X140694077Y-108806734D01*
X140593247Y-108705904D01*
X140474682Y-108626682D01*
X140342941Y-108572113D01*
X140203085Y-108544294D01*
X140060489Y-108544294D01*
X139920633Y-108572113D01*
X139788892Y-108626682D01*
X139670327Y-108705904D01*
X139569497Y-108806734D01*
X139490275Y-108925299D01*
X139435706Y-109057040D01*
X139407887Y-109196896D01*
X139407887Y-109310804D01*
X139393424Y-109325267D01*
X136811394Y-109325267D01*
X136817875Y-109309621D01*
X136845694Y-109169765D01*
X136845694Y-109027169D01*
X136817875Y-108887313D01*
X136763306Y-108755572D01*
X136684084Y-108637007D01*
X136583254Y-108536177D01*
X136464689Y-108456955D01*
X136332948Y-108402386D01*
X136193092Y-108374567D01*
X136050496Y-108374567D01*
X135910640Y-108402386D01*
X135778899Y-108456955D01*
X135660334Y-108536177D01*
X135559504Y-108637007D01*
X135556658Y-108641267D01*
X133560130Y-108641267D01*
X133560130Y-108614038D01*
X133532311Y-108474182D01*
X133477742Y-108342441D01*
X133444958Y-108293376D01*
X135603742Y-108293376D01*
X135626192Y-108295587D01*
X135648642Y-108293376D01*
X135648652Y-108293376D01*
X135715819Y-108286761D01*
X135802001Y-108260617D01*
X135881428Y-108218163D01*
X135951045Y-108161029D01*
X135965366Y-108143579D01*
X136112715Y-107996230D01*
X136117740Y-107997230D01*
X136260336Y-107997230D01*
X136400192Y-107969411D01*
X136531933Y-107914842D01*
X136650498Y-107835620D01*
X136751328Y-107734790D01*
X136830550Y-107616225D01*
X136885119Y-107484484D01*
X136912938Y-107344628D01*
X136912938Y-107202032D01*
X136885119Y-107062176D01*
X136830550Y-106930435D01*
X136751328Y-106811870D01*
X136650498Y-106711040D01*
X136577610Y-106662338D01*
X136615432Y-106637067D01*
X136654645Y-106597854D01*
X140783271Y-106597854D01*
X143616877Y-109431461D01*
X143616877Y-109508238D01*
X143644696Y-109648094D01*
X143699265Y-109779835D01*
X143778487Y-109898400D01*
X143879317Y-109999230D01*
X143997882Y-110078452D01*
X144129623Y-110133021D01*
X144269479Y-110160840D01*
X144412075Y-110160840D01*
X144551931Y-110133021D01*
X144683672Y-110078452D01*
X144802237Y-109999230D01*
X144903067Y-109898400D01*
X144982289Y-109779835D01*
X145036858Y-109648094D01*
X145064677Y-109508238D01*
X145064677Y-109365642D01*
X145036858Y-109225786D01*
X144982289Y-109094045D01*
X144903067Y-108975480D01*
X144802237Y-108874650D01*
X144683672Y-108795428D01*
X144551931Y-108740859D01*
X144412075Y-108713040D01*
X144335298Y-108713040D01*
X141370546Y-105748289D01*
X141354639Y-105728906D01*
X141277286Y-105665425D01*
X141189034Y-105618253D01*
X141093276Y-105589205D01*
X141018638Y-105581854D01*
X141018635Y-105581854D01*
X140993691Y-105579397D01*
X140968747Y-105581854D01*
X140059089Y-105581854D01*
X140888805Y-104752139D01*
X140906249Y-104737823D01*
X140948698Y-104686100D01*
X140963383Y-104668207D01*
X140986074Y-104625753D01*
X141005837Y-104588779D01*
X141031981Y-104502597D01*
X141038596Y-104435430D01*
X141038596Y-104435421D01*
X141040807Y-104412971D01*
X141038596Y-104390521D01*
X141038596Y-104139563D01*
X141042856Y-104136717D01*
X141143686Y-104035887D01*
X141222908Y-103917322D01*
X141277477Y-103785581D01*
X141305296Y-103645725D01*
X141305296Y-103503129D01*
X141277477Y-103363273D01*
X141222908Y-103231532D01*
X141143686Y-103112967D01*
X141042856Y-103012137D01*
X140924291Y-102932915D01*
X140792550Y-102878346D01*
X140652694Y-102850527D01*
X140510098Y-102850527D01*
X140370242Y-102878346D01*
X140238501Y-102932915D01*
X140119936Y-103012137D01*
X140019106Y-103112967D01*
X139939884Y-103231532D01*
X139885315Y-103363273D01*
X139859766Y-103491715D01*
X139756413Y-103512273D01*
X139624672Y-103566842D01*
X139506107Y-103646064D01*
X139405277Y-103746894D01*
X139402431Y-103751154D01*
X138127598Y-103751154D01*
X138156302Y-103681856D01*
X138184121Y-103542000D01*
X138184121Y-103399404D01*
X138156302Y-103259548D01*
X138101733Y-103127807D01*
X138022511Y-103009242D01*
X137921681Y-102908412D01*
X137803116Y-102829190D01*
X137671375Y-102774621D01*
X137531519Y-102746802D01*
X137388923Y-102746802D01*
X137249067Y-102774621D01*
X137117326Y-102829190D01*
X136998761Y-102908412D01*
X136897931Y-103009242D01*
X136895085Y-103013502D01*
X136629297Y-103013502D01*
X136606847Y-103011291D01*
X136584397Y-103013502D01*
X136584388Y-103013502D01*
X136517221Y-103020117D01*
X136431039Y-103046261D01*
X136424886Y-103049550D01*
X136351611Y-103088715D01*
X136308810Y-103123842D01*
X136281995Y-103145849D01*
X136267678Y-103163294D01*
X136074572Y-103356401D01*
X127497979Y-103356401D01*
X126305280Y-102163702D01*
X131356100Y-102163702D01*
X131356100Y-102306298D01*
X131383919Y-102446154D01*
X131438488Y-102577895D01*
X131517710Y-102696460D01*
X131618540Y-102797290D01*
X131737105Y-102876512D01*
X131868846Y-102931081D01*
X132008702Y-102958900D01*
X132151298Y-102958900D01*
X132291154Y-102931081D01*
X132422895Y-102876512D01*
X132541460Y-102797290D01*
X132642290Y-102696460D01*
X132645136Y-102692200D01*
X142217550Y-102692200D01*
X142240000Y-102694411D01*
X142262450Y-102692200D01*
X142262460Y-102692200D01*
X142329627Y-102685585D01*
X142415809Y-102659441D01*
X142495236Y-102616987D01*
X142564853Y-102559853D01*
X142579174Y-102542403D01*
X143433677Y-101687901D01*
X143438702Y-101688900D01*
X143581298Y-101688900D01*
X143721154Y-101661081D01*
X143852895Y-101606512D01*
X143971460Y-101527290D01*
X144072290Y-101426460D01*
X144151512Y-101307895D01*
X144206081Y-101176154D01*
X144233900Y-101036298D01*
X144233900Y-100893702D01*
X144206081Y-100753846D01*
X144151512Y-100622105D01*
X144072290Y-100503540D01*
X143971460Y-100402710D01*
X143852895Y-100323488D01*
X143721154Y-100268919D01*
X143581298Y-100241100D01*
X143438702Y-100241100D01*
X143298846Y-100268919D01*
X143167105Y-100323488D01*
X143048540Y-100402710D01*
X142947710Y-100503540D01*
X142868488Y-100622105D01*
X142813919Y-100753846D01*
X142786100Y-100893702D01*
X142786100Y-101036298D01*
X142787099Y-101041323D01*
X142050623Y-101777800D01*
X132645136Y-101777800D01*
X132642290Y-101773540D01*
X132541460Y-101672710D01*
X132422895Y-101593488D01*
X132291154Y-101538919D01*
X132151298Y-101511100D01*
X132008702Y-101511100D01*
X131868846Y-101538919D01*
X131737105Y-101593488D01*
X131618540Y-101672710D01*
X131517710Y-101773540D01*
X131438488Y-101892105D01*
X131383919Y-102023846D01*
X131356100Y-102163702D01*
X126305280Y-102163702D01*
X124547900Y-100406323D01*
X124548900Y-100401298D01*
X124548900Y-100258702D01*
X124522664Y-100126805D01*
X128526945Y-100126805D01*
X128549395Y-100129016D01*
X128571845Y-100126805D01*
X128571855Y-100126805D01*
X128639022Y-100120190D01*
X128725204Y-100094046D01*
X128804631Y-100051592D01*
X128874248Y-99994458D01*
X128888569Y-99977008D01*
X130256303Y-98609275D01*
X130424737Y-98679043D01*
X130679913Y-98729800D01*
X130940087Y-98729800D01*
X131195263Y-98679043D01*
X131435634Y-98579478D01*
X131651961Y-98434933D01*
X131835933Y-98250961D01*
X131980478Y-98034634D01*
X132045853Y-97876806D01*
X132079957Y-98048263D01*
X132179522Y-98288634D01*
X132324067Y-98504961D01*
X132508039Y-98688933D01*
X132724366Y-98833478D01*
X132964737Y-98933043D01*
X133219913Y-98983800D01*
X133480087Y-98983800D01*
X133735263Y-98933043D01*
X133975634Y-98833478D01*
X134191961Y-98688933D01*
X134375933Y-98504961D01*
X134520478Y-98288634D01*
X134620043Y-98048263D01*
X134654147Y-97876806D01*
X134719522Y-98034634D01*
X134864067Y-98250961D01*
X135048039Y-98434933D01*
X135264366Y-98579478D01*
X135504737Y-98679043D01*
X135759913Y-98729800D01*
X136020087Y-98729800D01*
X136275263Y-98679043D01*
X136515634Y-98579478D01*
X136731961Y-98434933D01*
X136915933Y-98250961D01*
X137060478Y-98034634D01*
X137125853Y-97876806D01*
X137159957Y-98048263D01*
X137259522Y-98288634D01*
X137404067Y-98504961D01*
X137588039Y-98688933D01*
X137804366Y-98833478D01*
X138044737Y-98933043D01*
X138299913Y-98983800D01*
X138560087Y-98983800D01*
X138815263Y-98933043D01*
X139055634Y-98833478D01*
X139271961Y-98688933D01*
X139455933Y-98504961D01*
X139600478Y-98288634D01*
X139700043Y-98048263D01*
X139734147Y-97876806D01*
X139799522Y-98034634D01*
X139944067Y-98250961D01*
X140128039Y-98434933D01*
X140344366Y-98579478D01*
X140584737Y-98679043D01*
X140839913Y-98729800D01*
X141100087Y-98729800D01*
X141355263Y-98679043D01*
X141595634Y-98579478D01*
X141811961Y-98434933D01*
X141995933Y-98250961D01*
X142140478Y-98034634D01*
X142205853Y-97876806D01*
X142239957Y-98048263D01*
X142339522Y-98288634D01*
X142484067Y-98504961D01*
X142668039Y-98688933D01*
X142884366Y-98833478D01*
X143124737Y-98933043D01*
X143379913Y-98983800D01*
X143640087Y-98983800D01*
X143895263Y-98933043D01*
X144135634Y-98833478D01*
X144351961Y-98688933D01*
X144535933Y-98504961D01*
X144680478Y-98288634D01*
X144780043Y-98048263D01*
X144814147Y-97876806D01*
X144879522Y-98034634D01*
%TA.AperFunction,Conductor*%
D14*
G36*
X144879522Y-98034634D02*
G01*
X145024067Y-98250961D01*
X145208039Y-98434933D01*
X145424366Y-98579478D01*
X145664737Y-98679043D01*
X145919913Y-98729800D01*
X146180087Y-98729800D01*
X146435263Y-98679043D01*
X146675634Y-98579478D01*
X146891961Y-98434933D01*
X147075933Y-98250961D01*
X147193000Y-98075758D01*
X147193000Y-114522242D01*
X147075933Y-114347039D01*
X146891961Y-114163067D01*
X146883801Y-114157615D01*
X146906476Y-114142464D01*
X147007306Y-114041634D01*
X147086528Y-113923069D01*
X147141097Y-113791328D01*
X147168916Y-113651472D01*
X147168916Y-113508876D01*
X147141097Y-113369020D01*
X147086528Y-113237279D01*
X147007306Y-113118714D01*
X146906476Y-113017884D01*
X146787911Y-112938662D01*
X146656170Y-112884093D01*
X146516314Y-112856274D01*
X146373718Y-112856274D01*
X146233862Y-112884093D01*
X146102121Y-112938662D01*
X145983556Y-113017884D01*
X145918056Y-113083384D01*
X137509893Y-113083384D01*
X136966645Y-112540136D01*
X136966645Y-112463358D01*
X136938826Y-112323502D01*
X136907037Y-112246755D01*
X136977874Y-112175918D01*
X137057096Y-112057353D01*
X137111665Y-111925612D01*
X137139484Y-111785756D01*
X137139484Y-111643160D01*
X137111665Y-111503304D01*
X137057096Y-111371563D01*
X136977874Y-111252998D01*
X136877044Y-111152168D01*
X136758479Y-111072946D01*
X136626738Y-111018377D01*
X136486882Y-110990558D01*
X136344286Y-110990558D01*
X136204430Y-111018377D01*
X136072689Y-111072946D01*
X135954124Y-111152168D01*
X135853294Y-111252998D01*
X135798221Y-111335421D01*
X133346235Y-111335421D01*
X133343389Y-111331161D01*
X133242559Y-111230331D01*
X133123994Y-111151109D01*
X132992253Y-111096540D01*
X132852397Y-111068721D01*
X132709801Y-111068721D01*
X132569945Y-111096540D01*
X132438204Y-111151109D01*
X132319639Y-111230331D01*
X132218809Y-111331161D01*
X132139587Y-111449726D01*
X132085018Y-111581467D01*
X132057199Y-111721323D01*
X132057199Y-111863919D01*
X132085018Y-112003775D01*
X132094496Y-112026656D01*
X128829692Y-112026656D01*
X128820982Y-112017946D01*
X128805074Y-111998562D01*
X128727721Y-111935081D01*
X128639469Y-111887909D01*
X128543711Y-111858861D01*
X128475584Y-111852151D01*
X128420653Y-111797220D01*
X128302088Y-111717998D01*
X128170347Y-111663429D01*
X128030491Y-111635610D01*
X127887895Y-111635610D01*
X127748039Y-111663429D01*
X127616298Y-111717998D01*
X127497733Y-111797220D01*
X127396903Y-111898050D01*
X127317681Y-112016615D01*
X127263112Y-112148356D01*
X127235293Y-112288212D01*
X127235293Y-112430808D01*
X127263112Y-112570664D01*
X127317681Y-112702405D01*
X127396903Y-112820970D01*
X127497733Y-112921800D01*
X127616298Y-113001022D01*
X127748039Y-113055591D01*
X127887895Y-113083410D01*
X128030491Y-113083410D01*
X128170347Y-113055591D01*
X128302088Y-113001022D01*
X128351885Y-112967749D01*
X128423929Y-113006257D01*
X128519687Y-113035305D01*
X128594325Y-113042656D01*
X128594328Y-113042656D01*
X128619272Y-113045113D01*
X128644216Y-113042656D01*
X135726995Y-113042656D01*
X135781285Y-113096946D01*
X135899850Y-113176168D01*
X136031591Y-113230737D01*
X136171447Y-113258556D01*
X136248225Y-113258556D01*
X136922618Y-113932949D01*
X136938525Y-113952332D01*
X137015878Y-114015813D01*
X137104130Y-114062985D01*
X137199888Y-114092033D01*
X137274526Y-114099384D01*
X137274529Y-114099384D01*
X137299473Y-114101841D01*
X137324417Y-114099384D01*
X140223347Y-114099384D01*
X140128039Y-114163067D01*
X139944067Y-114347039D01*
X139799522Y-114563366D01*
X139699957Y-114803737D01*
X139665853Y-114975194D01*
X139600478Y-114817366D01*
X139455933Y-114601039D01*
X139271961Y-114417067D01*
X139055634Y-114272522D01*
X138815263Y-114172957D01*
X138560087Y-114122200D01*
X138299913Y-114122200D01*
X138044737Y-114172957D01*
X137804366Y-114272522D01*
X137588039Y-114417067D01*
X137404067Y-114601039D01*
X137259522Y-114817366D01*
X137159957Y-115057737D01*
X137109200Y-115312913D01*
X137109200Y-115573087D01*
X137159957Y-115828263D01*
X137259522Y-116068634D01*
X137404067Y-116284961D01*
X137452306Y-116333200D01*
X134327694Y-116333200D01*
X134375933Y-116284961D01*
X134520478Y-116068634D01*
X134620043Y-115828263D01*
X134670800Y-115573087D01*
X134670800Y-115312913D01*
X134620043Y-115057737D01*
X134520478Y-114817366D01*
X134375933Y-114601039D01*
X134191961Y-114417067D01*
X133975634Y-114272522D01*
X133735263Y-114172957D01*
X133480087Y-114122200D01*
X133219913Y-114122200D01*
X132964737Y-114172957D01*
X132724366Y-114272522D01*
X132508039Y-114417067D01*
X132324067Y-114601039D01*
X132179522Y-114817366D01*
X132114147Y-114975194D01*
X132080043Y-114803737D01*
X131980478Y-114563366D01*
X131835933Y-114347039D01*
X131651961Y-114163067D01*
X131435634Y-114018522D01*
X131195263Y-113918957D01*
X130940087Y-113868200D01*
X130679913Y-113868200D01*
X130424737Y-113918957D01*
X130184366Y-114018522D01*
X129968039Y-114163067D01*
X129784067Y-114347039D01*
X129639522Y-114563366D01*
X129539957Y-114803737D01*
X129505853Y-114975194D01*
X129440478Y-114817366D01*
X129295933Y-114601039D01*
X129111961Y-114417067D01*
X128895634Y-114272522D01*
X128655263Y-114172957D01*
X128400087Y-114122200D01*
X128139913Y-114122200D01*
X127884737Y-114172957D01*
X127644366Y-114272522D01*
X127428039Y-114417067D01*
X127244067Y-114601039D01*
X127099522Y-114817366D01*
X127034147Y-114975194D01*
X127000043Y-114803737D01*
X126900478Y-114563366D01*
X126755933Y-114347039D01*
X126571961Y-114163067D01*
X126355634Y-114018522D01*
X126115263Y-113918957D01*
X125860087Y-113868200D01*
X125599913Y-113868200D01*
X125344737Y-113918957D01*
X125104366Y-114018522D01*
X124888039Y-114163067D01*
X124704067Y-114347039D01*
X124559522Y-114563366D01*
X124459957Y-114803737D01*
X124425853Y-114975194D01*
X124360478Y-114817366D01*
X124215933Y-114601039D01*
X124031961Y-114417067D01*
X123815634Y-114272522D01*
X123575263Y-114172957D01*
X123320087Y-114122200D01*
X123059913Y-114122200D01*
X122804737Y-114172957D01*
X122564366Y-114272522D01*
X122348039Y-114417067D01*
X122164067Y-114601039D01*
X122019522Y-114817366D01*
X121954147Y-114975194D01*
X121920043Y-114803737D01*
X121820478Y-114563366D01*
X121675933Y-114347039D01*
X121491961Y-114163067D01*
X121275634Y-114018522D01*
X121035263Y-113918957D01*
X120780087Y-113868200D01*
X120519913Y-113868200D01*
X120264737Y-113918957D01*
X120024366Y-114018522D01*
X119808039Y-114163067D01*
X119624067Y-114347039D01*
X119479522Y-114563366D01*
X119379957Y-114803737D01*
X119329200Y-115058913D01*
X119329200Y-115319087D01*
X119379957Y-115574263D01*
X119479522Y-115814634D01*
X119624067Y-116030961D01*
X119808039Y-116214933D01*
X119985038Y-116333200D01*
X116234962Y-116333200D01*
X116411961Y-116214933D01*
X116595933Y-116030961D01*
X116740478Y-115814634D01*
X116840043Y-115574263D01*
X116890800Y-115319087D01*
X116890800Y-115058913D01*
X116840043Y-114803737D01*
X116770275Y-114635302D01*
X121165911Y-110239667D01*
X139560352Y-110239667D01*
X139582802Y-110241878D01*
X139605252Y-110239667D01*
X139605262Y-110239667D01*
X139672429Y-110233052D01*
X139758611Y-110206908D01*
X139838038Y-110164454D01*
X139907655Y-110107320D01*
X139921976Y-110089870D01*
X140026511Y-109985335D01*
X140060489Y-109992094D01*
X140203085Y-109992094D01*
X140342941Y-109964275D01*
X140474682Y-109909706D01*
X140593247Y-109830484D01*
X140694077Y-109729654D01*
X140773299Y-109611089D01*
X140827868Y-109479348D01*
X140855687Y-109339492D01*
X140855687Y-109196896D01*
X140827868Y-109057040D01*
X140773299Y-108925299D01*
X140694077Y-108806734D01*
X140593247Y-108705904D01*
X140474682Y-108626682D01*
X140342941Y-108572113D01*
X140203085Y-108544294D01*
X140060489Y-108544294D01*
X139920633Y-108572113D01*
X139788892Y-108626682D01*
X139670327Y-108705904D01*
X139569497Y-108806734D01*
X139490275Y-108925299D01*
X139435706Y-109057040D01*
X139407887Y-109196896D01*
X139407887Y-109310804D01*
X139393424Y-109325267D01*
X136811394Y-109325267D01*
X136817875Y-109309621D01*
X136845694Y-109169765D01*
X136845694Y-109027169D01*
X136817875Y-108887313D01*
X136763306Y-108755572D01*
X136684084Y-108637007D01*
X136583254Y-108536177D01*
X136464689Y-108456955D01*
X136332948Y-108402386D01*
X136193092Y-108374567D01*
X136050496Y-108374567D01*
X135910640Y-108402386D01*
X135778899Y-108456955D01*
X135660334Y-108536177D01*
X135559504Y-108637007D01*
X135556658Y-108641267D01*
X133560130Y-108641267D01*
X133560130Y-108614038D01*
X133532311Y-108474182D01*
X133477742Y-108342441D01*
X133444958Y-108293376D01*
X135603742Y-108293376D01*
X135626192Y-108295587D01*
X135648642Y-108293376D01*
X135648652Y-108293376D01*
X135715819Y-108286761D01*
X135802001Y-108260617D01*
X135881428Y-108218163D01*
X135951045Y-108161029D01*
X135965366Y-108143579D01*
X136112715Y-107996230D01*
X136117740Y-107997230D01*
X136260336Y-107997230D01*
X136400192Y-107969411D01*
X136531933Y-107914842D01*
X136650498Y-107835620D01*
X136751328Y-107734790D01*
X136830550Y-107616225D01*
X136885119Y-107484484D01*
X136912938Y-107344628D01*
X136912938Y-107202032D01*
X136885119Y-107062176D01*
X136830550Y-106930435D01*
X136751328Y-106811870D01*
X136650498Y-106711040D01*
X136577610Y-106662338D01*
X136615432Y-106637067D01*
X136654645Y-106597854D01*
X140783271Y-106597854D01*
X143616877Y-109431461D01*
X143616877Y-109508238D01*
X143644696Y-109648094D01*
X143699265Y-109779835D01*
X143778487Y-109898400D01*
X143879317Y-109999230D01*
X143997882Y-110078452D01*
X144129623Y-110133021D01*
X144269479Y-110160840D01*
X144412075Y-110160840D01*
X144551931Y-110133021D01*
X144683672Y-110078452D01*
X144802237Y-109999230D01*
X144903067Y-109898400D01*
X144982289Y-109779835D01*
X145036858Y-109648094D01*
X145064677Y-109508238D01*
X145064677Y-109365642D01*
X145036858Y-109225786D01*
X144982289Y-109094045D01*
X144903067Y-108975480D01*
X144802237Y-108874650D01*
X144683672Y-108795428D01*
X144551931Y-108740859D01*
X144412075Y-108713040D01*
X144335298Y-108713040D01*
X141370546Y-105748289D01*
X141354639Y-105728906D01*
X141277286Y-105665425D01*
X141189034Y-105618253D01*
X141093276Y-105589205D01*
X141018638Y-105581854D01*
X141018635Y-105581854D01*
X140993691Y-105579397D01*
X140968747Y-105581854D01*
X140059089Y-105581854D01*
X140888805Y-104752139D01*
X140906249Y-104737823D01*
X140948698Y-104686100D01*
X140963383Y-104668207D01*
X140986074Y-104625753D01*
X141005837Y-104588779D01*
X141031981Y-104502597D01*
X141038596Y-104435430D01*
X141038596Y-104435421D01*
X141040807Y-104412971D01*
X141038596Y-104390521D01*
X141038596Y-104139563D01*
X141042856Y-104136717D01*
X141143686Y-104035887D01*
X141222908Y-103917322D01*
X141277477Y-103785581D01*
X141305296Y-103645725D01*
X141305296Y-103503129D01*
X141277477Y-103363273D01*
X141222908Y-103231532D01*
X141143686Y-103112967D01*
X141042856Y-103012137D01*
X140924291Y-102932915D01*
X140792550Y-102878346D01*
X140652694Y-102850527D01*
X140510098Y-102850527D01*
X140370242Y-102878346D01*
X140238501Y-102932915D01*
X140119936Y-103012137D01*
X140019106Y-103112967D01*
X139939884Y-103231532D01*
X139885315Y-103363273D01*
X139859766Y-103491715D01*
X139756413Y-103512273D01*
X139624672Y-103566842D01*
X139506107Y-103646064D01*
X139405277Y-103746894D01*
X139402431Y-103751154D01*
X138127598Y-103751154D01*
X138156302Y-103681856D01*
X138184121Y-103542000D01*
X138184121Y-103399404D01*
X138156302Y-103259548D01*
X138101733Y-103127807D01*
X138022511Y-103009242D01*
X137921681Y-102908412D01*
X137803116Y-102829190D01*
X137671375Y-102774621D01*
X137531519Y-102746802D01*
X137388923Y-102746802D01*
X137249067Y-102774621D01*
X137117326Y-102829190D01*
X136998761Y-102908412D01*
X136897931Y-103009242D01*
X136895085Y-103013502D01*
X136629297Y-103013502D01*
X136606847Y-103011291D01*
X136584397Y-103013502D01*
X136584388Y-103013502D01*
X136517221Y-103020117D01*
X136431039Y-103046261D01*
X136424886Y-103049550D01*
X136351611Y-103088715D01*
X136308810Y-103123842D01*
X136281995Y-103145849D01*
X136267678Y-103163294D01*
X136074572Y-103356401D01*
X127497979Y-103356401D01*
X126305280Y-102163702D01*
X131356100Y-102163702D01*
X131356100Y-102306298D01*
X131383919Y-102446154D01*
X131438488Y-102577895D01*
X131517710Y-102696460D01*
X131618540Y-102797290D01*
X131737105Y-102876512D01*
X131868846Y-102931081D01*
X132008702Y-102958900D01*
X132151298Y-102958900D01*
X132291154Y-102931081D01*
X132422895Y-102876512D01*
X132541460Y-102797290D01*
X132642290Y-102696460D01*
X132645136Y-102692200D01*
X142217550Y-102692200D01*
X142240000Y-102694411D01*
X142262450Y-102692200D01*
X142262460Y-102692200D01*
X142329627Y-102685585D01*
X142415809Y-102659441D01*
X142495236Y-102616987D01*
X142564853Y-102559853D01*
X142579174Y-102542403D01*
X143433677Y-101687901D01*
X143438702Y-101688900D01*
X143581298Y-101688900D01*
X143721154Y-101661081D01*
X143852895Y-101606512D01*
X143971460Y-101527290D01*
X144072290Y-101426460D01*
X144151512Y-101307895D01*
X144206081Y-101176154D01*
X144233900Y-101036298D01*
X144233900Y-100893702D01*
X144206081Y-100753846D01*
X144151512Y-100622105D01*
X144072290Y-100503540D01*
X143971460Y-100402710D01*
X143852895Y-100323488D01*
X143721154Y-100268919D01*
X143581298Y-100241100D01*
X143438702Y-100241100D01*
X143298846Y-100268919D01*
X143167105Y-100323488D01*
X143048540Y-100402710D01*
X142947710Y-100503540D01*
X142868488Y-100622105D01*
X142813919Y-100753846D01*
X142786100Y-100893702D01*
X142786100Y-101036298D01*
X142787099Y-101041323D01*
X142050623Y-101777800D01*
X132645136Y-101777800D01*
X132642290Y-101773540D01*
X132541460Y-101672710D01*
X132422895Y-101593488D01*
X132291154Y-101538919D01*
X132151298Y-101511100D01*
X132008702Y-101511100D01*
X131868846Y-101538919D01*
X131737105Y-101593488D01*
X131618540Y-101672710D01*
X131517710Y-101773540D01*
X131438488Y-101892105D01*
X131383919Y-102023846D01*
X131356100Y-102163702D01*
X126305280Y-102163702D01*
X124547900Y-100406323D01*
X124548900Y-100401298D01*
X124548900Y-100258702D01*
X124522664Y-100126805D01*
X128526945Y-100126805D01*
X128549395Y-100129016D01*
X128571845Y-100126805D01*
X128571855Y-100126805D01*
X128639022Y-100120190D01*
X128725204Y-100094046D01*
X128804631Y-100051592D01*
X128874248Y-99994458D01*
X128888569Y-99977008D01*
X130256303Y-98609275D01*
X130424737Y-98679043D01*
X130679913Y-98729800D01*
X130940087Y-98729800D01*
X131195263Y-98679043D01*
X131435634Y-98579478D01*
X131651961Y-98434933D01*
X131835933Y-98250961D01*
X131980478Y-98034634D01*
X132045853Y-97876806D01*
X132079957Y-98048263D01*
X132179522Y-98288634D01*
X132324067Y-98504961D01*
X132508039Y-98688933D01*
X132724366Y-98833478D01*
X132964737Y-98933043D01*
X133219913Y-98983800D01*
X133480087Y-98983800D01*
X133735263Y-98933043D01*
X133975634Y-98833478D01*
X134191961Y-98688933D01*
X134375933Y-98504961D01*
X134520478Y-98288634D01*
X134620043Y-98048263D01*
X134654147Y-97876806D01*
X134719522Y-98034634D01*
X134864067Y-98250961D01*
X135048039Y-98434933D01*
X135264366Y-98579478D01*
X135504737Y-98679043D01*
X135759913Y-98729800D01*
X136020087Y-98729800D01*
X136275263Y-98679043D01*
X136515634Y-98579478D01*
X136731961Y-98434933D01*
X136915933Y-98250961D01*
X137060478Y-98034634D01*
X137125853Y-97876806D01*
X137159957Y-98048263D01*
X137259522Y-98288634D01*
X137404067Y-98504961D01*
X137588039Y-98688933D01*
X137804366Y-98833478D01*
X138044737Y-98933043D01*
X138299913Y-98983800D01*
X138560087Y-98983800D01*
X138815263Y-98933043D01*
X139055634Y-98833478D01*
X139271961Y-98688933D01*
X139455933Y-98504961D01*
X139600478Y-98288634D01*
X139700043Y-98048263D01*
X139734147Y-97876806D01*
X139799522Y-98034634D01*
X139944067Y-98250961D01*
X140128039Y-98434933D01*
X140344366Y-98579478D01*
X140584737Y-98679043D01*
X140839913Y-98729800D01*
X141100087Y-98729800D01*
X141355263Y-98679043D01*
X141595634Y-98579478D01*
X141811961Y-98434933D01*
X141995933Y-98250961D01*
X142140478Y-98034634D01*
X142205853Y-97876806D01*
X142239957Y-98048263D01*
X142339522Y-98288634D01*
X142484067Y-98504961D01*
X142668039Y-98688933D01*
X142884366Y-98833478D01*
X143124737Y-98933043D01*
X143379913Y-98983800D01*
X143640087Y-98983800D01*
X143895263Y-98933043D01*
X144135634Y-98833478D01*
X144351961Y-98688933D01*
X144535933Y-98504961D01*
X144680478Y-98288634D01*
X144780043Y-98048263D01*
X144814147Y-97876806D01*
X144879522Y-98034634D01*
G37*
%TD.AperFunction*%
D12*
X109464067Y-96567039D02*
X109319522Y-96783366D01*
X109219957Y-97023737D01*
X109169200Y-97278913D01*
X109169200Y-97539087D01*
X109219957Y-97794263D01*
X109319522Y-98034634D01*
X109464067Y-98250961D01*
X109648039Y-98434933D01*
X109864366Y-98579478D01*
X110032801Y-98649246D01*
X110032801Y-98715618D01*
X110030589Y-98738077D01*
X110032801Y-98760537D01*
X110039416Y-98827704D01*
X110056552Y-98884191D01*
X110065560Y-98913886D01*
X110108013Y-98993312D01*
X110143835Y-99036960D01*
X110165148Y-99062930D01*
X110182592Y-99077246D01*
X111044260Y-99938916D01*
X111058572Y-99956355D01*
X111076011Y-99970667D01*
X111076017Y-99970673D01*
X111128189Y-100013489D01*
X111207615Y-100055943D01*
X111227674Y-100062028D01*
X111293798Y-100082087D01*
X111360965Y-100088702D01*
X111360975Y-100088702D01*
X111383425Y-100090913D01*
X111405875Y-100088702D01*
X112523125Y-100088702D01*
X114703215Y-102268792D01*
X114642895Y-102228488D01*
X114511154Y-102173919D01*
X114371298Y-102146100D01*
X114228702Y-102146100D01*
X114216497Y-102148528D01*
X114212337Y-102145114D01*
X114132910Y-102102660D01*
X114046728Y-102076516D01*
X113979561Y-102069901D01*
X113979551Y-102069901D01*
X113957101Y-102067690D01*
X113934651Y-102069901D01*
X107633422Y-102069901D01*
X107600478Y-101990366D01*
X107455933Y-101774039D01*
X107271961Y-101590067D01*
X107055634Y-101445522D01*
X106896508Y-101379610D01*
X107065263Y-101346043D01*
X107305634Y-101246478D01*
X107521961Y-101101933D01*
X107705933Y-100917961D01*
X107850478Y-100701634D01*
X107950043Y-100461263D01*
X108000800Y-100206087D01*
X108000800Y-99945913D01*
X107950043Y-99690737D01*
X107850478Y-99450366D01*
X107705933Y-99234039D01*
X107521961Y-99050067D01*
X107305634Y-98905522D01*
X107065263Y-98805957D01*
X106810087Y-98755200D01*
X106549913Y-98755200D01*
X106294737Y-98805957D01*
X106054366Y-98905522D01*
X105838039Y-99050067D01*
X105654067Y-99234039D01*
X105509522Y-99450366D01*
X105409957Y-99690737D01*
X105359200Y-99945913D01*
X105359200Y-100206087D01*
X105409957Y-100461263D01*
X105509522Y-100701634D01*
X105654067Y-100917961D01*
X105838039Y-101101933D01*
X106054366Y-101246478D01*
X106213492Y-101312390D01*
X106044737Y-101345957D01*
X105804366Y-101445522D01*
X105588039Y-101590067D01*
X105404067Y-101774039D01*
X105259522Y-101990366D01*
X105159957Y-102230737D01*
X105109200Y-102485913D01*
X105109200Y-102746087D01*
X105159957Y-103001263D01*
X105259522Y-103241634D01*
X105404067Y-103457961D01*
X105588039Y-103641933D01*
X105804366Y-103786478D01*
X106044737Y-103886043D01*
X106213492Y-103919610D01*
X106054366Y-103985522D01*
X105838039Y-104130067D01*
X105654067Y-104314039D01*
X105509522Y-104530366D01*
X105409957Y-104770737D01*
X105359200Y-105025913D01*
X105359200Y-105286087D01*
X105409957Y-105541263D01*
X105509522Y-105781634D01*
X105654067Y-105997961D01*
X105838039Y-106181933D01*
X106054366Y-106326478D01*
X106213492Y-106392390D01*
X106044737Y-106425957D01*
X105804366Y-106525522D01*
X105588039Y-106670067D01*
X105404067Y-106854039D01*
X105259522Y-107070366D01*
X105159957Y-107310737D01*
X105109200Y-107565913D01*
X105109200Y-107826087D01*
X105159957Y-108081263D01*
X105259522Y-108321634D01*
X105404067Y-108537961D01*
X105588039Y-108721933D01*
X105804366Y-108866478D01*
X106044737Y-108966043D01*
X106213492Y-108999610D01*
X106054366Y-109065522D01*
X105838039Y-109210067D01*
X105654067Y-109394039D01*
X105509522Y-109610366D01*
X105409957Y-109850737D01*
X105359200Y-110105913D01*
X105359200Y-110366087D01*
X105409957Y-110621263D01*
X105509522Y-110861634D01*
X105654067Y-111077961D01*
X105838039Y-111261933D01*
X106054366Y-111406478D01*
X106294737Y-111506043D01*
X106549913Y-111556800D01*
X106810087Y-111556800D01*
X107065263Y-111506043D01*
X107305634Y-111406478D01*
X107521961Y-111261933D01*
X107705933Y-111077961D01*
X107850478Y-110861634D01*
X107950043Y-110621263D01*
X108000800Y-110366087D01*
X108000800Y-110105913D01*
X107950043Y-109850737D01*
X107850478Y-109610366D01*
X107705933Y-109394039D01*
X107521961Y-109210067D01*
X107430122Y-109148702D01*
X113576100Y-109148702D01*
X113576100Y-109291298D01*
X113603919Y-109431154D01*
X113658488Y-109562895D01*
X113737710Y-109681460D01*
X113838540Y-109782290D01*
X113957105Y-109861512D01*
X114088846Y-109916081D01*
X114228702Y-109943900D01*
X114371298Y-109943900D01*
X114511154Y-109916081D01*
X114642895Y-109861512D01*
X114761460Y-109782290D01*
X114862290Y-109681460D01*
X114941512Y-109562895D01*
X114996081Y-109431154D01*
X115023900Y-109291298D01*
X115023900Y-109148702D01*
X114996081Y-109008846D01*
X114941512Y-108877105D01*
X114862290Y-108758540D01*
X114761460Y-108657710D01*
X114642895Y-108578488D01*
X114511154Y-108523919D01*
X114371298Y-108496100D01*
X114228702Y-108496100D01*
X114088846Y-108523919D01*
X113957105Y-108578488D01*
X113838540Y-108657710D01*
X113737710Y-108758540D01*
X113658488Y-108877105D01*
X113603919Y-109008846D01*
X113576100Y-109148702D01*
X107430122Y-109148702D01*
X107305634Y-109065522D01*
X107065263Y-108965957D01*
X106896508Y-108932390D01*
X107055634Y-108866478D01*
X107271961Y-108721933D01*
X107455933Y-108537961D01*
X107600478Y-108321634D01*
X107700043Y-108081263D01*
X107750800Y-107826087D01*
X107750800Y-107565913D01*
X107700043Y-107310737D01*
X107600478Y-107070366D01*
X107455933Y-106854039D01*
X107271961Y-106670067D01*
X107055634Y-106525522D01*
X106896508Y-106459610D01*
X107065263Y-106426043D01*
X107305634Y-106326478D01*
X107521961Y-106181933D01*
X107705933Y-105997961D01*
X107850478Y-105781634D01*
X107950043Y-105541263D01*
X108000800Y-105286087D01*
X108000800Y-105025913D01*
X107950043Y-104770737D01*
X107850478Y-104530366D01*
X107705933Y-104314039D01*
X107521961Y-104130067D01*
X107305634Y-103985522D01*
X107065263Y-103885957D01*
X106896508Y-103852390D01*
X107055634Y-103786478D01*
X107271961Y-103641933D01*
X107455933Y-103457961D01*
X107600478Y-103241634D01*
X107700043Y-103001263D01*
X107703417Y-102984301D01*
X108592484Y-102984301D01*
X108572228Y-103086135D01*
X108572228Y-103228731D01*
X108600047Y-103368587D01*
X108654616Y-103500328D01*
X108733838Y-103618893D01*
X108834668Y-103719723D01*
X108953233Y-103798945D01*
X109035332Y-103832952D01*
X109035331Y-106930081D01*
X109033120Y-106952531D01*
X109035331Y-106974981D01*
X109035331Y-106974990D01*
X109041946Y-107042157D01*
X109068090Y-107128339D01*
X109110544Y-107207766D01*
X109167678Y-107277384D01*
X109185127Y-107291705D01*
X109515834Y-107622413D01*
X109530147Y-107639853D01*
X109547586Y-107654165D01*
X109547592Y-107654171D01*
X109599764Y-107696987D01*
X109679190Y-107739441D01*
X109702625Y-107746550D01*
X109765373Y-107765585D01*
X109832540Y-107772200D01*
X109832548Y-107772200D01*
X109855000Y-107774411D01*
X109877452Y-107772200D01*
X122517289Y-107772200D01*
X122231666Y-108057823D01*
X120615427Y-108057823D01*
X120592977Y-108055612D01*
X120570527Y-108057823D01*
X120570517Y-108057823D01*
X120503350Y-108064438D01*
X120417168Y-108090582D01*
X120337741Y-108133036D01*
X120268124Y-108190170D01*
X120253807Y-108207615D01*
X115761623Y-112699800D01*
X112544450Y-112699800D01*
X112522000Y-112697589D01*
X112499550Y-112699800D01*
X112499540Y-112699800D01*
X112432373Y-112706415D01*
X112346191Y-112732559D01*
X112266764Y-112775013D01*
X112197147Y-112832147D01*
X112182830Y-112849592D01*
X111043698Y-113988725D01*
X110875263Y-113918957D01*
X110620087Y-113868200D01*
X110359913Y-113868200D01*
X110104737Y-113918957D01*
X109864366Y-114018522D01*
X109648039Y-114163067D01*
X109464067Y-114347039D01*
X109319522Y-114563366D01*
X109219957Y-114803737D01*
X109169200Y-115058913D01*
X109169200Y-115319087D01*
X109219957Y-115574263D01*
X109319522Y-115814634D01*
X109464067Y-116030961D01*
X109648039Y-116214933D01*
X109825038Y-116333200D01*
X105438722Y-116333200D01*
X104596000Y-115372890D01*
X104596000Y-97321631D01*
X105417946Y-96518800D01*
X109512306Y-96518800D01*
X109464067Y-96567039D01*
%TA.AperFunction,Conductor*%
D14*
G36*
X109464067Y-96567039D02*
G01*
X109319522Y-96783366D01*
X109219957Y-97023737D01*
X109169200Y-97278913D01*
X109169200Y-97539087D01*
X109219957Y-97794263D01*
X109319522Y-98034634D01*
X109464067Y-98250961D01*
X109648039Y-98434933D01*
X109864366Y-98579478D01*
X110032801Y-98649246D01*
X110032801Y-98715618D01*
X110030589Y-98738077D01*
X110032801Y-98760537D01*
X110039416Y-98827704D01*
X110056552Y-98884191D01*
X110065560Y-98913886D01*
X110108013Y-98993312D01*
X110143835Y-99036960D01*
X110165148Y-99062930D01*
X110182592Y-99077246D01*
X111044260Y-99938916D01*
X111058572Y-99956355D01*
X111076011Y-99970667D01*
X111076017Y-99970673D01*
X111128189Y-100013489D01*
X111207615Y-100055943D01*
X111227674Y-100062028D01*
X111293798Y-100082087D01*
X111360965Y-100088702D01*
X111360975Y-100088702D01*
X111383425Y-100090913D01*
X111405875Y-100088702D01*
X112523125Y-100088702D01*
X114703215Y-102268792D01*
X114642895Y-102228488D01*
X114511154Y-102173919D01*
X114371298Y-102146100D01*
X114228702Y-102146100D01*
X114216497Y-102148528D01*
X114212337Y-102145114D01*
X114132910Y-102102660D01*
X114046728Y-102076516D01*
X113979561Y-102069901D01*
X113979551Y-102069901D01*
X113957101Y-102067690D01*
X113934651Y-102069901D01*
X107633422Y-102069901D01*
X107600478Y-101990366D01*
X107455933Y-101774039D01*
X107271961Y-101590067D01*
X107055634Y-101445522D01*
X106896508Y-101379610D01*
X107065263Y-101346043D01*
X107305634Y-101246478D01*
X107521961Y-101101933D01*
X107705933Y-100917961D01*
X107850478Y-100701634D01*
X107950043Y-100461263D01*
X108000800Y-100206087D01*
X108000800Y-99945913D01*
X107950043Y-99690737D01*
X107850478Y-99450366D01*
X107705933Y-99234039D01*
X107521961Y-99050067D01*
X107305634Y-98905522D01*
X107065263Y-98805957D01*
X106810087Y-98755200D01*
X106549913Y-98755200D01*
X106294737Y-98805957D01*
X106054366Y-98905522D01*
X105838039Y-99050067D01*
X105654067Y-99234039D01*
X105509522Y-99450366D01*
X105409957Y-99690737D01*
X105359200Y-99945913D01*
X105359200Y-100206087D01*
X105409957Y-100461263D01*
X105509522Y-100701634D01*
X105654067Y-100917961D01*
X105838039Y-101101933D01*
X106054366Y-101246478D01*
X106213492Y-101312390D01*
X106044737Y-101345957D01*
X105804366Y-101445522D01*
X105588039Y-101590067D01*
X105404067Y-101774039D01*
X105259522Y-101990366D01*
X105159957Y-102230737D01*
X105109200Y-102485913D01*
X105109200Y-102746087D01*
X105159957Y-103001263D01*
X105259522Y-103241634D01*
X105404067Y-103457961D01*
X105588039Y-103641933D01*
X105804366Y-103786478D01*
X106044737Y-103886043D01*
X106213492Y-103919610D01*
X106054366Y-103985522D01*
X105838039Y-104130067D01*
X105654067Y-104314039D01*
X105509522Y-104530366D01*
X105409957Y-104770737D01*
X105359200Y-105025913D01*
X105359200Y-105286087D01*
X105409957Y-105541263D01*
X105509522Y-105781634D01*
X105654067Y-105997961D01*
X105838039Y-106181933D01*
X106054366Y-106326478D01*
X106213492Y-106392390D01*
X106044737Y-106425957D01*
X105804366Y-106525522D01*
X105588039Y-106670067D01*
X105404067Y-106854039D01*
X105259522Y-107070366D01*
X105159957Y-107310737D01*
X105109200Y-107565913D01*
X105109200Y-107826087D01*
X105159957Y-108081263D01*
X105259522Y-108321634D01*
X105404067Y-108537961D01*
X105588039Y-108721933D01*
X105804366Y-108866478D01*
X106044737Y-108966043D01*
X106213492Y-108999610D01*
X106054366Y-109065522D01*
X105838039Y-109210067D01*
X105654067Y-109394039D01*
X105509522Y-109610366D01*
X105409957Y-109850737D01*
X105359200Y-110105913D01*
X105359200Y-110366087D01*
X105409957Y-110621263D01*
X105509522Y-110861634D01*
X105654067Y-111077961D01*
X105838039Y-111261933D01*
X106054366Y-111406478D01*
X106294737Y-111506043D01*
X106549913Y-111556800D01*
X106810087Y-111556800D01*
X107065263Y-111506043D01*
X107305634Y-111406478D01*
X107521961Y-111261933D01*
X107705933Y-111077961D01*
X107850478Y-110861634D01*
X107950043Y-110621263D01*
X108000800Y-110366087D01*
X108000800Y-110105913D01*
X107950043Y-109850737D01*
X107850478Y-109610366D01*
X107705933Y-109394039D01*
X107521961Y-109210067D01*
X107430122Y-109148702D01*
X113576100Y-109148702D01*
X113576100Y-109291298D01*
X113603919Y-109431154D01*
X113658488Y-109562895D01*
X113737710Y-109681460D01*
X113838540Y-109782290D01*
X113957105Y-109861512D01*
X114088846Y-109916081D01*
X114228702Y-109943900D01*
X114371298Y-109943900D01*
X114511154Y-109916081D01*
X114642895Y-109861512D01*
X114761460Y-109782290D01*
X114862290Y-109681460D01*
X114941512Y-109562895D01*
X114996081Y-109431154D01*
X115023900Y-109291298D01*
X115023900Y-109148702D01*
X114996081Y-109008846D01*
X114941512Y-108877105D01*
X114862290Y-108758540D01*
X114761460Y-108657710D01*
X114642895Y-108578488D01*
X114511154Y-108523919D01*
X114371298Y-108496100D01*
X114228702Y-108496100D01*
X114088846Y-108523919D01*
X113957105Y-108578488D01*
X113838540Y-108657710D01*
X113737710Y-108758540D01*
X113658488Y-108877105D01*
X113603919Y-109008846D01*
X113576100Y-109148702D01*
X107430122Y-109148702D01*
X107305634Y-109065522D01*
X107065263Y-108965957D01*
X106896508Y-108932390D01*
X107055634Y-108866478D01*
X107271961Y-108721933D01*
X107455933Y-108537961D01*
X107600478Y-108321634D01*
X107700043Y-108081263D01*
X107750800Y-107826087D01*
X107750800Y-107565913D01*
X107700043Y-107310737D01*
X107600478Y-107070366D01*
X107455933Y-106854039D01*
X107271961Y-106670067D01*
X107055634Y-106525522D01*
X106896508Y-106459610D01*
X107065263Y-106426043D01*
X107305634Y-106326478D01*
X107521961Y-106181933D01*
X107705933Y-105997961D01*
X107850478Y-105781634D01*
X107950043Y-105541263D01*
X108000800Y-105286087D01*
X108000800Y-105025913D01*
X107950043Y-104770737D01*
X107850478Y-104530366D01*
X107705933Y-104314039D01*
X107521961Y-104130067D01*
X107305634Y-103985522D01*
X107065263Y-103885957D01*
X106896508Y-103852390D01*
X107055634Y-103786478D01*
X107271961Y-103641933D01*
X107455933Y-103457961D01*
X107600478Y-103241634D01*
X107700043Y-103001263D01*
X107703417Y-102984301D01*
X108592484Y-102984301D01*
X108572228Y-103086135D01*
X108572228Y-103228731D01*
X108600047Y-103368587D01*
X108654616Y-103500328D01*
X108733838Y-103618893D01*
X108834668Y-103719723D01*
X108953233Y-103798945D01*
X109035332Y-103832952D01*
X109035331Y-106930081D01*
X109033120Y-106952531D01*
X109035331Y-106974981D01*
X109035331Y-106974990D01*
X109041946Y-107042157D01*
X109068090Y-107128339D01*
X109110544Y-107207766D01*
X109167678Y-107277384D01*
X109185127Y-107291705D01*
X109515834Y-107622413D01*
X109530147Y-107639853D01*
X109547586Y-107654165D01*
X109547592Y-107654171D01*
X109599764Y-107696987D01*
X109679190Y-107739441D01*
X109702625Y-107746550D01*
X109765373Y-107765585D01*
X109832540Y-107772200D01*
X109832548Y-107772200D01*
X109855000Y-107774411D01*
X109877452Y-107772200D01*
X122517289Y-107772200D01*
X122231666Y-108057823D01*
X120615427Y-108057823D01*
X120592977Y-108055612D01*
X120570527Y-108057823D01*
X120570517Y-108057823D01*
X120503350Y-108064438D01*
X120417168Y-108090582D01*
X120337741Y-108133036D01*
X120268124Y-108190170D01*
X120253807Y-108207615D01*
X115761623Y-112699800D01*
X112544450Y-112699800D01*
X112522000Y-112697589D01*
X112499550Y-112699800D01*
X112499540Y-112699800D01*
X112432373Y-112706415D01*
X112346191Y-112732559D01*
X112266764Y-112775013D01*
X112197147Y-112832147D01*
X112182830Y-112849592D01*
X111043698Y-113988725D01*
X110875263Y-113918957D01*
X110620087Y-113868200D01*
X110359913Y-113868200D01*
X110104737Y-113918957D01*
X109864366Y-114018522D01*
X109648039Y-114163067D01*
X109464067Y-114347039D01*
X109319522Y-114563366D01*
X109219957Y-114803737D01*
X109169200Y-115058913D01*
X109169200Y-115319087D01*
X109219957Y-115574263D01*
X109319522Y-115814634D01*
X109464067Y-116030961D01*
X109648039Y-116214933D01*
X109825038Y-116333200D01*
X105438722Y-116333200D01*
X104596000Y-115372890D01*
X104596000Y-97321631D01*
X105417946Y-96518800D01*
X109512306Y-96518800D01*
X109464067Y-96567039D01*
G37*
%TD.AperFunction*%
D12*
X132194718Y-108342441D02*
X132140149Y-108474182D01*
X132112330Y-108614038D01*
X132112330Y-108756634D01*
X132140149Y-108896490D01*
X132194718Y-109028231D01*
X132273940Y-109146796D01*
X132374770Y-109247626D01*
X132490969Y-109325267D01*
X123299510Y-109325267D01*
X124331402Y-108293376D01*
X132227502Y-108293376D01*
X132194718Y-108342441D01*
%TA.AperFunction,Conductor*%
D14*
G36*
X132194718Y-108342441D02*
G01*
X132140149Y-108474182D01*
X132112330Y-108614038D01*
X132112330Y-108756634D01*
X132140149Y-108896490D01*
X132194718Y-109028231D01*
X132273940Y-109146796D01*
X132374770Y-109247626D01*
X132490969Y-109325267D01*
X123299510Y-109325267D01*
X124331402Y-108293376D01*
X132227502Y-108293376D01*
X132194718Y-108342441D01*
G37*
%TD.AperFunction*%
D12*
X118786830Y-106352408D02*
X118801147Y-106369853D01*
X118870764Y-106426987D01*
X118950191Y-106469441D01*
X119036373Y-106495585D01*
X119103540Y-106502200D01*
X119103550Y-106502200D01*
X119126000Y-106504411D01*
X119148450Y-106502200D01*
X123356221Y-106502200D01*
X123000623Y-106857800D01*
X111520243Y-106857800D01*
X111524786Y-106846833D01*
X111552605Y-106706977D01*
X111552605Y-106564381D01*
X111524786Y-106424525D01*
X111470217Y-106292784D01*
X111390995Y-106174219D01*
X111290165Y-106073389D01*
X111285905Y-106070543D01*
X111285905Y-105777219D01*
X111290679Y-105774029D01*
X111391509Y-105673199D01*
X111470731Y-105554634D01*
X111525300Y-105422893D01*
X111553119Y-105283037D01*
X111553119Y-105140441D01*
X111525300Y-105000585D01*
X111470731Y-104868844D01*
X111391509Y-104750279D01*
X111290679Y-104649449D01*
X111172114Y-104570227D01*
X111040373Y-104515658D01*
X110900517Y-104487839D01*
X110757921Y-104487839D01*
X110618065Y-104515658D01*
X110486324Y-104570227D01*
X110367759Y-104649449D01*
X110266929Y-104750279D01*
X110187707Y-104868844D01*
X110133138Y-105000585D01*
X110105319Y-105140441D01*
X110105319Y-105283037D01*
X110133138Y-105422893D01*
X110187707Y-105554634D01*
X110266929Y-105673199D01*
X110367759Y-105774029D01*
X110371506Y-105776532D01*
X110371505Y-106070542D01*
X110367245Y-106073389D01*
X110266415Y-106174219D01*
X110187193Y-106292784D01*
X110132624Y-106424525D01*
X110104805Y-106564381D01*
X110104805Y-106706977D01*
X110132624Y-106846833D01*
X110137167Y-106857800D01*
X110044378Y-106857800D01*
X109949731Y-106763153D01*
X109949731Y-103471138D01*
X109992209Y-103368587D01*
X110020028Y-103228731D01*
X110020028Y-103086135D01*
X109999772Y-102984301D01*
X113584654Y-102984301D01*
X113603919Y-103081154D01*
X113658488Y-103212895D01*
X113737710Y-103331460D01*
X113838540Y-103432290D01*
X113957105Y-103511512D01*
X114088846Y-103566081D01*
X114228702Y-103593900D01*
X114371298Y-103593900D01*
X114511154Y-103566081D01*
X114642895Y-103511512D01*
X114761460Y-103432290D01*
X114862290Y-103331460D01*
X114941512Y-103212895D01*
X114996081Y-103081154D01*
X115023900Y-102941298D01*
X115023900Y-102798702D01*
X114996081Y-102658846D01*
X114941512Y-102527105D01*
X114901208Y-102466785D01*
X118786830Y-106352408D01*
%TA.AperFunction,Conductor*%
D14*
G36*
X118786830Y-106352408D02*
G01*
X118801147Y-106369853D01*
X118870764Y-106426987D01*
X118950191Y-106469441D01*
X119036373Y-106495585D01*
X119103540Y-106502200D01*
X119103550Y-106502200D01*
X119126000Y-106504411D01*
X119148450Y-106502200D01*
X123356221Y-106502200D01*
X123000623Y-106857800D01*
X111520243Y-106857800D01*
X111524786Y-106846833D01*
X111552605Y-106706977D01*
X111552605Y-106564381D01*
X111524786Y-106424525D01*
X111470217Y-106292784D01*
X111390995Y-106174219D01*
X111290165Y-106073389D01*
X111285905Y-106070543D01*
X111285905Y-105777219D01*
X111290679Y-105774029D01*
X111391509Y-105673199D01*
X111470731Y-105554634D01*
X111525300Y-105422893D01*
X111553119Y-105283037D01*
X111553119Y-105140441D01*
X111525300Y-105000585D01*
X111470731Y-104868844D01*
X111391509Y-104750279D01*
X111290679Y-104649449D01*
X111172114Y-104570227D01*
X111040373Y-104515658D01*
X110900517Y-104487839D01*
X110757921Y-104487839D01*
X110618065Y-104515658D01*
X110486324Y-104570227D01*
X110367759Y-104649449D01*
X110266929Y-104750279D01*
X110187707Y-104868844D01*
X110133138Y-105000585D01*
X110105319Y-105140441D01*
X110105319Y-105283037D01*
X110133138Y-105422893D01*
X110187707Y-105554634D01*
X110266929Y-105673199D01*
X110367759Y-105774029D01*
X110371506Y-105776532D01*
X110371505Y-106070542D01*
X110367245Y-106073389D01*
X110266415Y-106174219D01*
X110187193Y-106292784D01*
X110132624Y-106424525D01*
X110104805Y-106564381D01*
X110104805Y-106706977D01*
X110132624Y-106846833D01*
X110137167Y-106857800D01*
X110044378Y-106857800D01*
X109949731Y-106763153D01*
X109949731Y-103471138D01*
X109992209Y-103368587D01*
X110020028Y-103228731D01*
X110020028Y-103086135D01*
X109999772Y-102984301D01*
X113584654Y-102984301D01*
X113603919Y-103081154D01*
X113658488Y-103212895D01*
X113737710Y-103331460D01*
X113838540Y-103432290D01*
X113957105Y-103511512D01*
X114088846Y-103566081D01*
X114228702Y-103593900D01*
X114371298Y-103593900D01*
X114511154Y-103566081D01*
X114642895Y-103511512D01*
X114761460Y-103432290D01*
X114862290Y-103331460D01*
X114941512Y-103212895D01*
X114996081Y-103081154D01*
X115023900Y-102941298D01*
X115023900Y-102798702D01*
X114996081Y-102658846D01*
X114941512Y-102527105D01*
X114901208Y-102466785D01*
X118786830Y-106352408D01*
G37*
%TD.AperFunction*%
D12*
X131991100Y-106608702D02*
X131991100Y-106751298D01*
X131992100Y-106756323D01*
X131954122Y-106794301D01*
X125810346Y-106794301D01*
X125818900Y-106751298D01*
X125818900Y-106608702D01*
X125797716Y-106502200D01*
X132012284Y-106502200D01*
X131991100Y-106608702D01*
%TA.AperFunction,Conductor*%
D14*
G36*
X131991100Y-106608702D02*
G01*
X131991100Y-106751298D01*
X131992100Y-106756323D01*
X131954122Y-106794301D01*
X125810346Y-106794301D01*
X125818900Y-106751298D01*
X125818900Y-106608702D01*
X125797716Y-106502200D01*
X132012284Y-106502200D01*
X131991100Y-106608702D01*
G37*
%TD.AperFunction*%
D12*
X119406522Y-104686100D02*
X119308702Y-104686100D01*
X119168846Y-104713919D01*
X119037105Y-104768488D01*
X118918540Y-104847710D01*
X118817710Y-104948540D01*
X118760996Y-105033419D01*
X114041581Y-100314004D01*
X114126460Y-100257290D01*
X114227290Y-100156460D01*
X114306512Y-100037895D01*
X114361081Y-99906154D01*
X114388900Y-99766298D01*
X114388900Y-99668477D01*
X119406522Y-104686100D01*
%TA.AperFunction,Conductor*%
D14*
G36*
X119406522Y-104686100D02*
G01*
X119308702Y-104686100D01*
X119168846Y-104713919D01*
X119037105Y-104768488D01*
X118918540Y-104847710D01*
X118817710Y-104948540D01*
X118760996Y-105033419D01*
X114041581Y-100314004D01*
X114126460Y-100257290D01*
X114227290Y-100156460D01*
X114306512Y-100037895D01*
X114361081Y-99906154D01*
X114388900Y-99766298D01*
X114388900Y-99668477D01*
X119406522Y-104686100D01*
G37*
%TD.AperFunction*%
D12*
X118839476Y-101461779D02*
X118853788Y-101479218D01*
X118871227Y-101493530D01*
X118871233Y-101493536D01*
X118923405Y-101536352D01*
X119002831Y-101578806D01*
X119039953Y-101590067D01*
X119089014Y-101604950D01*
X119122689Y-101608267D01*
X121837817Y-104323396D01*
X120336974Y-104323396D01*
X116445963Y-100432385D01*
X116525259Y-100465231D01*
X116665115Y-100493050D01*
X116807711Y-100493050D01*
X116947567Y-100465231D01*
X117079308Y-100410662D01*
X117197873Y-100331440D01*
X117298703Y-100230610D01*
X117377925Y-100112045D01*
X117410676Y-100032978D01*
X118839476Y-101461779D01*
%TA.AperFunction,Conductor*%
D14*
G36*
X118839476Y-101461779D02*
G01*
X118853788Y-101479218D01*
X118871227Y-101493530D01*
X118871233Y-101493536D01*
X118923405Y-101536352D01*
X119002831Y-101578806D01*
X119039953Y-101590067D01*
X119089014Y-101604950D01*
X119122689Y-101608267D01*
X121837817Y-104323396D01*
X120336974Y-104323396D01*
X116445963Y-100432385D01*
X116525259Y-100465231D01*
X116665115Y-100493050D01*
X116807711Y-100493050D01*
X116947567Y-100465231D01*
X117079308Y-100410662D01*
X117197873Y-100331440D01*
X117298703Y-100230610D01*
X117377925Y-100112045D01*
X117410676Y-100032978D01*
X118839476Y-101461779D01*
G37*
%TD.AperFunction*%
D12*
X123101100Y-100258702D02*
X123101100Y-100401298D01*
X123128919Y-100541154D01*
X123183488Y-100672895D01*
X123262710Y-100791460D01*
X123363540Y-100892290D01*
X123482105Y-100971512D01*
X123613846Y-101026081D01*
X123753702Y-101053900D01*
X123896298Y-101053900D01*
X123901323Y-101052900D01*
X126599576Y-103751154D01*
X122558733Y-103751154D01*
X119939778Y-101132200D01*
X120014497Y-101057481D01*
X120093719Y-100938916D01*
X120148288Y-100807175D01*
X120176107Y-100667319D01*
X120176107Y-100524723D01*
X120175107Y-100519698D01*
X120568002Y-100126805D01*
X123127336Y-100126805D01*
X123101100Y-100258702D01*
%TA.AperFunction,Conductor*%
D14*
G36*
X123101100Y-100258702D02*
G01*
X123101100Y-100401298D01*
X123128919Y-100541154D01*
X123183488Y-100672895D01*
X123262710Y-100791460D01*
X123363540Y-100892290D01*
X123482105Y-100971512D01*
X123613846Y-101026081D01*
X123753702Y-101053900D01*
X123896298Y-101053900D01*
X123901323Y-101052900D01*
X126599576Y-103751154D01*
X122558733Y-103751154D01*
X119939778Y-101132200D01*
X120014497Y-101057481D01*
X120093719Y-100938916D01*
X120148288Y-100807175D01*
X120176107Y-100667319D01*
X120176107Y-100524723D01*
X120175107Y-100519698D01*
X120568002Y-100126805D01*
X123127336Y-100126805D01*
X123101100Y-100258702D01*
G37*
%TD.AperFunction*%
D12*
X119624067Y-96567039D02*
X119479522Y-96783366D01*
X119379957Y-97023737D01*
X119329200Y-97278913D01*
X119329200Y-97539087D01*
X119379957Y-97794263D01*
X119479522Y-98034634D01*
X119624067Y-98250961D01*
X119808039Y-98434933D01*
X120024366Y-98579478D01*
X120264737Y-98679043D01*
X120519913Y-98729800D01*
X120780087Y-98729800D01*
X121035263Y-98679043D01*
X121275634Y-98579478D01*
X121491961Y-98434933D01*
X121675933Y-98250961D01*
X121820478Y-98034634D01*
X121885853Y-97876806D01*
X121919957Y-98048263D01*
X122019522Y-98288634D01*
X122164067Y-98504961D01*
X122348039Y-98688933D01*
X122564366Y-98833478D01*
X122568028Y-98834995D01*
X119868264Y-98834995D01*
X119865418Y-98830735D01*
X119764588Y-98729905D01*
X119646023Y-98650683D01*
X119514282Y-98596114D01*
X119374426Y-98568295D01*
X119231830Y-98568295D01*
X119091974Y-98596114D01*
X118960233Y-98650683D01*
X118841668Y-98729905D01*
X118740838Y-98830735D01*
X118661616Y-98949300D01*
X118607047Y-99081041D01*
X118579228Y-99220897D01*
X118579228Y-99363493D01*
X118607047Y-99503349D01*
X118661616Y-99635090D01*
X118740838Y-99753655D01*
X118841668Y-99854485D01*
X118960233Y-99933707D01*
X119071480Y-99979787D01*
X118990747Y-100033731D01*
X118889917Y-100134561D01*
X118856071Y-100185216D01*
X116963701Y-98292847D01*
X116960384Y-98259172D01*
X116934240Y-98172990D01*
X116891787Y-98093564D01*
X116891786Y-98093562D01*
X116848969Y-98041391D01*
X116834652Y-98023946D01*
X116817208Y-98009630D01*
X116770275Y-97962697D01*
X116840043Y-97794263D01*
X116890800Y-97539087D01*
X116890800Y-97278913D01*
X116840043Y-97023737D01*
X116740478Y-96783366D01*
X116595933Y-96567039D01*
X116547694Y-96518800D01*
X119672306Y-96518800D01*
X119624067Y-96567039D01*
%TA.AperFunction,Conductor*%
D14*
G36*
X119624067Y-96567039D02*
G01*
X119479522Y-96783366D01*
X119379957Y-97023737D01*
X119329200Y-97278913D01*
X119329200Y-97539087D01*
X119379957Y-97794263D01*
X119479522Y-98034634D01*
X119624067Y-98250961D01*
X119808039Y-98434933D01*
X120024366Y-98579478D01*
X120264737Y-98679043D01*
X120519913Y-98729800D01*
X120780087Y-98729800D01*
X121035263Y-98679043D01*
X121275634Y-98579478D01*
X121491961Y-98434933D01*
X121675933Y-98250961D01*
X121820478Y-98034634D01*
X121885853Y-97876806D01*
X121919957Y-98048263D01*
X122019522Y-98288634D01*
X122164067Y-98504961D01*
X122348039Y-98688933D01*
X122564366Y-98833478D01*
X122568028Y-98834995D01*
X119868264Y-98834995D01*
X119865418Y-98830735D01*
X119764588Y-98729905D01*
X119646023Y-98650683D01*
X119514282Y-98596114D01*
X119374426Y-98568295D01*
X119231830Y-98568295D01*
X119091974Y-98596114D01*
X118960233Y-98650683D01*
X118841668Y-98729905D01*
X118740838Y-98830735D01*
X118661616Y-98949300D01*
X118607047Y-99081041D01*
X118579228Y-99220897D01*
X118579228Y-99363493D01*
X118607047Y-99503349D01*
X118661616Y-99635090D01*
X118740838Y-99753655D01*
X118841668Y-99854485D01*
X118960233Y-99933707D01*
X119071480Y-99979787D01*
X118990747Y-100033731D01*
X118889917Y-100134561D01*
X118856071Y-100185216D01*
X116963701Y-98292847D01*
X116960384Y-98259172D01*
X116934240Y-98172990D01*
X116891787Y-98093564D01*
X116891786Y-98093562D01*
X116848969Y-98041391D01*
X116834652Y-98023946D01*
X116817208Y-98009630D01*
X116770275Y-97962697D01*
X116840043Y-97794263D01*
X116890800Y-97539087D01*
X116890800Y-97278913D01*
X116840043Y-97023737D01*
X116740478Y-96783366D01*
X116595933Y-96567039D01*
X116547694Y-96518800D01*
X119672306Y-96518800D01*
X119624067Y-96567039D01*
G37*
%TD.AperFunction*%
%TD*%
M02*
