%TF.GenerationSoftware,KiCad,Pcbnew,5.1.10*%
%TF.CreationDate,2021-05-04T23:01:40-04:00*%
%TF.ProjectId,NINA-W102_minimal_breakout,4e494e41-2d57-4313-9032-5f6d696e696d,0.5*%
%TF.SameCoordinates,Original*%
%TF.FileFunction,OtherDrawing,Comment*%
%FSLAX46Y46*%
G04 Gerber Fmt 4.6, Leading zero omitted, Abs format (unit mm)*
G04 Created by KiCad (PCBNEW 5.1.10) date 2021-05-04 23:01:40*
%MOMM*%
%LPD*%
G01*
G04 APERTURE LIST*
%ADD10C,0.127000*%
%ADD11C,0.100000*%
%ADD12C,0.200000*%
%ADD13C,0.254000*%
%ADD14C,0.203200*%
G04 APERTURE END LIST*
D10*
%TO.C,SW2*%
X125117860Y-104731820D02*
X125117860Y-102532180D01*
X131117340Y-104731820D02*
X131117340Y-102532180D01*
%TO.C,SW1*%
X117553740Y-107866180D02*
X117553740Y-110065820D01*
X111554260Y-107866180D02*
X111554260Y-110065820D01*
D11*
%TO.C,U1*%
X135637000Y-112930000D02*
X135637000Y-100430000D01*
X151637000Y-112930000D02*
X135637000Y-112930000D01*
X151637000Y-100430000D02*
X151637000Y-112930000D01*
X135637000Y-100430000D02*
X151637000Y-100430000D01*
D12*
X136637000Y-111430000D02*
X136637000Y-101430000D01*
X150637000Y-111430000D02*
X136637000Y-111430000D01*
X150637000Y-101430000D02*
X150637000Y-111430000D01*
X136637000Y-101430000D02*
X150637000Y-101430000D01*
D13*
%TO.C,*%
X94330000Y-84810000D02*
X175600000Y-84810000D01*
X94330000Y-82270000D02*
X175600000Y-82270000D01*
X94330000Y-94970000D02*
X175600000Y-94970000D01*
X94330000Y-97510000D02*
X175600000Y-97510000D01*
X94330000Y-100050000D02*
X175600000Y-100050000D01*
X94330000Y-102590000D02*
X175600000Y-102590000D01*
X94330000Y-92430000D02*
X175600000Y-92430000D01*
X94330000Y-110210000D02*
X175600000Y-110210000D01*
X94330000Y-112750000D02*
X175600000Y-112750000D01*
X94330000Y-115290000D02*
X175600000Y-115290000D01*
X94330000Y-117830000D02*
X175600000Y-117830000D01*
X94330000Y-120370000D02*
X175600000Y-120370000D01*
X94330000Y-127990000D02*
X175600000Y-127990000D01*
X94330000Y-130530000D02*
X175600000Y-130530000D01*
%TD*%
%TO.C,*%
D14*
X92969285Y-117346190D02*
X93029761Y-117164761D01*
X93090238Y-117104285D01*
X93211190Y-117043809D01*
X93392619Y-117043809D01*
X93513571Y-117104285D01*
X93574047Y-117164761D01*
X93634523Y-117285714D01*
X93634523Y-117769523D01*
X92364523Y-117769523D01*
X92364523Y-117346190D01*
X92425000Y-117225238D01*
X92485476Y-117164761D01*
X92606428Y-117104285D01*
X92727380Y-117104285D01*
X92848333Y-117164761D01*
X92908809Y-117225238D01*
X92969285Y-117346190D01*
X92969285Y-117769523D01*
X93634523Y-116499523D02*
X92787857Y-116499523D01*
X93029761Y-116499523D02*
X92908809Y-116439047D01*
X92848333Y-116378571D01*
X92787857Y-116257619D01*
X92787857Y-116136666D01*
X93574047Y-115229523D02*
X93634523Y-115350476D01*
X93634523Y-115592380D01*
X93574047Y-115713333D01*
X93453095Y-115773809D01*
X92969285Y-115773809D01*
X92848333Y-115713333D01*
X92787857Y-115592380D01*
X92787857Y-115350476D01*
X92848333Y-115229523D01*
X92969285Y-115169047D01*
X93090238Y-115169047D01*
X93211190Y-115773809D01*
X93634523Y-114080476D02*
X92969285Y-114080476D01*
X92848333Y-114140952D01*
X92787857Y-114261904D01*
X92787857Y-114503809D01*
X92848333Y-114624761D01*
X93574047Y-114080476D02*
X93634523Y-114201428D01*
X93634523Y-114503809D01*
X93574047Y-114624761D01*
X93453095Y-114685238D01*
X93332142Y-114685238D01*
X93211190Y-114624761D01*
X93150714Y-114503809D01*
X93150714Y-114201428D01*
X93090238Y-114080476D01*
X93634523Y-112931428D02*
X92364523Y-112931428D01*
X93574047Y-112931428D02*
X93634523Y-113052380D01*
X93634523Y-113294285D01*
X93574047Y-113415238D01*
X93513571Y-113475714D01*
X93392619Y-113536190D01*
X93029761Y-113536190D01*
X92908809Y-113475714D01*
X92848333Y-113415238D01*
X92787857Y-113294285D01*
X92787857Y-113052380D01*
X92848333Y-112931428D01*
X93634523Y-112326666D02*
X92364523Y-112326666D01*
X92848333Y-112326666D02*
X92787857Y-112205714D01*
X92787857Y-111963809D01*
X92848333Y-111842857D01*
X92908809Y-111782380D01*
X93029761Y-111721904D01*
X93392619Y-111721904D01*
X93513571Y-111782380D01*
X93574047Y-111842857D01*
X93634523Y-111963809D01*
X93634523Y-112205714D01*
X93574047Y-112326666D01*
X93634523Y-110996190D02*
X93574047Y-111117142D01*
X93513571Y-111177619D01*
X93392619Y-111238095D01*
X93029761Y-111238095D01*
X92908809Y-111177619D01*
X92848333Y-111117142D01*
X92787857Y-110996190D01*
X92787857Y-110814761D01*
X92848333Y-110693809D01*
X92908809Y-110633333D01*
X93029761Y-110572857D01*
X93392619Y-110572857D01*
X93513571Y-110633333D01*
X93574047Y-110693809D01*
X93634523Y-110814761D01*
X93634523Y-110996190D01*
X93634523Y-109484285D02*
X92969285Y-109484285D01*
X92848333Y-109544761D01*
X92787857Y-109665714D01*
X92787857Y-109907619D01*
X92848333Y-110028571D01*
X93574047Y-109484285D02*
X93634523Y-109605238D01*
X93634523Y-109907619D01*
X93574047Y-110028571D01*
X93453095Y-110089047D01*
X93332142Y-110089047D01*
X93211190Y-110028571D01*
X93150714Y-109907619D01*
X93150714Y-109605238D01*
X93090238Y-109484285D01*
X93634523Y-108879523D02*
X92787857Y-108879523D01*
X93029761Y-108879523D02*
X92908809Y-108819047D01*
X92848333Y-108758571D01*
X92787857Y-108637619D01*
X92787857Y-108516666D01*
X93634523Y-107549047D02*
X92364523Y-107549047D01*
X93574047Y-107549047D02*
X93634523Y-107670000D01*
X93634523Y-107911904D01*
X93574047Y-108032857D01*
X93513571Y-108093333D01*
X93392619Y-108153809D01*
X93029761Y-108153809D01*
X92908809Y-108093333D01*
X92848333Y-108032857D01*
X92787857Y-107911904D01*
X92787857Y-107670000D01*
X92848333Y-107549047D01*
X93634523Y-105976666D02*
X92787857Y-105976666D01*
X93029761Y-105976666D02*
X92908809Y-105916190D01*
X92848333Y-105855714D01*
X92787857Y-105734761D01*
X92787857Y-105613809D01*
X93634523Y-105009047D02*
X93574047Y-105130000D01*
X93513571Y-105190476D01*
X93392619Y-105250952D01*
X93029761Y-105250952D01*
X92908809Y-105190476D01*
X92848333Y-105130000D01*
X92787857Y-105009047D01*
X92787857Y-104827619D01*
X92848333Y-104706666D01*
X92908809Y-104646190D01*
X93029761Y-104585714D01*
X93392619Y-104585714D01*
X93513571Y-104646190D01*
X93574047Y-104706666D01*
X93634523Y-104827619D01*
X93634523Y-105009047D01*
X92787857Y-104162380D02*
X93634523Y-103920476D01*
X93029761Y-103678571D01*
X93634523Y-103436666D01*
X92787857Y-103194761D01*
X93574047Y-101803809D02*
X93634523Y-101682857D01*
X93634523Y-101440952D01*
X93574047Y-101320000D01*
X93453095Y-101259523D01*
X93392619Y-101259523D01*
X93271666Y-101320000D01*
X93211190Y-101440952D01*
X93211190Y-101622380D01*
X93150714Y-101743333D01*
X93029761Y-101803809D01*
X92969285Y-101803809D01*
X92848333Y-101743333D01*
X92787857Y-101622380D01*
X92787857Y-101440952D01*
X92848333Y-101320000D01*
X92787857Y-100715238D02*
X94057857Y-100715238D01*
X92848333Y-100715238D02*
X92787857Y-100594285D01*
X92787857Y-100352380D01*
X92848333Y-100231428D01*
X92908809Y-100170952D01*
X93029761Y-100110476D01*
X93392619Y-100110476D01*
X93513571Y-100170952D01*
X93574047Y-100231428D01*
X93634523Y-100352380D01*
X93634523Y-100594285D01*
X93574047Y-100715238D01*
X93634523Y-99021904D02*
X92969285Y-99021904D01*
X92848333Y-99082380D01*
X92787857Y-99203333D01*
X92787857Y-99445238D01*
X92848333Y-99566190D01*
X93574047Y-99021904D02*
X93634523Y-99142857D01*
X93634523Y-99445238D01*
X93574047Y-99566190D01*
X93453095Y-99626666D01*
X93332142Y-99626666D01*
X93211190Y-99566190D01*
X93150714Y-99445238D01*
X93150714Y-99142857D01*
X93090238Y-99021904D01*
X93574047Y-97872857D02*
X93634523Y-97993809D01*
X93634523Y-98235714D01*
X93574047Y-98356666D01*
X93513571Y-98417142D01*
X93392619Y-98477619D01*
X93029761Y-98477619D01*
X92908809Y-98417142D01*
X92848333Y-98356666D01*
X92787857Y-98235714D01*
X92787857Y-97993809D01*
X92848333Y-97872857D01*
X93634523Y-97328571D02*
X92787857Y-97328571D01*
X92364523Y-97328571D02*
X92425000Y-97389047D01*
X92485476Y-97328571D01*
X92425000Y-97268095D01*
X92364523Y-97328571D01*
X92485476Y-97328571D01*
X92787857Y-96723809D02*
X93634523Y-96723809D01*
X92908809Y-96723809D02*
X92848333Y-96663333D01*
X92787857Y-96542380D01*
X92787857Y-96360952D01*
X92848333Y-96240000D01*
X92969285Y-96179523D01*
X93634523Y-96179523D01*
X92787857Y-95030476D02*
X93815952Y-95030476D01*
X93936904Y-95090952D01*
X93997380Y-95151428D01*
X94057857Y-95272380D01*
X94057857Y-95453809D01*
X93997380Y-95574761D01*
X93574047Y-95030476D02*
X93634523Y-95151428D01*
X93634523Y-95393333D01*
X93574047Y-95514285D01*
X93513571Y-95574761D01*
X93392619Y-95635238D01*
X93029761Y-95635238D01*
X92908809Y-95574761D01*
X92848333Y-95514285D01*
X92787857Y-95393333D01*
X92787857Y-95151428D01*
X92848333Y-95030476D01*
%TD*%
M02*
