G04 #@! TF.GenerationSoftware,KiCad,Pcbnew,5.1.10*
G04 #@! TF.CreationDate,2021-05-04T16:54:42-04:00*
G04 #@! TF.ProjectId,NINA-W102_minimal_breakout,4e494e41-2d57-4313-9032-5f6d696e696d,0.5*
G04 #@! TF.SameCoordinates,Original*
G04 #@! TF.FileFunction,Legend,Top*
G04 #@! TF.FilePolarity,Positive*
%FSLAX46Y46*%
G04 Gerber Fmt 4.6, Leading zero omitted, Abs format (unit mm)*
G04 Created by KiCad (PCBNEW 5.1.10) date 2021-05-04 16:54:42*
%MOMM*%
%LPD*%
G01*
G04 APERTURE LIST*
%ADD10C,0.100000*%
%ADD11C,0.120000*%
%ADD12C,0.127000*%
%ADD13C,0.203200*%
%ADD14C,0.150000*%
%ADD15C,0.200000*%
%ADD16C,0.010000*%
%ADD17C,0.152400*%
%ADD18C,0.220000*%
G04 APERTURE END LIST*
D10*
X109094800Y-111212285D02*
X109094800Y-110926571D01*
X109618609Y-110926571D01*
X109618609Y-110831333D01*
X109856704Y-111069428D01*
X109618609Y-111307523D01*
X109618609Y-111212285D01*
X109094800Y-111212285D01*
X109285628Y-110395657D02*
X109372714Y-110424685D01*
X109401742Y-110453714D01*
X109430771Y-110511771D01*
X109430771Y-110598857D01*
X109401742Y-110656914D01*
X109372714Y-110685942D01*
X109314657Y-110714971D01*
X109082428Y-110714971D01*
X109082428Y-110105371D01*
X109285628Y-110105371D01*
X109343685Y-110134400D01*
X109372714Y-110163428D01*
X109401742Y-110221485D01*
X109401742Y-110279542D01*
X109372714Y-110337600D01*
X109343685Y-110366628D01*
X109285628Y-110395657D01*
X109082428Y-110395657D01*
X109808142Y-110105371D02*
X109924257Y-110105371D01*
X109982314Y-110134400D01*
X110040371Y-110192457D01*
X110069400Y-110308571D01*
X110069400Y-110511771D01*
X110040371Y-110627885D01*
X109982314Y-110685942D01*
X109924257Y-110714971D01*
X109808142Y-110714971D01*
X109750085Y-110685942D01*
X109692028Y-110627885D01*
X109663000Y-110511771D01*
X109663000Y-110308571D01*
X109692028Y-110192457D01*
X109750085Y-110134400D01*
X109808142Y-110105371D01*
X110446771Y-110105371D02*
X110562885Y-110105371D01*
X110620942Y-110134400D01*
X110679000Y-110192457D01*
X110708028Y-110308571D01*
X110708028Y-110511771D01*
X110679000Y-110627885D01*
X110620942Y-110685942D01*
X110562885Y-110714971D01*
X110446771Y-110714971D01*
X110388714Y-110685942D01*
X110330657Y-110627885D01*
X110301628Y-110511771D01*
X110301628Y-110308571D01*
X110330657Y-110192457D01*
X110388714Y-110134400D01*
X110446771Y-110105371D01*
X110882200Y-110105371D02*
X111230542Y-110105371D01*
X111056371Y-110714971D02*
X111056371Y-110105371D01*
D11*
X133262780Y-99999028D02*
X133286590Y-99975219D01*
X133358019Y-99951409D01*
X133405638Y-99951409D01*
X133477066Y-99975219D01*
X133524685Y-100022838D01*
X133548495Y-100070457D01*
X133572304Y-100165695D01*
X133572304Y-100237123D01*
X133548495Y-100332361D01*
X133524685Y-100379980D01*
X133477066Y-100427600D01*
X133405638Y-100451409D01*
X133358019Y-100451409D01*
X133286590Y-100427600D01*
X133262780Y-100403790D01*
X133119923Y-100451409D02*
X132834209Y-100451409D01*
X132977066Y-99951409D02*
X132977066Y-100451409D01*
X132691352Y-99975219D02*
X132619923Y-99951409D01*
X132500876Y-99951409D01*
X132453257Y-99975219D01*
X132429447Y-99999028D01*
X132405638Y-100046647D01*
X132405638Y-100094266D01*
X132429447Y-100141885D01*
X132453257Y-100165695D01*
X132500876Y-100189504D01*
X132596114Y-100213314D01*
X132643733Y-100237123D01*
X132667542Y-100260933D01*
X132691352Y-100308552D01*
X132691352Y-100356171D01*
X132667542Y-100403790D01*
X132643733Y-100427600D01*
X132596114Y-100451409D01*
X132477066Y-100451409D01*
X132405638Y-100427600D01*
X111464714Y-100068866D02*
X111226619Y-100068866D01*
X111512333Y-99926009D02*
X111345666Y-100426009D01*
X111179000Y-99926009D01*
X111012333Y-99926009D02*
X111012333Y-100426009D01*
X110893285Y-100426009D01*
X110821857Y-100402200D01*
X110774238Y-100354580D01*
X110750428Y-100306961D01*
X110726619Y-100211723D01*
X110726619Y-100140295D01*
X110750428Y-100045057D01*
X110774238Y-99997438D01*
X110821857Y-99949819D01*
X110893285Y-99926009D01*
X111012333Y-99926009D01*
X110559952Y-100426009D02*
X110250428Y-100426009D01*
X110417095Y-100235533D01*
X110345666Y-100235533D01*
X110298047Y-100211723D01*
X110274238Y-100187914D01*
X110250428Y-100140295D01*
X110250428Y-100021247D01*
X110274238Y-99973628D01*
X110298047Y-99949819D01*
X110345666Y-99926009D01*
X110488523Y-99926009D01*
X110536142Y-99949819D01*
X110559952Y-99973628D01*
X109821857Y-100259342D02*
X109821857Y-99926009D01*
X109940904Y-100449819D02*
X110059952Y-100092676D01*
X109750428Y-100092676D01*
X120445323Y-100375209D02*
X120159609Y-100375209D01*
X120302466Y-99875209D02*
X120302466Y-100375209D01*
X119754847Y-100375209D02*
X119992942Y-100375209D01*
X120016752Y-100137114D01*
X119992942Y-100160923D01*
X119945323Y-100184733D01*
X119826276Y-100184733D01*
X119778657Y-100160923D01*
X119754847Y-100137114D01*
X119731038Y-100089495D01*
X119731038Y-99970447D01*
X119754847Y-99922828D01*
X119778657Y-99899019D01*
X119826276Y-99875209D01*
X119945323Y-99875209D01*
X119992942Y-99899019D01*
X120016752Y-99922828D01*
X116076523Y-100349809D02*
X115790809Y-100349809D01*
X115933666Y-99849809D02*
X115933666Y-100349809D01*
X115409857Y-100183142D02*
X115409857Y-99849809D01*
X115528904Y-100373619D02*
X115647952Y-100016476D01*
X115338428Y-100016476D01*
X115038076Y-112476790D02*
X115323790Y-112476790D01*
X115180933Y-112976790D02*
X115180933Y-112476790D01*
X115442838Y-112476790D02*
X115752361Y-112476790D01*
X115585695Y-112667266D01*
X115657123Y-112667266D01*
X115704742Y-112691076D01*
X115728552Y-112714885D01*
X115752361Y-112762504D01*
X115752361Y-112881552D01*
X115728552Y-112929171D01*
X115704742Y-112952980D01*
X115657123Y-112976790D01*
X115514266Y-112976790D01*
X115466647Y-112952980D01*
X115442838Y-112929171D01*
X119330676Y-112502190D02*
X119616390Y-112502190D01*
X119473533Y-113002190D02*
X119473533Y-112502190D01*
X119997342Y-112502190D02*
X119902104Y-112502190D01*
X119854485Y-112526000D01*
X119830676Y-112549809D01*
X119783057Y-112621238D01*
X119759247Y-112716476D01*
X119759247Y-112906952D01*
X119783057Y-112954571D01*
X119806866Y-112978380D01*
X119854485Y-113002190D01*
X119949723Y-113002190D01*
X119997342Y-112978380D01*
X120021152Y-112954571D01*
X120044961Y-112906952D01*
X120044961Y-112787904D01*
X120021152Y-112740285D01*
X119997342Y-112716476D01*
X119949723Y-112692666D01*
X119854485Y-112692666D01*
X119806866Y-112716476D01*
X119783057Y-112740285D01*
X119759247Y-112787904D01*
X126160323Y-100324409D02*
X125874609Y-100324409D01*
X126017466Y-99824409D02*
X126017466Y-100324409D01*
X125612704Y-100324409D02*
X125565085Y-100324409D01*
X125517466Y-100300600D01*
X125493657Y-100276790D01*
X125469847Y-100229171D01*
X125446038Y-100133933D01*
X125446038Y-100014885D01*
X125469847Y-99919647D01*
X125493657Y-99872028D01*
X125517466Y-99848219D01*
X125565085Y-99824409D01*
X125612704Y-99824409D01*
X125660323Y-99848219D01*
X125684133Y-99872028D01*
X125707942Y-99919647D01*
X125731752Y-100014885D01*
X125731752Y-100133933D01*
X125707942Y-100229171D01*
X125684133Y-100276790D01*
X125660323Y-100300600D01*
X125612704Y-100324409D01*
X136615580Y-99900609D02*
X136782247Y-100138704D01*
X136901295Y-99900609D02*
X136901295Y-100400609D01*
X136710819Y-100400609D01*
X136663200Y-100376800D01*
X136639390Y-100352990D01*
X136615580Y-100305371D01*
X136615580Y-100233942D01*
X136639390Y-100186323D01*
X136663200Y-100162514D01*
X136710819Y-100138704D01*
X136901295Y-100138704D01*
X136472723Y-100400609D02*
X136187009Y-100400609D01*
X136329866Y-99900609D02*
X136329866Y-100400609D01*
X136044152Y-99924419D02*
X135972723Y-99900609D01*
X135853676Y-99900609D01*
X135806057Y-99924419D01*
X135782247Y-99948228D01*
X135758438Y-99995847D01*
X135758438Y-100043466D01*
X135782247Y-100091085D01*
X135806057Y-100114895D01*
X135853676Y-100138704D01*
X135948914Y-100162514D01*
X135996533Y-100186323D01*
X136020342Y-100210133D01*
X136044152Y-100257752D01*
X136044152Y-100305371D01*
X136020342Y-100352990D01*
X135996533Y-100376800D01*
X135948914Y-100400609D01*
X135829866Y-100400609D01*
X135758438Y-100376800D01*
X141374923Y-100426009D02*
X141089209Y-100426009D01*
X141232066Y-99926009D02*
X141232066Y-100426009D01*
X140970161Y-100426009D02*
X140636828Y-100426009D01*
X140851114Y-99926009D01*
X144486304Y-99926009D02*
X144486304Y-100426009D01*
X144367257Y-100426009D01*
X144295828Y-100402200D01*
X144248209Y-100354580D01*
X144224400Y-100306961D01*
X144200590Y-100211723D01*
X144200590Y-100140295D01*
X144224400Y-100045057D01*
X144248209Y-99997438D01*
X144295828Y-99949819D01*
X144367257Y-99926009D01*
X144486304Y-99926009D01*
X144010114Y-100068866D02*
X143772019Y-100068866D01*
X144057733Y-99926009D02*
X143891066Y-100426009D01*
X143724400Y-99926009D01*
X143295828Y-99926009D02*
X143581542Y-99926009D01*
X143438685Y-99926009D02*
X143438685Y-100426009D01*
X143486304Y-100354580D01*
X143533923Y-100306961D01*
X143581542Y-100283152D01*
X143129161Y-100426009D02*
X142795828Y-100426009D01*
X143010114Y-99926009D01*
X147000904Y-99926009D02*
X147000904Y-100426009D01*
X146881857Y-100426009D01*
X146810428Y-100402200D01*
X146762809Y-100354580D01*
X146739000Y-100306961D01*
X146715190Y-100211723D01*
X146715190Y-100140295D01*
X146739000Y-100045057D01*
X146762809Y-99997438D01*
X146810428Y-99949819D01*
X146881857Y-99926009D01*
X147000904Y-99926009D01*
X146524714Y-100068866D02*
X146286619Y-100068866D01*
X146572333Y-99926009D02*
X146405666Y-100426009D01*
X146239000Y-99926009D01*
X145810428Y-99926009D02*
X146096142Y-99926009D01*
X145953285Y-99926009D02*
X145953285Y-100426009D01*
X146000904Y-100354580D01*
X146048523Y-100306961D01*
X146096142Y-100283152D01*
X145381857Y-100426009D02*
X145477095Y-100426009D01*
X145524714Y-100402200D01*
X145548523Y-100378390D01*
X145596142Y-100306961D01*
X145619952Y-100211723D01*
X145619952Y-100021247D01*
X145596142Y-99973628D01*
X145572333Y-99949819D01*
X145524714Y-99926009D01*
X145429476Y-99926009D01*
X145381857Y-99949819D01*
X145358047Y-99973628D01*
X145334238Y-100021247D01*
X145334238Y-100140295D01*
X145358047Y-100187914D01*
X145381857Y-100211723D01*
X145429476Y-100235533D01*
X145524714Y-100235533D01*
X145572333Y-100211723D01*
X145596142Y-100187914D01*
X145619952Y-100140295D01*
X129448553Y-114273470D02*
X129601598Y-114091079D01*
X129527379Y-114401775D02*
X129251488Y-113952707D01*
X129741642Y-114146427D01*
X129848773Y-114018753D02*
X129465751Y-113697359D01*
X129542273Y-113606163D01*
X129606426Y-113566750D01*
X129673513Y-113560881D01*
X129725296Y-113573251D01*
X129813557Y-113616229D01*
X129868274Y-113662143D01*
X129925927Y-113741600D01*
X129947100Y-113790448D01*
X129952970Y-113857535D01*
X129925296Y-113927557D01*
X129848773Y-114018753D01*
X130052559Y-113257316D02*
X130307907Y-113471578D01*
X129830124Y-113226076D02*
X130027188Y-113546839D01*
X130226147Y-113309730D01*
X126933953Y-114248070D02*
X127086998Y-114065679D01*
X127012779Y-114376375D02*
X126736888Y-113927307D01*
X127227042Y-114121027D01*
X127334173Y-113993353D02*
X126951151Y-113671959D01*
X127027673Y-113580763D01*
X127091826Y-113541350D01*
X127158913Y-113535481D01*
X127210696Y-113547851D01*
X127298957Y-113590829D01*
X127353674Y-113636743D01*
X127411327Y-113716200D01*
X127432500Y-113765048D01*
X127438370Y-113832135D01*
X127410696Y-113902157D01*
X127334173Y-113993353D01*
X127241936Y-113325415D02*
X127440894Y-113088306D01*
X127479676Y-113338416D01*
X127525589Y-113283699D01*
X127574437Y-113262525D01*
X127607981Y-113259590D01*
X127659764Y-113271960D01*
X127750960Y-113348482D01*
X127772133Y-113397330D01*
X127775068Y-113430874D01*
X127762698Y-113482657D01*
X127670871Y-113592092D01*
X127622023Y-113613265D01*
X127588480Y-113616200D01*
X124368553Y-114222670D02*
X124521598Y-114040279D01*
X124447379Y-114350975D02*
X124171488Y-113901907D01*
X124661642Y-114095627D01*
X124768773Y-113967953D02*
X124385751Y-113646559D01*
X124462273Y-113555363D01*
X124526426Y-113515950D01*
X124593513Y-113510081D01*
X124645296Y-113522451D01*
X124733557Y-113565429D01*
X124788274Y-113611343D01*
X124845927Y-113690800D01*
X124867100Y-113739648D01*
X124872970Y-113806735D01*
X124845296Y-113876757D01*
X124768773Y-113967953D01*
X124728319Y-113312385D02*
X124725384Y-113278841D01*
X124737754Y-113227059D01*
X124814276Y-113135863D01*
X124863124Y-113114689D01*
X124896668Y-113111754D01*
X124948451Y-113124124D01*
X124984929Y-113154733D01*
X125024342Y-113218886D01*
X125059558Y-113621409D01*
X125258516Y-113384300D01*
X132538676Y-112425990D02*
X132824390Y-112425990D01*
X132681533Y-112925990D02*
X132681533Y-112425990D01*
X133014866Y-112925990D02*
X133110104Y-112925990D01*
X133157723Y-112902180D01*
X133181533Y-112878371D01*
X133229152Y-112806942D01*
X133252961Y-112711704D01*
X133252961Y-112521228D01*
X133229152Y-112473609D01*
X133205342Y-112449800D01*
X133157723Y-112425990D01*
X133062485Y-112425990D01*
X133014866Y-112449800D01*
X132991057Y-112473609D01*
X132967247Y-112521228D01*
X132967247Y-112640276D01*
X132991057Y-112687895D01*
X133014866Y-112711704D01*
X133062485Y-112735514D01*
X133157723Y-112735514D01*
X133205342Y-112711704D01*
X133229152Y-112687895D01*
X133252961Y-112640276D01*
X137872676Y-112425990D02*
X138158390Y-112425990D01*
X138015533Y-112925990D02*
X138015533Y-112425990D01*
X138396485Y-112640276D02*
X138348866Y-112616466D01*
X138325057Y-112592657D01*
X138301247Y-112545038D01*
X138301247Y-112521228D01*
X138325057Y-112473609D01*
X138348866Y-112449800D01*
X138396485Y-112425990D01*
X138491723Y-112425990D01*
X138539342Y-112449800D01*
X138563152Y-112473609D01*
X138586961Y-112521228D01*
X138586961Y-112545038D01*
X138563152Y-112592657D01*
X138539342Y-112616466D01*
X138491723Y-112640276D01*
X138396485Y-112640276D01*
X138348866Y-112664085D01*
X138325057Y-112687895D01*
X138301247Y-112735514D01*
X138301247Y-112830752D01*
X138325057Y-112878371D01*
X138348866Y-112902180D01*
X138396485Y-112925990D01*
X138491723Y-112925990D01*
X138539342Y-112902180D01*
X138563152Y-112878371D01*
X138586961Y-112830752D01*
X138586961Y-112735514D01*
X138563152Y-112687895D01*
X138539342Y-112664085D01*
X138491723Y-112640276D01*
X113734857Y-100187914D02*
X113663428Y-100164104D01*
X113639619Y-100140295D01*
X113615809Y-100092676D01*
X113615809Y-100021247D01*
X113639619Y-99973628D01*
X113663428Y-99949819D01*
X113711047Y-99926009D01*
X113901523Y-99926009D01*
X113901523Y-100426009D01*
X113734857Y-100426009D01*
X113687238Y-100402200D01*
X113663428Y-100378390D01*
X113639619Y-100330771D01*
X113639619Y-100283152D01*
X113663428Y-100235533D01*
X113687238Y-100211723D01*
X113734857Y-100187914D01*
X113901523Y-100187914D01*
X113306285Y-100426009D02*
X113211047Y-100426009D01*
X113163428Y-100402200D01*
X113115809Y-100354580D01*
X113092000Y-100259342D01*
X113092000Y-100092676D01*
X113115809Y-99997438D01*
X113163428Y-99949819D01*
X113211047Y-99926009D01*
X113306285Y-99926009D01*
X113353904Y-99949819D01*
X113401523Y-99997438D01*
X113425333Y-100092676D01*
X113425333Y-100259342D01*
X113401523Y-100354580D01*
X113353904Y-100402200D01*
X113306285Y-100426009D01*
X112782476Y-100426009D02*
X112687238Y-100426009D01*
X112639619Y-100402200D01*
X112592000Y-100354580D01*
X112568190Y-100259342D01*
X112568190Y-100092676D01*
X112592000Y-99997438D01*
X112639619Y-99949819D01*
X112687238Y-99926009D01*
X112782476Y-99926009D01*
X112830095Y-99949819D01*
X112877714Y-99997438D01*
X112901523Y-100092676D01*
X112901523Y-100259342D01*
X112877714Y-100354580D01*
X112830095Y-100402200D01*
X112782476Y-100426009D01*
X112425333Y-100426009D02*
X112139619Y-100426009D01*
X112282476Y-99926009D02*
X112282476Y-100426009D01*
X139160304Y-99900609D02*
X139160304Y-100400609D01*
X139041257Y-100400609D01*
X138969828Y-100376800D01*
X138922209Y-100329180D01*
X138898400Y-100281561D01*
X138874590Y-100186323D01*
X138874590Y-100114895D01*
X138898400Y-100019657D01*
X138922209Y-99972038D01*
X138969828Y-99924419D01*
X139041257Y-99900609D01*
X139160304Y-99900609D01*
X138731733Y-100400609D02*
X138446019Y-100400609D01*
X138588876Y-99900609D02*
X138588876Y-100400609D01*
X137993638Y-99900609D02*
X138160304Y-100138704D01*
X138279352Y-99900609D02*
X138279352Y-100400609D01*
X138088876Y-100400609D01*
X138041257Y-100376800D01*
X138017447Y-100352990D01*
X137993638Y-100305371D01*
X137993638Y-100233942D01*
X138017447Y-100186323D01*
X138041257Y-100162514D01*
X138088876Y-100138704D01*
X138279352Y-100138704D01*
D12*
X123653504Y-108629219D02*
X123120171Y-108629219D01*
X123272552Y-108629219D02*
X123196361Y-108591123D01*
X123158266Y-108553028D01*
X123120171Y-108476838D01*
X123120171Y-108400647D01*
X123615409Y-107829219D02*
X123653504Y-107905409D01*
X123653504Y-108057790D01*
X123615409Y-108133980D01*
X123539219Y-108172076D01*
X123234457Y-108172076D01*
X123158266Y-108133980D01*
X123120171Y-108057790D01*
X123120171Y-107905409D01*
X123158266Y-107829219D01*
X123234457Y-107791123D01*
X123310647Y-107791123D01*
X123386838Y-108172076D01*
X123120171Y-107524457D02*
X123653504Y-107333980D01*
X123120171Y-107143504D01*
X123577314Y-106838742D02*
X123615409Y-106800647D01*
X123653504Y-106838742D01*
X123615409Y-106876838D01*
X123577314Y-106838742D01*
X123653504Y-106838742D01*
X122853504Y-106305409D02*
X122853504Y-106229219D01*
X122891600Y-106153028D01*
X122929695Y-106114933D01*
X123005885Y-106076838D01*
X123158266Y-106038742D01*
X123348742Y-106038742D01*
X123501123Y-106076838D01*
X123577314Y-106114933D01*
X123615409Y-106153028D01*
X123653504Y-106229219D01*
X123653504Y-106305409D01*
X123615409Y-106381600D01*
X123577314Y-106419695D01*
X123501123Y-106457790D01*
X123348742Y-106495885D01*
X123158266Y-106495885D01*
X123005885Y-106457790D01*
X122929695Y-106419695D01*
X122891600Y-106381600D01*
X122853504Y-106305409D01*
X123577314Y-105695885D02*
X123615409Y-105657790D01*
X123653504Y-105695885D01*
X123615409Y-105733980D01*
X123577314Y-105695885D01*
X123653504Y-105695885D01*
X122853504Y-104933980D02*
X122853504Y-105314933D01*
X123234457Y-105353028D01*
X123196361Y-105314933D01*
X123158266Y-105238742D01*
X123158266Y-105048266D01*
X123196361Y-104972076D01*
X123234457Y-104933980D01*
X123310647Y-104895885D01*
X123501123Y-104895885D01*
X123577314Y-104933980D01*
X123615409Y-104972076D01*
X123653504Y-105048266D01*
X123653504Y-105238742D01*
X123615409Y-105314933D01*
X123577314Y-105353028D01*
D11*
X131435523Y-100349809D02*
X131149809Y-100349809D01*
X131292666Y-99849809D02*
X131292666Y-100349809D01*
X131030761Y-100349809D02*
X130697428Y-99849809D01*
X130697428Y-100349809D02*
X131030761Y-99849809D01*
X130506952Y-99849809D02*
X130506952Y-100349809D01*
X130387904Y-100349809D01*
X130316476Y-100326000D01*
X130268857Y-100278380D01*
X130245047Y-100230761D01*
X130221238Y-100135523D01*
X130221238Y-100064095D01*
X130245047Y-99968857D01*
X130268857Y-99921238D01*
X130316476Y-99873619D01*
X130387904Y-99849809D01*
X130506952Y-99849809D01*
X128657428Y-99849809D02*
X128824095Y-100087904D01*
X128943142Y-99849809D02*
X128943142Y-100349809D01*
X128752666Y-100349809D01*
X128705047Y-100326000D01*
X128681238Y-100302190D01*
X128657428Y-100254571D01*
X128657428Y-100183142D01*
X128681238Y-100135523D01*
X128705047Y-100111714D01*
X128752666Y-100087904D01*
X128943142Y-100087904D01*
X128490761Y-100349809D02*
X128157428Y-99849809D01*
X128157428Y-100349809D02*
X128490761Y-99849809D01*
X127966952Y-99849809D02*
X127966952Y-100349809D01*
X127847904Y-100349809D01*
X127776476Y-100326000D01*
X127728857Y-100278380D01*
X127705047Y-100230761D01*
X127681238Y-100135523D01*
X127681238Y-100064095D01*
X127705047Y-99968857D01*
X127728857Y-99921238D01*
X127776476Y-99873619D01*
X127847904Y-99849809D01*
X127966952Y-99849809D01*
D12*
X147061464Y-99038228D02*
X147061464Y-99647828D01*
X146655064Y-99647828D02*
X146538950Y-99647828D01*
X146480892Y-99618800D01*
X146422835Y-99560742D01*
X146393807Y-99444628D01*
X146393807Y-99241428D01*
X146422835Y-99125314D01*
X146480892Y-99067257D01*
X146538950Y-99038228D01*
X146655064Y-99038228D01*
X146713121Y-99067257D01*
X146771178Y-99125314D01*
X146800207Y-99241428D01*
X146800207Y-99444628D01*
X146771178Y-99560742D01*
X146713121Y-99618800D01*
X146655064Y-99647828D01*
X145813235Y-99038228D02*
X146161578Y-99038228D01*
X145987407Y-99038228D02*
X145987407Y-99647828D01*
X146045464Y-99560742D01*
X146103521Y-99502685D01*
X146161578Y-99473657D01*
X145290721Y-99647828D02*
X145406835Y-99647828D01*
X145464892Y-99618800D01*
X145493921Y-99589771D01*
X145551978Y-99502685D01*
X145581007Y-99386571D01*
X145581007Y-99154342D01*
X145551978Y-99096285D01*
X145522950Y-99067257D01*
X145464892Y-99038228D01*
X145348778Y-99038228D01*
X145290721Y-99067257D01*
X145261692Y-99096285D01*
X145232664Y-99154342D01*
X145232664Y-99299485D01*
X145261692Y-99357542D01*
X145290721Y-99386571D01*
X145348778Y-99415600D01*
X145464892Y-99415600D01*
X145522950Y-99386571D01*
X145551978Y-99357542D01*
X145581007Y-99299485D01*
X144521464Y-99038228D02*
X144521464Y-99647828D01*
X144115064Y-99647828D02*
X143998950Y-99647828D01*
X143940892Y-99618800D01*
X143882835Y-99560742D01*
X143853807Y-99444628D01*
X143853807Y-99241428D01*
X143882835Y-99125314D01*
X143940892Y-99067257D01*
X143998950Y-99038228D01*
X144115064Y-99038228D01*
X144173121Y-99067257D01*
X144231178Y-99125314D01*
X144260207Y-99241428D01*
X144260207Y-99444628D01*
X144231178Y-99560742D01*
X144173121Y-99618800D01*
X144115064Y-99647828D01*
X143273235Y-99038228D02*
X143621578Y-99038228D01*
X143447407Y-99038228D02*
X143447407Y-99647828D01*
X143505464Y-99560742D01*
X143563521Y-99502685D01*
X143621578Y-99473657D01*
X143070035Y-99647828D02*
X142663635Y-99647828D01*
X142924892Y-99038228D01*
X141981464Y-99038228D02*
X141981464Y-99647828D01*
X141575064Y-99647828D02*
X141458950Y-99647828D01*
X141400892Y-99618800D01*
X141342835Y-99560742D01*
X141313807Y-99444628D01*
X141313807Y-99241428D01*
X141342835Y-99125314D01*
X141400892Y-99067257D01*
X141458950Y-99038228D01*
X141575064Y-99038228D01*
X141633121Y-99067257D01*
X141691178Y-99125314D01*
X141720207Y-99241428D01*
X141720207Y-99444628D01*
X141691178Y-99560742D01*
X141633121Y-99618800D01*
X141575064Y-99647828D01*
X140733235Y-99038228D02*
X141081578Y-99038228D01*
X140907407Y-99038228D02*
X140907407Y-99647828D01*
X140965464Y-99560742D01*
X141023521Y-99502685D01*
X141081578Y-99473657D01*
X140384892Y-99386571D02*
X140442950Y-99415600D01*
X140471978Y-99444628D01*
X140501007Y-99502685D01*
X140501007Y-99531714D01*
X140471978Y-99589771D01*
X140442950Y-99618800D01*
X140384892Y-99647828D01*
X140268778Y-99647828D01*
X140210721Y-99618800D01*
X140181692Y-99589771D01*
X140152664Y-99531714D01*
X140152664Y-99502685D01*
X140181692Y-99444628D01*
X140210721Y-99415600D01*
X140268778Y-99386571D01*
X140384892Y-99386571D01*
X140442950Y-99357542D01*
X140471978Y-99328514D01*
X140501007Y-99270457D01*
X140501007Y-99154342D01*
X140471978Y-99096285D01*
X140442950Y-99067257D01*
X140384892Y-99038228D01*
X140268778Y-99038228D01*
X140210721Y-99067257D01*
X140181692Y-99096285D01*
X140152664Y-99154342D01*
X140152664Y-99270457D01*
X140181692Y-99328514D01*
X140210721Y-99357542D01*
X140268778Y-99386571D01*
X138911692Y-99038228D02*
X139114892Y-99328514D01*
X139260035Y-99038228D02*
X139260035Y-99647828D01*
X139027807Y-99647828D01*
X138969750Y-99618800D01*
X138940721Y-99589771D01*
X138911692Y-99531714D01*
X138911692Y-99444628D01*
X138940721Y-99386571D01*
X138969750Y-99357542D01*
X139027807Y-99328514D01*
X139260035Y-99328514D01*
X138679464Y-99067257D02*
X138592378Y-99038228D01*
X138447235Y-99038228D01*
X138389178Y-99067257D01*
X138360150Y-99096285D01*
X138331121Y-99154342D01*
X138331121Y-99212400D01*
X138360150Y-99270457D01*
X138389178Y-99299485D01*
X138447235Y-99328514D01*
X138563350Y-99357542D01*
X138621407Y-99386571D01*
X138650435Y-99415600D01*
X138679464Y-99473657D01*
X138679464Y-99531714D01*
X138650435Y-99589771D01*
X138621407Y-99618800D01*
X138563350Y-99647828D01*
X138418207Y-99647828D01*
X138331121Y-99618800D01*
X138156950Y-99647828D02*
X137808607Y-99647828D01*
X137982778Y-99038228D02*
X137982778Y-99647828D01*
X136901464Y-99038228D02*
X136901464Y-99647828D01*
X136495064Y-99647828D02*
X136378950Y-99647828D01*
X136320892Y-99618800D01*
X136262835Y-99560742D01*
X136233807Y-99444628D01*
X136233807Y-99241428D01*
X136262835Y-99125314D01*
X136320892Y-99067257D01*
X136378950Y-99038228D01*
X136495064Y-99038228D01*
X136553121Y-99067257D01*
X136611178Y-99125314D01*
X136640207Y-99241428D01*
X136640207Y-99444628D01*
X136611178Y-99560742D01*
X136553121Y-99618800D01*
X136495064Y-99647828D01*
X136001578Y-99589771D02*
X135972550Y-99618800D01*
X135914492Y-99647828D01*
X135769350Y-99647828D01*
X135711292Y-99618800D01*
X135682264Y-99589771D01*
X135653235Y-99531714D01*
X135653235Y-99473657D01*
X135682264Y-99386571D01*
X136030607Y-99038228D01*
X135653235Y-99038228D01*
X135275864Y-99647828D02*
X135217807Y-99647828D01*
X135159750Y-99618800D01*
X135130721Y-99589771D01*
X135101692Y-99531714D01*
X135072664Y-99415600D01*
X135072664Y-99270457D01*
X135101692Y-99154342D01*
X135130721Y-99096285D01*
X135159750Y-99067257D01*
X135217807Y-99038228D01*
X135275864Y-99038228D01*
X135333921Y-99067257D01*
X135362950Y-99096285D01*
X135391978Y-99154342D01*
X135421007Y-99270457D01*
X135421007Y-99415600D01*
X135391978Y-99531714D01*
X135362950Y-99589771D01*
X135333921Y-99618800D01*
X135275864Y-99647828D01*
X134361464Y-99038228D02*
X134361464Y-99647828D01*
X133955064Y-99647828D02*
X133838950Y-99647828D01*
X133780892Y-99618800D01*
X133722835Y-99560742D01*
X133693807Y-99444628D01*
X133693807Y-99241428D01*
X133722835Y-99125314D01*
X133780892Y-99067257D01*
X133838950Y-99038228D01*
X133955064Y-99038228D01*
X134013121Y-99067257D01*
X134071178Y-99125314D01*
X134100207Y-99241428D01*
X134100207Y-99444628D01*
X134071178Y-99560742D01*
X134013121Y-99618800D01*
X133955064Y-99647828D01*
X133461578Y-99589771D02*
X133432550Y-99618800D01*
X133374492Y-99647828D01*
X133229350Y-99647828D01*
X133171292Y-99618800D01*
X133142264Y-99589771D01*
X133113235Y-99531714D01*
X133113235Y-99473657D01*
X133142264Y-99386571D01*
X133490607Y-99038228D01*
X133113235Y-99038228D01*
X132532664Y-99038228D02*
X132881007Y-99038228D01*
X132706835Y-99038228D02*
X132706835Y-99647828D01*
X132764892Y-99560742D01*
X132822950Y-99502685D01*
X132881007Y-99473657D01*
X131821464Y-99038228D02*
X131821464Y-99647828D01*
X131415064Y-99647828D02*
X131298950Y-99647828D01*
X131240892Y-99618800D01*
X131182835Y-99560742D01*
X131153807Y-99444628D01*
X131153807Y-99241428D01*
X131182835Y-99125314D01*
X131240892Y-99067257D01*
X131298950Y-99038228D01*
X131415064Y-99038228D01*
X131473121Y-99067257D01*
X131531178Y-99125314D01*
X131560207Y-99241428D01*
X131560207Y-99444628D01*
X131531178Y-99560742D01*
X131473121Y-99618800D01*
X131415064Y-99647828D01*
X130921578Y-99589771D02*
X130892550Y-99618800D01*
X130834492Y-99647828D01*
X130689350Y-99647828D01*
X130631292Y-99618800D01*
X130602264Y-99589771D01*
X130573235Y-99531714D01*
X130573235Y-99473657D01*
X130602264Y-99386571D01*
X130950607Y-99038228D01*
X130573235Y-99038228D01*
X130341007Y-99589771D02*
X130311978Y-99618800D01*
X130253921Y-99647828D01*
X130108778Y-99647828D01*
X130050721Y-99618800D01*
X130021692Y-99589771D01*
X129992664Y-99531714D01*
X129992664Y-99473657D01*
X130021692Y-99386571D01*
X130370035Y-99038228D01*
X129992664Y-99038228D01*
X129281464Y-99038228D02*
X129281464Y-99647828D01*
X128875064Y-99647828D02*
X128758950Y-99647828D01*
X128700892Y-99618800D01*
X128642835Y-99560742D01*
X128613807Y-99444628D01*
X128613807Y-99241428D01*
X128642835Y-99125314D01*
X128700892Y-99067257D01*
X128758950Y-99038228D01*
X128875064Y-99038228D01*
X128933121Y-99067257D01*
X128991178Y-99125314D01*
X129020207Y-99241428D01*
X129020207Y-99444628D01*
X128991178Y-99560742D01*
X128933121Y-99618800D01*
X128875064Y-99647828D01*
X128381578Y-99589771D02*
X128352550Y-99618800D01*
X128294492Y-99647828D01*
X128149350Y-99647828D01*
X128091292Y-99618800D01*
X128062264Y-99589771D01*
X128033235Y-99531714D01*
X128033235Y-99473657D01*
X128062264Y-99386571D01*
X128410607Y-99038228D01*
X128033235Y-99038228D01*
X127830035Y-99647828D02*
X127452664Y-99647828D01*
X127655864Y-99415600D01*
X127568778Y-99415600D01*
X127510721Y-99386571D01*
X127481692Y-99357542D01*
X127452664Y-99299485D01*
X127452664Y-99154342D01*
X127481692Y-99096285D01*
X127510721Y-99067257D01*
X127568778Y-99038228D01*
X127742950Y-99038228D01*
X127801007Y-99067257D01*
X127830035Y-99096285D01*
X126741464Y-99038228D02*
X126741464Y-99647828D01*
X126335064Y-99647828D02*
X126218950Y-99647828D01*
X126160892Y-99618800D01*
X126102835Y-99560742D01*
X126073807Y-99444628D01*
X126073807Y-99241428D01*
X126102835Y-99125314D01*
X126160892Y-99067257D01*
X126218950Y-99038228D01*
X126335064Y-99038228D01*
X126393121Y-99067257D01*
X126451178Y-99125314D01*
X126480207Y-99241428D01*
X126480207Y-99444628D01*
X126451178Y-99560742D01*
X126393121Y-99618800D01*
X126335064Y-99647828D01*
X125841578Y-99589771D02*
X125812550Y-99618800D01*
X125754492Y-99647828D01*
X125609350Y-99647828D01*
X125551292Y-99618800D01*
X125522264Y-99589771D01*
X125493235Y-99531714D01*
X125493235Y-99473657D01*
X125522264Y-99386571D01*
X125870607Y-99038228D01*
X125493235Y-99038228D01*
X124970721Y-99444628D02*
X124970721Y-99038228D01*
X125115864Y-99676857D02*
X125261007Y-99241428D01*
X124883635Y-99241428D01*
X124201464Y-99038228D02*
X124201464Y-99647828D01*
X123795064Y-99647828D02*
X123678950Y-99647828D01*
X123620892Y-99618800D01*
X123562835Y-99560742D01*
X123533807Y-99444628D01*
X123533807Y-99241428D01*
X123562835Y-99125314D01*
X123620892Y-99067257D01*
X123678950Y-99038228D01*
X123795064Y-99038228D01*
X123853121Y-99067257D01*
X123911178Y-99125314D01*
X123940207Y-99241428D01*
X123940207Y-99444628D01*
X123911178Y-99560742D01*
X123853121Y-99618800D01*
X123795064Y-99647828D01*
X123301578Y-99589771D02*
X123272550Y-99618800D01*
X123214492Y-99647828D01*
X123069350Y-99647828D01*
X123011292Y-99618800D01*
X122982264Y-99589771D01*
X122953235Y-99531714D01*
X122953235Y-99473657D01*
X122982264Y-99386571D01*
X123330607Y-99038228D01*
X122953235Y-99038228D01*
X122401692Y-99647828D02*
X122691978Y-99647828D01*
X122721007Y-99357542D01*
X122691978Y-99386571D01*
X122633921Y-99415600D01*
X122488778Y-99415600D01*
X122430721Y-99386571D01*
X122401692Y-99357542D01*
X122372664Y-99299485D01*
X122372664Y-99154342D01*
X122401692Y-99096285D01*
X122430721Y-99067257D01*
X122488778Y-99038228D01*
X122633921Y-99038228D01*
X122691978Y-99067257D01*
X122721007Y-99096285D01*
X121661464Y-99038228D02*
X121661464Y-99647828D01*
X121255064Y-99647828D02*
X121138950Y-99647828D01*
X121080892Y-99618800D01*
X121022835Y-99560742D01*
X120993807Y-99444628D01*
X120993807Y-99241428D01*
X121022835Y-99125314D01*
X121080892Y-99067257D01*
X121138950Y-99038228D01*
X121255064Y-99038228D01*
X121313121Y-99067257D01*
X121371178Y-99125314D01*
X121400207Y-99241428D01*
X121400207Y-99444628D01*
X121371178Y-99560742D01*
X121313121Y-99618800D01*
X121255064Y-99647828D01*
X120790607Y-99647828D02*
X120413235Y-99647828D01*
X120616435Y-99415600D01*
X120529350Y-99415600D01*
X120471292Y-99386571D01*
X120442264Y-99357542D01*
X120413235Y-99299485D01*
X120413235Y-99154342D01*
X120442264Y-99096285D01*
X120471292Y-99067257D01*
X120529350Y-99038228D01*
X120703521Y-99038228D01*
X120761578Y-99067257D01*
X120790607Y-99096285D01*
X119890721Y-99647828D02*
X120006835Y-99647828D01*
X120064892Y-99618800D01*
X120093921Y-99589771D01*
X120151978Y-99502685D01*
X120181007Y-99386571D01*
X120181007Y-99154342D01*
X120151978Y-99096285D01*
X120122950Y-99067257D01*
X120064892Y-99038228D01*
X119948778Y-99038228D01*
X119890721Y-99067257D01*
X119861692Y-99096285D01*
X119832664Y-99154342D01*
X119832664Y-99299485D01*
X119861692Y-99357542D01*
X119890721Y-99386571D01*
X119948778Y-99415600D01*
X120064892Y-99415600D01*
X120122950Y-99386571D01*
X120151978Y-99357542D01*
X120181007Y-99299485D01*
X118569921Y-99618800D02*
X118627978Y-99647828D01*
X118715064Y-99647828D01*
X118802150Y-99618800D01*
X118860207Y-99560742D01*
X118889235Y-99502685D01*
X118918264Y-99386571D01*
X118918264Y-99299485D01*
X118889235Y-99183371D01*
X118860207Y-99125314D01*
X118802150Y-99067257D01*
X118715064Y-99038228D01*
X118657007Y-99038228D01*
X118569921Y-99067257D01*
X118540892Y-99096285D01*
X118540892Y-99299485D01*
X118657007Y-99299485D01*
X118279635Y-99038228D02*
X118279635Y-99647828D01*
X117931292Y-99038228D01*
X117931292Y-99647828D01*
X117641007Y-99038228D02*
X117641007Y-99647828D01*
X117495864Y-99647828D01*
X117408778Y-99618800D01*
X117350721Y-99560742D01*
X117321692Y-99502685D01*
X117292664Y-99386571D01*
X117292664Y-99299485D01*
X117321692Y-99183371D01*
X117350721Y-99125314D01*
X117408778Y-99067257D01*
X117495864Y-99038228D01*
X117641007Y-99038228D01*
X116581464Y-99038228D02*
X116581464Y-99647828D01*
X116175064Y-99647828D02*
X116058950Y-99647828D01*
X116000892Y-99618800D01*
X115942835Y-99560742D01*
X115913807Y-99444628D01*
X115913807Y-99241428D01*
X115942835Y-99125314D01*
X116000892Y-99067257D01*
X116058950Y-99038228D01*
X116175064Y-99038228D01*
X116233121Y-99067257D01*
X116291178Y-99125314D01*
X116320207Y-99241428D01*
X116320207Y-99444628D01*
X116291178Y-99560742D01*
X116233121Y-99618800D01*
X116175064Y-99647828D01*
X115710607Y-99647828D02*
X115333235Y-99647828D01*
X115536435Y-99415600D01*
X115449350Y-99415600D01*
X115391292Y-99386571D01*
X115362264Y-99357542D01*
X115333235Y-99299485D01*
X115333235Y-99154342D01*
X115362264Y-99096285D01*
X115391292Y-99067257D01*
X115449350Y-99038228D01*
X115623521Y-99038228D01*
X115681578Y-99067257D01*
X115710607Y-99096285D01*
X114781692Y-99647828D02*
X115071978Y-99647828D01*
X115101007Y-99357542D01*
X115071978Y-99386571D01*
X115013921Y-99415600D01*
X114868778Y-99415600D01*
X114810721Y-99386571D01*
X114781692Y-99357542D01*
X114752664Y-99299485D01*
X114752664Y-99154342D01*
X114781692Y-99096285D01*
X114810721Y-99067257D01*
X114868778Y-99038228D01*
X115013921Y-99038228D01*
X115071978Y-99067257D01*
X115101007Y-99096285D01*
X114041464Y-99038228D02*
X114041464Y-99647828D01*
X113635064Y-99647828D02*
X113518950Y-99647828D01*
X113460892Y-99618800D01*
X113402835Y-99560742D01*
X113373807Y-99444628D01*
X113373807Y-99241428D01*
X113402835Y-99125314D01*
X113460892Y-99067257D01*
X113518950Y-99038228D01*
X113635064Y-99038228D01*
X113693121Y-99067257D01*
X113751178Y-99125314D01*
X113780207Y-99241428D01*
X113780207Y-99444628D01*
X113751178Y-99560742D01*
X113693121Y-99618800D01*
X113635064Y-99647828D01*
X113141578Y-99589771D02*
X113112550Y-99618800D01*
X113054492Y-99647828D01*
X112909350Y-99647828D01*
X112851292Y-99618800D01*
X112822264Y-99589771D01*
X112793235Y-99531714D01*
X112793235Y-99473657D01*
X112822264Y-99386571D01*
X113170607Y-99038228D01*
X112793235Y-99038228D01*
X112590035Y-99647828D02*
X112183635Y-99647828D01*
X112444892Y-99038228D01*
X111116835Y-99038228D02*
X111116835Y-99647828D01*
X110884607Y-99647828D02*
X110507235Y-99647828D01*
X110710435Y-99415600D01*
X110623350Y-99415600D01*
X110565292Y-99386571D01*
X110536264Y-99357542D01*
X110507235Y-99299485D01*
X110507235Y-99154342D01*
X110536264Y-99096285D01*
X110565292Y-99067257D01*
X110623350Y-99038228D01*
X110797521Y-99038228D01*
X110855578Y-99067257D01*
X110884607Y-99096285D01*
X109984721Y-99444628D02*
X109984721Y-99038228D01*
X110129864Y-99676857D02*
X110275007Y-99241428D01*
X109897635Y-99241428D01*
X109478535Y-113788371D02*
X109478535Y-113178771D01*
X109884935Y-113178771D02*
X110001050Y-113178771D01*
X110059107Y-113207800D01*
X110117164Y-113265857D01*
X110146192Y-113381971D01*
X110146192Y-113585171D01*
X110117164Y-113701285D01*
X110059107Y-113759342D01*
X110001050Y-113788371D01*
X109884935Y-113788371D01*
X109826878Y-113759342D01*
X109768821Y-113701285D01*
X109739792Y-113585171D01*
X109739792Y-113381971D01*
X109768821Y-113265857D01*
X109826878Y-113207800D01*
X109884935Y-113178771D01*
X110378421Y-113236828D02*
X110407450Y-113207800D01*
X110465507Y-113178771D01*
X110610650Y-113178771D01*
X110668707Y-113207800D01*
X110697735Y-113236828D01*
X110726764Y-113294885D01*
X110726764Y-113352942D01*
X110697735Y-113440028D01*
X110349392Y-113788371D01*
X110726764Y-113788371D01*
X111075107Y-113440028D02*
X111017050Y-113411000D01*
X110988021Y-113381971D01*
X110958992Y-113323914D01*
X110958992Y-113294885D01*
X110988021Y-113236828D01*
X111017050Y-113207800D01*
X111075107Y-113178771D01*
X111191221Y-113178771D01*
X111249278Y-113207800D01*
X111278307Y-113236828D01*
X111307335Y-113294885D01*
X111307335Y-113323914D01*
X111278307Y-113381971D01*
X111249278Y-113411000D01*
X111191221Y-113440028D01*
X111075107Y-113440028D01*
X111017050Y-113469057D01*
X110988021Y-113498085D01*
X110958992Y-113556142D01*
X110958992Y-113672257D01*
X110988021Y-113730314D01*
X111017050Y-113759342D01*
X111075107Y-113788371D01*
X111191221Y-113788371D01*
X111249278Y-113759342D01*
X111278307Y-113730314D01*
X111307335Y-113672257D01*
X111307335Y-113556142D01*
X111278307Y-113498085D01*
X111249278Y-113469057D01*
X111191221Y-113440028D01*
X112018535Y-113788371D02*
X112018535Y-113178771D01*
X112424935Y-113178771D02*
X112541050Y-113178771D01*
X112599107Y-113207800D01*
X112657164Y-113265857D01*
X112686192Y-113381971D01*
X112686192Y-113585171D01*
X112657164Y-113701285D01*
X112599107Y-113759342D01*
X112541050Y-113788371D01*
X112424935Y-113788371D01*
X112366878Y-113759342D01*
X112308821Y-113701285D01*
X112279792Y-113585171D01*
X112279792Y-113381971D01*
X112308821Y-113265857D01*
X112366878Y-113207800D01*
X112424935Y-113178771D01*
X112918421Y-113236828D02*
X112947450Y-113207800D01*
X113005507Y-113178771D01*
X113150650Y-113178771D01*
X113208707Y-113207800D01*
X113237735Y-113236828D01*
X113266764Y-113294885D01*
X113266764Y-113352942D01*
X113237735Y-113440028D01*
X112889392Y-113788371D01*
X113266764Y-113788371D01*
X113557050Y-113788371D02*
X113673164Y-113788371D01*
X113731221Y-113759342D01*
X113760250Y-113730314D01*
X113818307Y-113643228D01*
X113847335Y-113527114D01*
X113847335Y-113294885D01*
X113818307Y-113236828D01*
X113789278Y-113207800D01*
X113731221Y-113178771D01*
X113615107Y-113178771D01*
X113557050Y-113207800D01*
X113528021Y-113236828D01*
X113498992Y-113294885D01*
X113498992Y-113440028D01*
X113528021Y-113498085D01*
X113557050Y-113527114D01*
X113615107Y-113556142D01*
X113731221Y-113556142D01*
X113789278Y-113527114D01*
X113818307Y-113498085D01*
X113847335Y-113440028D01*
X114558535Y-113788371D02*
X114558535Y-113178771D01*
X114964935Y-113178771D02*
X115081050Y-113178771D01*
X115139107Y-113207800D01*
X115197164Y-113265857D01*
X115226192Y-113381971D01*
X115226192Y-113585171D01*
X115197164Y-113701285D01*
X115139107Y-113759342D01*
X115081050Y-113788371D01*
X114964935Y-113788371D01*
X114906878Y-113759342D01*
X114848821Y-113701285D01*
X114819792Y-113585171D01*
X114819792Y-113381971D01*
X114848821Y-113265857D01*
X114906878Y-113207800D01*
X114964935Y-113178771D01*
X115429392Y-113178771D02*
X115806764Y-113178771D01*
X115603564Y-113411000D01*
X115690650Y-113411000D01*
X115748707Y-113440028D01*
X115777735Y-113469057D01*
X115806764Y-113527114D01*
X115806764Y-113672257D01*
X115777735Y-113730314D01*
X115748707Y-113759342D01*
X115690650Y-113788371D01*
X115516478Y-113788371D01*
X115458421Y-113759342D01*
X115429392Y-113730314D01*
X116038992Y-113236828D02*
X116068021Y-113207800D01*
X116126078Y-113178771D01*
X116271221Y-113178771D01*
X116329278Y-113207800D01*
X116358307Y-113236828D01*
X116387335Y-113294885D01*
X116387335Y-113352942D01*
X116358307Y-113440028D01*
X116009964Y-113788371D01*
X116387335Y-113788371D01*
X117650078Y-113207800D02*
X117592021Y-113178771D01*
X117504935Y-113178771D01*
X117417850Y-113207800D01*
X117359792Y-113265857D01*
X117330764Y-113323914D01*
X117301735Y-113440028D01*
X117301735Y-113527114D01*
X117330764Y-113643228D01*
X117359792Y-113701285D01*
X117417850Y-113759342D01*
X117504935Y-113788371D01*
X117562992Y-113788371D01*
X117650078Y-113759342D01*
X117679107Y-113730314D01*
X117679107Y-113527114D01*
X117562992Y-113527114D01*
X117940364Y-113788371D02*
X117940364Y-113178771D01*
X118288707Y-113788371D01*
X118288707Y-113178771D01*
X118578992Y-113788371D02*
X118578992Y-113178771D01*
X118724135Y-113178771D01*
X118811221Y-113207800D01*
X118869278Y-113265857D01*
X118898307Y-113323914D01*
X118927335Y-113440028D01*
X118927335Y-113527114D01*
X118898307Y-113643228D01*
X118869278Y-113701285D01*
X118811221Y-113759342D01*
X118724135Y-113788371D01*
X118578992Y-113788371D01*
X119638535Y-113788371D02*
X119638535Y-113178771D01*
X120044935Y-113178771D02*
X120161050Y-113178771D01*
X120219107Y-113207800D01*
X120277164Y-113265857D01*
X120306192Y-113381971D01*
X120306192Y-113585171D01*
X120277164Y-113701285D01*
X120219107Y-113759342D01*
X120161050Y-113788371D01*
X120044935Y-113788371D01*
X119986878Y-113759342D01*
X119928821Y-113701285D01*
X119899792Y-113585171D01*
X119899792Y-113381971D01*
X119928821Y-113265857D01*
X119986878Y-113207800D01*
X120044935Y-113178771D01*
X120509392Y-113178771D02*
X120886764Y-113178771D01*
X120683564Y-113411000D01*
X120770650Y-113411000D01*
X120828707Y-113440028D01*
X120857735Y-113469057D01*
X120886764Y-113527114D01*
X120886764Y-113672257D01*
X120857735Y-113730314D01*
X120828707Y-113759342D01*
X120770650Y-113788371D01*
X120596478Y-113788371D01*
X120538421Y-113759342D01*
X120509392Y-113730314D01*
X121467335Y-113788371D02*
X121118992Y-113788371D01*
X121293164Y-113788371D02*
X121293164Y-113178771D01*
X121235107Y-113265857D01*
X121177050Y-113323914D01*
X121118992Y-113352942D01*
X122505107Y-113788371D02*
X122505107Y-113178771D01*
X122911507Y-113178771D02*
X123027621Y-113178771D01*
X123085678Y-113207800D01*
X123143735Y-113265857D01*
X123172764Y-113381971D01*
X123172764Y-113585171D01*
X123143735Y-113701285D01*
X123085678Y-113759342D01*
X123027621Y-113788371D01*
X122911507Y-113788371D01*
X122853450Y-113759342D01*
X122795392Y-113701285D01*
X122766364Y-113585171D01*
X122766364Y-113381971D01*
X122795392Y-113265857D01*
X122853450Y-113207800D01*
X122911507Y-113178771D01*
X123753335Y-113788371D02*
X123404992Y-113788371D01*
X123579164Y-113788371D02*
X123579164Y-113178771D01*
X123521107Y-113265857D01*
X123463050Y-113323914D01*
X123404992Y-113352942D01*
X125429735Y-113788371D02*
X125429735Y-113178771D01*
X125690992Y-113236828D02*
X125720021Y-113207800D01*
X125778078Y-113178771D01*
X125923221Y-113178771D01*
X125981278Y-113207800D01*
X126010307Y-113236828D01*
X126039335Y-113294885D01*
X126039335Y-113352942D01*
X126010307Y-113440028D01*
X125661964Y-113788371D01*
X126039335Y-113788371D01*
X127969735Y-113788371D02*
X127969735Y-113178771D01*
X128201964Y-113178771D02*
X128579335Y-113178771D01*
X128376135Y-113411000D01*
X128463221Y-113411000D01*
X128521278Y-113440028D01*
X128550307Y-113469057D01*
X128579335Y-113527114D01*
X128579335Y-113672257D01*
X128550307Y-113730314D01*
X128521278Y-113759342D01*
X128463221Y-113788371D01*
X128289050Y-113788371D01*
X128230992Y-113759342D01*
X128201964Y-113730314D01*
X130509735Y-113788371D02*
X130509735Y-113178771D01*
X131061278Y-113381971D02*
X131061278Y-113788371D01*
X130916135Y-113149742D02*
X130770992Y-113585171D01*
X131148364Y-113585171D01*
X132665107Y-113788371D02*
X132665107Y-113178771D01*
X133071507Y-113178771D02*
X133187621Y-113178771D01*
X133245678Y-113207800D01*
X133303735Y-113265857D01*
X133332764Y-113381971D01*
X133332764Y-113585171D01*
X133303735Y-113701285D01*
X133245678Y-113759342D01*
X133187621Y-113788371D01*
X133071507Y-113788371D01*
X133013450Y-113759342D01*
X132955392Y-113701285D01*
X132926364Y-113585171D01*
X132926364Y-113381971D01*
X132955392Y-113265857D01*
X133013450Y-113207800D01*
X133071507Y-113178771D01*
X133884307Y-113178771D02*
X133594021Y-113178771D01*
X133564992Y-113469057D01*
X133594021Y-113440028D01*
X133652078Y-113411000D01*
X133797221Y-113411000D01*
X133855278Y-113440028D01*
X133884307Y-113469057D01*
X133913335Y-113527114D01*
X133913335Y-113672257D01*
X133884307Y-113730314D01*
X133855278Y-113759342D01*
X133797221Y-113788371D01*
X133652078Y-113788371D01*
X133594021Y-113759342D01*
X133564992Y-113730314D01*
X137745107Y-113788371D02*
X137745107Y-113178771D01*
X138151507Y-113178771D02*
X138267621Y-113178771D01*
X138325678Y-113207800D01*
X138383735Y-113265857D01*
X138412764Y-113381971D01*
X138412764Y-113585171D01*
X138383735Y-113701285D01*
X138325678Y-113759342D01*
X138267621Y-113788371D01*
X138151507Y-113788371D01*
X138093450Y-113759342D01*
X138035392Y-113701285D01*
X138006364Y-113585171D01*
X138006364Y-113381971D01*
X138035392Y-113265857D01*
X138093450Y-113207800D01*
X138151507Y-113178771D01*
X138615964Y-113178771D02*
X139022364Y-113178771D01*
X138761107Y-113788371D01*
X135430078Y-113207800D02*
X135372021Y-113178771D01*
X135284935Y-113178771D01*
X135197850Y-113207800D01*
X135139792Y-113265857D01*
X135110764Y-113323914D01*
X135081735Y-113440028D01*
X135081735Y-113527114D01*
X135110764Y-113643228D01*
X135139792Y-113701285D01*
X135197850Y-113759342D01*
X135284935Y-113788371D01*
X135342992Y-113788371D01*
X135430078Y-113759342D01*
X135459107Y-113730314D01*
X135459107Y-113527114D01*
X135342992Y-113527114D01*
X135720364Y-113788371D02*
X135720364Y-113178771D01*
X136068707Y-113788371D01*
X136068707Y-113178771D01*
X136358992Y-113788371D02*
X136358992Y-113178771D01*
X136504135Y-113178771D01*
X136591221Y-113207800D01*
X136649278Y-113265857D01*
X136678307Y-113323914D01*
X136707335Y-113440028D01*
X136707335Y-113527114D01*
X136678307Y-113643228D01*
X136649278Y-113701285D01*
X136591221Y-113759342D01*
X136504135Y-113788371D01*
X136358992Y-113788371D01*
X140285107Y-113788371D02*
X140285107Y-113178771D01*
X140691507Y-113178771D02*
X140807621Y-113178771D01*
X140865678Y-113207800D01*
X140923735Y-113265857D01*
X140952764Y-113381971D01*
X140952764Y-113585171D01*
X140923735Y-113701285D01*
X140865678Y-113759342D01*
X140807621Y-113788371D01*
X140691507Y-113788371D01*
X140633450Y-113759342D01*
X140575392Y-113701285D01*
X140546364Y-113585171D01*
X140546364Y-113381971D01*
X140575392Y-113265857D01*
X140633450Y-113207800D01*
X140691507Y-113178771D01*
X141301107Y-113440028D02*
X141243050Y-113411000D01*
X141214021Y-113381971D01*
X141184992Y-113323914D01*
X141184992Y-113294885D01*
X141214021Y-113236828D01*
X141243050Y-113207800D01*
X141301107Y-113178771D01*
X141417221Y-113178771D01*
X141475278Y-113207800D01*
X141504307Y-113236828D01*
X141533335Y-113294885D01*
X141533335Y-113323914D01*
X141504307Y-113381971D01*
X141475278Y-113411000D01*
X141417221Y-113440028D01*
X141301107Y-113440028D01*
X141243050Y-113469057D01*
X141214021Y-113498085D01*
X141184992Y-113556142D01*
X141184992Y-113672257D01*
X141214021Y-113730314D01*
X141243050Y-113759342D01*
X141301107Y-113788371D01*
X141417221Y-113788371D01*
X141475278Y-113759342D01*
X141504307Y-113730314D01*
X141533335Y-113672257D01*
X141533335Y-113556142D01*
X141504307Y-113498085D01*
X141475278Y-113469057D01*
X141417221Y-113440028D01*
X147540863Y-114851631D02*
X147807705Y-114584789D01*
X147828231Y-114892683D01*
X147889810Y-114831105D01*
X147951389Y-114810578D01*
X147992442Y-114810578D01*
X148054021Y-114831105D01*
X148156652Y-114933736D01*
X148177179Y-114995315D01*
X148177179Y-115036368D01*
X148156652Y-115097946D01*
X148033494Y-115221104D01*
X147971916Y-115241631D01*
X147930863Y-115241631D01*
X147930863Y-114461631D02*
X148505599Y-114748999D01*
X148218231Y-114174263D01*
X148320863Y-114071631D02*
X148587705Y-113804790D01*
X148608231Y-114112684D01*
X148669810Y-114051105D01*
X148731389Y-114030579D01*
X148772441Y-114030579D01*
X148834020Y-114051105D01*
X148936652Y-114153737D01*
X148957178Y-114215316D01*
X148957178Y-114256368D01*
X148936652Y-114317947D01*
X148813494Y-114441105D01*
X148751915Y-114461631D01*
X148710862Y-114461631D01*
X142668171Y-113675885D02*
X143277771Y-113472685D01*
X142668171Y-113269485D01*
X143335828Y-113211428D02*
X143335828Y-112746971D01*
X143277771Y-112601828D02*
X142668171Y-112601828D01*
X142668171Y-112195428D02*
X142668171Y-112079314D01*
X142697200Y-112021257D01*
X142755257Y-111963200D01*
X142871371Y-111934171D01*
X143074571Y-111934171D01*
X143190685Y-111963200D01*
X143248742Y-112021257D01*
X143277771Y-112079314D01*
X143277771Y-112195428D01*
X143248742Y-112253485D01*
X143190685Y-112311542D01*
X143074571Y-112340571D01*
X142871371Y-112340571D01*
X142755257Y-112311542D01*
X142697200Y-112253485D01*
X142668171Y-112195428D01*
X146761200Y-113178771D02*
X146964400Y-113788371D01*
X147167600Y-113178771D01*
X147719142Y-113730314D02*
X147690114Y-113759342D01*
X147603028Y-113788371D01*
X147544971Y-113788371D01*
X147457885Y-113759342D01*
X147399828Y-113701285D01*
X147370800Y-113643228D01*
X147341771Y-113527114D01*
X147341771Y-113440028D01*
X147370800Y-113323914D01*
X147399828Y-113265857D01*
X147457885Y-113207800D01*
X147544971Y-113178771D01*
X147603028Y-113178771D01*
X147690114Y-113207800D01*
X147719142Y-113236828D01*
X148328742Y-113730314D02*
X148299714Y-113759342D01*
X148212628Y-113788371D01*
X148154571Y-113788371D01*
X148067485Y-113759342D01*
X148009428Y-113701285D01*
X147980400Y-113643228D01*
X147951371Y-113527114D01*
X147951371Y-113440028D01*
X147980400Y-113323914D01*
X148009428Y-113265857D01*
X148067485Y-113207800D01*
X148154571Y-113178771D01*
X148212628Y-113178771D01*
X148299714Y-113207800D01*
X148328742Y-113236828D01*
X127817880Y-103632000D02*
X126331980Y-103632000D01*
X129115820Y-103632000D02*
X128018540Y-104129840D01*
X129918460Y-103632000D02*
X129115820Y-103632000D01*
D13*
X126619000Y-102882700D02*
X126619000Y-104381300D01*
X129616200Y-102882700D02*
X129616200Y-104381300D01*
X126619000Y-102882700D02*
X129616200Y-102882700D01*
X129616200Y-104381300D02*
X126619000Y-104381300D01*
X131117340Y-100832000D02*
X131117340Y-102532000D01*
X125369320Y-100584480D02*
X130865880Y-100584480D01*
X130865880Y-106679520D02*
X125369320Y-106679520D01*
X125117340Y-100832000D02*
X125117340Y-102532000D01*
X131117340Y-104732000D02*
X131117340Y-106432000D01*
X125117340Y-104732000D02*
X125117340Y-106432000D01*
X130865880Y-106682060D02*
G75*
G03*
X131117340Y-106430600I0J251460D01*
G01*
X125120400Y-106430600D02*
G75*
G03*
X125369320Y-106679520I248920J0D01*
G01*
X125369320Y-100581940D02*
G75*
G03*
X125117860Y-100833400I0J-251460D01*
G01*
X131114800Y-100833400D02*
G75*
G03*
X130865880Y-100584480I-248920J0D01*
G01*
D12*
X114853720Y-108966000D02*
X116337088Y-108966000D01*
X113555780Y-108966000D02*
X114653060Y-108468160D01*
X112781076Y-108966000D02*
X113555780Y-108966000D01*
D13*
X116052600Y-109715300D02*
X116052600Y-108216700D01*
X113055400Y-109715300D02*
X113055400Y-108216700D01*
X116052600Y-109715300D02*
X113055400Y-109715300D01*
X113055400Y-108216700D02*
X116052600Y-108216700D01*
X111554260Y-111766000D02*
X111554260Y-110066000D01*
X117302280Y-112013520D02*
X111805720Y-112013520D01*
X111805720Y-105918480D02*
X117302280Y-105918480D01*
X117554260Y-111766000D02*
X117554260Y-110066000D01*
X111554260Y-107866000D02*
X111554260Y-106166000D01*
X117554260Y-107866000D02*
X117554260Y-106166000D01*
X111805720Y-105915940D02*
G75*
G03*
X111554260Y-106167400I0J-251460D01*
G01*
X117551200Y-106167400D02*
G75*
G03*
X117302280Y-105918480I-248920J0D01*
G01*
X117302280Y-112016060D02*
G75*
G03*
X117553740Y-111764600I0J251460D01*
G01*
X111556800Y-111764600D02*
G75*
G03*
X111805720Y-112013520I248920J0D01*
G01*
D12*
X108585000Y-106807000D02*
X108585000Y-108567695D01*
X107950000Y-109056378D02*
X107950000Y-114046000D01*
X105156000Y-98806000D02*
X107950000Y-98806000D01*
X105156000Y-114046000D02*
X105156000Y-98806000D01*
X107950000Y-114046000D02*
X105156000Y-114046000D01*
X107950000Y-98806000D02*
X107950000Y-106377736D01*
D14*
X107962700Y-106375200D02*
X108574840Y-106809540D01*
X108572300Y-108564680D02*
X107960160Y-109062520D01*
D11*
X135640000Y-104092000D02*
X135640000Y-102092000D01*
X133600000Y-102092000D02*
X133600000Y-104092000D01*
X135640000Y-110728000D02*
X135640000Y-108728000D01*
X133600000Y-108728000D02*
X133600000Y-110728000D01*
X113586000Y-102620000D02*
X115586000Y-102620000D01*
X115586000Y-100580000D02*
X113586000Y-100580000D01*
X127048000Y-112526000D02*
X129048000Y-112526000D01*
X129048000Y-110486000D02*
X127048000Y-110486000D01*
X122362000Y-106882000D02*
X122362000Y-111582000D01*
X120462000Y-106882000D02*
X120462000Y-111582000D01*
X122362000Y-106882000D02*
X120462000Y-106882000D01*
X120342000Y-104156000D02*
X120342000Y-102156000D01*
X122482000Y-102156000D02*
X122482000Y-104156000D01*
X115586000Y-105464000D02*
X113586000Y-105464000D01*
X113586000Y-103324000D02*
X115586000Y-103324000D01*
X129048000Y-109782000D02*
X127048000Y-109782000D01*
X127048000Y-107642000D02*
X129048000Y-107642000D01*
D15*
X137537000Y-111830000D02*
X137537000Y-111830000D01*
X137337000Y-111830000D02*
X137337000Y-111830000D01*
D10*
X136637000Y-111430000D02*
X136637000Y-101430000D01*
X150637000Y-111430000D02*
X136637000Y-111430000D01*
X150637000Y-101430000D02*
X150637000Y-111430000D01*
X136637000Y-101430000D02*
X150637000Y-101430000D01*
X147337000Y-101430000D02*
X147337000Y-111430000D01*
D15*
X137537000Y-111830000D02*
G75*
G03*
X137337000Y-111830000I-100000J0D01*
G01*
X137337000Y-111830000D02*
G75*
G03*
X137537000Y-111830000I100000J0D01*
G01*
D16*
G36*
X148734780Y-98663760D02*
G01*
X148417280Y-98663760D01*
X148358860Y-99021900D01*
X148318220Y-99021900D01*
X148308060Y-99032060D01*
X148287740Y-99032060D01*
X148277580Y-99042220D01*
X148257260Y-99052380D01*
X148239480Y-99052380D01*
X148229320Y-99062540D01*
X148209000Y-99062540D01*
X148198840Y-99072700D01*
X148178520Y-99082860D01*
X148168360Y-99093020D01*
X148148040Y-99093020D01*
X148137880Y-99103180D01*
X148117560Y-99113340D01*
X148107400Y-99123500D01*
X147817840Y-98912680D01*
X147599400Y-99143820D01*
X147797520Y-99433380D01*
X147787360Y-99443540D01*
X147779740Y-99463860D01*
X147779740Y-99474020D01*
X147769580Y-99491800D01*
X147759420Y-99501960D01*
X147749260Y-99522280D01*
X147749260Y-99532440D01*
X147739100Y-99552760D01*
X147728940Y-99562920D01*
X147728940Y-99583240D01*
X147718780Y-99603560D01*
X147718780Y-99613720D01*
X147708620Y-99634040D01*
X147708620Y-99641660D01*
X147698460Y-99661980D01*
X147698460Y-99682300D01*
X147347940Y-99743260D01*
X147347940Y-100060760D01*
X147698460Y-100119180D01*
X147698460Y-100129340D01*
X147708620Y-100149660D01*
X147708620Y-100169980D01*
X147718780Y-100180140D01*
X147718780Y-100200460D01*
X147728940Y-100220780D01*
X147728940Y-100230940D01*
X147739100Y-100251260D01*
X147749260Y-100261420D01*
X147749260Y-100279200D01*
X147759420Y-100289360D01*
X147769580Y-100309680D01*
X147779740Y-100319840D01*
X147779740Y-100340160D01*
X147787360Y-100350320D01*
X147797520Y-100370640D01*
X147599400Y-100660200D01*
X147817840Y-100881180D01*
X148107400Y-100680520D01*
X148117560Y-100690680D01*
X148137880Y-100690680D01*
X148148040Y-100700840D01*
X148168360Y-100711000D01*
X148178520Y-100721160D01*
X148198840Y-100721160D01*
X148209000Y-100731320D01*
X148229320Y-100741480D01*
X148239480Y-100741480D01*
X148277580Y-100759260D01*
X148287740Y-100759260D01*
X148308060Y-100769420D01*
X148318220Y-100769420D01*
X148338540Y-100779580D01*
X148358860Y-100779580D01*
X148417280Y-101130100D01*
X148734780Y-101130100D01*
X148795740Y-100779580D01*
X148805900Y-100779580D01*
X148826220Y-100769420D01*
X148846540Y-100769420D01*
X148856700Y-100759260D01*
X148877020Y-100759260D01*
X148887180Y-100749100D01*
X148904960Y-100741480D01*
X148925280Y-100741480D01*
X148935440Y-100731320D01*
X148955760Y-100731320D01*
X148965920Y-100721160D01*
X148986240Y-100711000D01*
X148996400Y-100700840D01*
X149016720Y-100690680D01*
X149026880Y-100690680D01*
X149047200Y-100680520D01*
X149326600Y-100881180D01*
X149555200Y-100660200D01*
X149357080Y-100370640D01*
X149357080Y-100360480D01*
X149364700Y-100350320D01*
X149364700Y-100340160D01*
X149374860Y-100330000D01*
X149374860Y-100319840D01*
X149385020Y-100309680D01*
X149385020Y-100299520D01*
X149395180Y-100289360D01*
X149395180Y-100279200D01*
X149405340Y-100271580D01*
X149405340Y-100261420D01*
X149415500Y-100251260D01*
X149415500Y-100230940D01*
X149425660Y-100220780D01*
X148887180Y-100020120D01*
X148877020Y-100050600D01*
X148856700Y-100091240D01*
X148836380Y-100111560D01*
X148826220Y-100129340D01*
X148805900Y-100149660D01*
X148785580Y-100159820D01*
X148765260Y-100180140D01*
X148727160Y-100200460D01*
X148696680Y-100210620D01*
X148656040Y-100230940D01*
X148625560Y-100230940D01*
X148595080Y-100241100D01*
X148539200Y-100241100D01*
X148417280Y-100200460D01*
X148358860Y-100159820D01*
X148338540Y-100139500D01*
X148318220Y-100111560D01*
X148297900Y-100091240D01*
X148277580Y-100060760D01*
X148267420Y-100030280D01*
X148249640Y-99999800D01*
X148249640Y-99969320D01*
X148239480Y-99931220D01*
X148239480Y-99862640D01*
X148249640Y-99832160D01*
X148249640Y-99801680D01*
X148267420Y-99773740D01*
X148277580Y-99743260D01*
X148318220Y-99682300D01*
X148358860Y-99641660D01*
X148417280Y-99603560D01*
X148447760Y-99593400D01*
X148478240Y-99573080D01*
X148508720Y-99573080D01*
X148539200Y-99562920D01*
X148625560Y-99562920D01*
X148656040Y-99573080D01*
X148676360Y-99573080D01*
X148696680Y-99583240D01*
X148727160Y-99593400D01*
X148744940Y-99603560D01*
X148765260Y-99623880D01*
X148785580Y-99634040D01*
X148826220Y-99672140D01*
X148836380Y-99692460D01*
X148856700Y-99712780D01*
X148887180Y-99773740D01*
X149425660Y-99573080D01*
X149415500Y-99573080D01*
X149415500Y-99552760D01*
X149405340Y-99542600D01*
X149405340Y-99532440D01*
X149395180Y-99522280D01*
X149395180Y-99512120D01*
X149385020Y-99501960D01*
X149385020Y-99481640D01*
X149374860Y-99474020D01*
X149374860Y-99463860D01*
X149357080Y-99443540D01*
X149357080Y-99433380D01*
X149555200Y-99143820D01*
X149326600Y-98912680D01*
X149047200Y-99123500D01*
X149026880Y-99113340D01*
X149016720Y-99103180D01*
X148996400Y-99093020D01*
X148986240Y-99093020D01*
X148965920Y-99082860D01*
X148955760Y-99072700D01*
X148935440Y-99062540D01*
X148925280Y-99062540D01*
X148887180Y-99042220D01*
X148877020Y-99042220D01*
X148856700Y-99032060D01*
X148846540Y-99032060D01*
X148826220Y-99021900D01*
X148805900Y-99021900D01*
X148795740Y-99011740D01*
X148734780Y-98663760D01*
G37*
X148734780Y-98663760D02*
X148417280Y-98663760D01*
X148358860Y-99021900D01*
X148318220Y-99021900D01*
X148308060Y-99032060D01*
X148287740Y-99032060D01*
X148277580Y-99042220D01*
X148257260Y-99052380D01*
X148239480Y-99052380D01*
X148229320Y-99062540D01*
X148209000Y-99062540D01*
X148198840Y-99072700D01*
X148178520Y-99082860D01*
X148168360Y-99093020D01*
X148148040Y-99093020D01*
X148137880Y-99103180D01*
X148117560Y-99113340D01*
X148107400Y-99123500D01*
X147817840Y-98912680D01*
X147599400Y-99143820D01*
X147797520Y-99433380D01*
X147787360Y-99443540D01*
X147779740Y-99463860D01*
X147779740Y-99474020D01*
X147769580Y-99491800D01*
X147759420Y-99501960D01*
X147749260Y-99522280D01*
X147749260Y-99532440D01*
X147739100Y-99552760D01*
X147728940Y-99562920D01*
X147728940Y-99583240D01*
X147718780Y-99603560D01*
X147718780Y-99613720D01*
X147708620Y-99634040D01*
X147708620Y-99641660D01*
X147698460Y-99661980D01*
X147698460Y-99682300D01*
X147347940Y-99743260D01*
X147347940Y-100060760D01*
X147698460Y-100119180D01*
X147698460Y-100129340D01*
X147708620Y-100149660D01*
X147708620Y-100169980D01*
X147718780Y-100180140D01*
X147718780Y-100200460D01*
X147728940Y-100220780D01*
X147728940Y-100230940D01*
X147739100Y-100251260D01*
X147749260Y-100261420D01*
X147749260Y-100279200D01*
X147759420Y-100289360D01*
X147769580Y-100309680D01*
X147779740Y-100319840D01*
X147779740Y-100340160D01*
X147787360Y-100350320D01*
X147797520Y-100370640D01*
X147599400Y-100660200D01*
X147817840Y-100881180D01*
X148107400Y-100680520D01*
X148117560Y-100690680D01*
X148137880Y-100690680D01*
X148148040Y-100700840D01*
X148168360Y-100711000D01*
X148178520Y-100721160D01*
X148198840Y-100721160D01*
X148209000Y-100731320D01*
X148229320Y-100741480D01*
X148239480Y-100741480D01*
X148277580Y-100759260D01*
X148287740Y-100759260D01*
X148308060Y-100769420D01*
X148318220Y-100769420D01*
X148338540Y-100779580D01*
X148358860Y-100779580D01*
X148417280Y-101130100D01*
X148734780Y-101130100D01*
X148795740Y-100779580D01*
X148805900Y-100779580D01*
X148826220Y-100769420D01*
X148846540Y-100769420D01*
X148856700Y-100759260D01*
X148877020Y-100759260D01*
X148887180Y-100749100D01*
X148904960Y-100741480D01*
X148925280Y-100741480D01*
X148935440Y-100731320D01*
X148955760Y-100731320D01*
X148965920Y-100721160D01*
X148986240Y-100711000D01*
X148996400Y-100700840D01*
X149016720Y-100690680D01*
X149026880Y-100690680D01*
X149047200Y-100680520D01*
X149326600Y-100881180D01*
X149555200Y-100660200D01*
X149357080Y-100370640D01*
X149357080Y-100360480D01*
X149364700Y-100350320D01*
X149364700Y-100340160D01*
X149374860Y-100330000D01*
X149374860Y-100319840D01*
X149385020Y-100309680D01*
X149385020Y-100299520D01*
X149395180Y-100289360D01*
X149395180Y-100279200D01*
X149405340Y-100271580D01*
X149405340Y-100261420D01*
X149415500Y-100251260D01*
X149415500Y-100230940D01*
X149425660Y-100220780D01*
X148887180Y-100020120D01*
X148877020Y-100050600D01*
X148856700Y-100091240D01*
X148836380Y-100111560D01*
X148826220Y-100129340D01*
X148805900Y-100149660D01*
X148785580Y-100159820D01*
X148765260Y-100180140D01*
X148727160Y-100200460D01*
X148696680Y-100210620D01*
X148656040Y-100230940D01*
X148625560Y-100230940D01*
X148595080Y-100241100D01*
X148539200Y-100241100D01*
X148417280Y-100200460D01*
X148358860Y-100159820D01*
X148338540Y-100139500D01*
X148318220Y-100111560D01*
X148297900Y-100091240D01*
X148277580Y-100060760D01*
X148267420Y-100030280D01*
X148249640Y-99999800D01*
X148249640Y-99969320D01*
X148239480Y-99931220D01*
X148239480Y-99862640D01*
X148249640Y-99832160D01*
X148249640Y-99801680D01*
X148267420Y-99773740D01*
X148277580Y-99743260D01*
X148318220Y-99682300D01*
X148358860Y-99641660D01*
X148417280Y-99603560D01*
X148447760Y-99593400D01*
X148478240Y-99573080D01*
X148508720Y-99573080D01*
X148539200Y-99562920D01*
X148625560Y-99562920D01*
X148656040Y-99573080D01*
X148676360Y-99573080D01*
X148696680Y-99583240D01*
X148727160Y-99593400D01*
X148744940Y-99603560D01*
X148765260Y-99623880D01*
X148785580Y-99634040D01*
X148826220Y-99672140D01*
X148836380Y-99692460D01*
X148856700Y-99712780D01*
X148887180Y-99773740D01*
X149425660Y-99573080D01*
X149415500Y-99573080D01*
X149415500Y-99552760D01*
X149405340Y-99542600D01*
X149405340Y-99532440D01*
X149395180Y-99522280D01*
X149395180Y-99512120D01*
X149385020Y-99501960D01*
X149385020Y-99481640D01*
X149374860Y-99474020D01*
X149374860Y-99463860D01*
X149357080Y-99443540D01*
X149357080Y-99433380D01*
X149555200Y-99143820D01*
X149326600Y-98912680D01*
X149047200Y-99123500D01*
X149026880Y-99113340D01*
X149016720Y-99103180D01*
X148996400Y-99093020D01*
X148986240Y-99093020D01*
X148965920Y-99082860D01*
X148955760Y-99072700D01*
X148935440Y-99062540D01*
X148925280Y-99062540D01*
X148887180Y-99042220D01*
X148877020Y-99042220D01*
X148856700Y-99032060D01*
X148846540Y-99032060D01*
X148826220Y-99021900D01*
X148805900Y-99021900D01*
X148795740Y-99011740D01*
X148734780Y-98663760D01*
D17*
X144272000Y-111747300D02*
X145796000Y-111747300D01*
X143814800Y-113322100D02*
X143814800Y-112204500D01*
X146253200Y-113322100D02*
X146253200Y-112204500D01*
X145796000Y-113779300D02*
X144272000Y-113779300D01*
X146253200Y-112204500D02*
G75*
G03*
X145796000Y-111747300I-457200J0D01*
G01*
X144272000Y-111747300D02*
G75*
G03*
X143814800Y-112204500I0J-457200D01*
G01*
X143814800Y-113322100D02*
G75*
G03*
X144272000Y-113779300I457200J0D01*
G01*
X145796000Y-113779300D02*
G75*
G03*
X146253200Y-113322100I0J457200D01*
G01*
D13*
X144780000Y-98171000D02*
X145415000Y-98806000D01*
X146685000Y-98806000D02*
X145415000Y-98806000D01*
X147320000Y-98171000D02*
X146685000Y-98806000D01*
X147320000Y-96901000D02*
X147320000Y-98171000D01*
X146685000Y-96266000D02*
X147320000Y-96901000D01*
X145415000Y-96266000D02*
X146685000Y-96266000D01*
X145415000Y-96266000D02*
X144780000Y-96901000D01*
X128905000Y-98806000D02*
X127635000Y-98806000D01*
X127000000Y-98171000D02*
X127635000Y-98806000D01*
X127635000Y-96266000D02*
X127000000Y-96901000D01*
X130175000Y-98806000D02*
X129540000Y-98171000D01*
X131445000Y-98806000D02*
X130175000Y-98806000D01*
X132080000Y-98171000D02*
X131445000Y-98806000D01*
X131445000Y-96266000D02*
X132080000Y-96901000D01*
X130175000Y-96266000D02*
X131445000Y-96266000D01*
X129540000Y-96901000D02*
X130175000Y-96266000D01*
X129540000Y-98171000D02*
X128905000Y-98806000D01*
X128905000Y-96266000D02*
X129540000Y-96901000D01*
X127635000Y-96266000D02*
X128905000Y-96266000D01*
X136525000Y-98806000D02*
X135255000Y-98806000D01*
X134620000Y-98171000D02*
X135255000Y-98806000D01*
X135255000Y-96266000D02*
X134620000Y-96901000D01*
X132715000Y-98806000D02*
X132080000Y-98171000D01*
X133985000Y-98806000D02*
X132715000Y-98806000D01*
X134620000Y-98171000D02*
X133985000Y-98806000D01*
X133985000Y-96266000D02*
X134620000Y-96901000D01*
X132715000Y-96266000D02*
X133985000Y-96266000D01*
X132080000Y-96901000D02*
X132715000Y-96266000D01*
X137795000Y-98806000D02*
X137160000Y-98171000D01*
X139065000Y-98806000D02*
X137795000Y-98806000D01*
X139700000Y-98171000D02*
X139065000Y-98806000D01*
X139065000Y-96266000D02*
X139700000Y-96901000D01*
X137795000Y-96266000D02*
X139065000Y-96266000D01*
X137160000Y-96901000D02*
X137795000Y-96266000D01*
X137160000Y-98171000D02*
X136525000Y-98806000D01*
X136525000Y-96266000D02*
X137160000Y-96901000D01*
X135255000Y-96266000D02*
X136525000Y-96266000D01*
X144145000Y-98806000D02*
X142875000Y-98806000D01*
X142240000Y-98171000D02*
X142875000Y-98806000D01*
X142875000Y-96266000D02*
X142240000Y-96901000D01*
X140335000Y-98806000D02*
X139700000Y-98171000D01*
X141605000Y-98806000D02*
X140335000Y-98806000D01*
X142240000Y-98171000D02*
X141605000Y-98806000D01*
X141605000Y-96266000D02*
X142240000Y-96901000D01*
X140335000Y-96266000D02*
X141605000Y-96266000D01*
X139700000Y-96901000D02*
X140335000Y-96266000D01*
X144780000Y-98171000D02*
X144145000Y-98806000D01*
X144145000Y-96266000D02*
X144780000Y-96901000D01*
X142875000Y-96266000D02*
X144145000Y-96266000D01*
X111125000Y-98806000D02*
X109855000Y-98806000D01*
X109220000Y-98171000D02*
X109855000Y-98806000D01*
X109855000Y-96266000D02*
X109220000Y-96901000D01*
X109220000Y-96901000D02*
X109220000Y-98171000D01*
X112395000Y-98806000D02*
X111760000Y-98171000D01*
X113665000Y-98806000D02*
X112395000Y-98806000D01*
X114300000Y-98171000D02*
X113665000Y-98806000D01*
X113665000Y-96266000D02*
X114300000Y-96901000D01*
X112395000Y-96266000D02*
X113665000Y-96266000D01*
X111760000Y-96901000D02*
X112395000Y-96266000D01*
X111760000Y-98171000D02*
X111125000Y-98806000D01*
X111125000Y-96266000D02*
X111760000Y-96901000D01*
X109855000Y-96266000D02*
X111125000Y-96266000D01*
X118745000Y-98806000D02*
X117475000Y-98806000D01*
X116840000Y-98171000D02*
X117475000Y-98806000D01*
X117475000Y-96266000D02*
X116840000Y-96901000D01*
X114935000Y-98806000D02*
X114300000Y-98171000D01*
X116205000Y-98806000D02*
X114935000Y-98806000D01*
X116840000Y-98171000D02*
X116205000Y-98806000D01*
X116205000Y-96266000D02*
X116840000Y-96901000D01*
X114935000Y-96266000D02*
X116205000Y-96266000D01*
X114300000Y-96901000D02*
X114935000Y-96266000D01*
X120015000Y-98806000D02*
X119380000Y-98171000D01*
X121285000Y-98806000D02*
X120015000Y-98806000D01*
X121920000Y-98171000D02*
X121285000Y-98806000D01*
X121285000Y-96266000D02*
X121920000Y-96901000D01*
X120015000Y-96266000D02*
X121285000Y-96266000D01*
X119380000Y-96901000D02*
X120015000Y-96266000D01*
X119380000Y-98171000D02*
X118745000Y-98806000D01*
X118745000Y-96266000D02*
X119380000Y-96901000D01*
X117475000Y-96266000D02*
X118745000Y-96266000D01*
X126365000Y-98806000D02*
X125095000Y-98806000D01*
X124460000Y-98171000D02*
X125095000Y-98806000D01*
X125095000Y-96266000D02*
X124460000Y-96901000D01*
X122555000Y-98806000D02*
X121920000Y-98171000D01*
X123825000Y-98806000D02*
X122555000Y-98806000D01*
X124460000Y-98171000D02*
X123825000Y-98806000D01*
X123825000Y-96266000D02*
X124460000Y-96901000D01*
X122555000Y-96266000D02*
X123825000Y-96266000D01*
X121920000Y-96901000D02*
X122555000Y-96266000D01*
X127000000Y-98171000D02*
X126365000Y-98806000D01*
X126365000Y-96266000D02*
X127000000Y-96901000D01*
X125095000Y-96266000D02*
X126365000Y-96266000D01*
X144780000Y-115951000D02*
X145415000Y-116586000D01*
X146685000Y-116586000D02*
X145415000Y-116586000D01*
X147320000Y-115951000D02*
X146685000Y-116586000D01*
X147320000Y-114681000D02*
X147320000Y-115951000D01*
X146685000Y-114046000D02*
X147320000Y-114681000D01*
X145415000Y-114046000D02*
X146685000Y-114046000D01*
X145415000Y-114046000D02*
X144780000Y-114681000D01*
X128905000Y-116586000D02*
X127635000Y-116586000D01*
X127000000Y-115951000D02*
X127635000Y-116586000D01*
X127635000Y-114046000D02*
X127000000Y-114681000D01*
X130175000Y-116586000D02*
X129540000Y-115951000D01*
X131445000Y-116586000D02*
X130175000Y-116586000D01*
X132080000Y-115951000D02*
X131445000Y-116586000D01*
X131445000Y-114046000D02*
X132080000Y-114681000D01*
X130175000Y-114046000D02*
X131445000Y-114046000D01*
X129540000Y-114681000D02*
X130175000Y-114046000D01*
X129540000Y-115951000D02*
X128905000Y-116586000D01*
X128905000Y-114046000D02*
X129540000Y-114681000D01*
X127635000Y-114046000D02*
X128905000Y-114046000D01*
X136525000Y-116586000D02*
X135255000Y-116586000D01*
X134620000Y-115951000D02*
X135255000Y-116586000D01*
X135255000Y-114046000D02*
X134620000Y-114681000D01*
X132715000Y-116586000D02*
X132080000Y-115951000D01*
X133985000Y-116586000D02*
X132715000Y-116586000D01*
X134620000Y-115951000D02*
X133985000Y-116586000D01*
X133985000Y-114046000D02*
X134620000Y-114681000D01*
X132715000Y-114046000D02*
X133985000Y-114046000D01*
X132080000Y-114681000D02*
X132715000Y-114046000D01*
X137795000Y-116586000D02*
X137160000Y-115951000D01*
X139065000Y-116586000D02*
X137795000Y-116586000D01*
X139700000Y-115951000D02*
X139065000Y-116586000D01*
X139065000Y-114046000D02*
X139700000Y-114681000D01*
X137795000Y-114046000D02*
X139065000Y-114046000D01*
X137160000Y-114681000D02*
X137795000Y-114046000D01*
X137160000Y-115951000D02*
X136525000Y-116586000D01*
X136525000Y-114046000D02*
X137160000Y-114681000D01*
X135255000Y-114046000D02*
X136525000Y-114046000D01*
X144145000Y-116586000D02*
X142875000Y-116586000D01*
X142240000Y-115951000D02*
X142875000Y-116586000D01*
X142875000Y-114046000D02*
X142240000Y-114681000D01*
X140335000Y-116586000D02*
X139700000Y-115951000D01*
X141605000Y-116586000D02*
X140335000Y-116586000D01*
X142240000Y-115951000D02*
X141605000Y-116586000D01*
X141605000Y-114046000D02*
X142240000Y-114681000D01*
X140335000Y-114046000D02*
X141605000Y-114046000D01*
X139700000Y-114681000D02*
X140335000Y-114046000D01*
X144780000Y-115951000D02*
X144145000Y-116586000D01*
X144145000Y-114046000D02*
X144780000Y-114681000D01*
X142875000Y-114046000D02*
X144145000Y-114046000D01*
X111125000Y-116586000D02*
X109855000Y-116586000D01*
X109220000Y-115951000D02*
X109855000Y-116586000D01*
X109855000Y-114046000D02*
X109220000Y-114681000D01*
X109220000Y-114681000D02*
X109220000Y-115951000D01*
X112395000Y-116586000D02*
X111760000Y-115951000D01*
X113665000Y-116586000D02*
X112395000Y-116586000D01*
X114300000Y-115951000D02*
X113665000Y-116586000D01*
X113665000Y-114046000D02*
X114300000Y-114681000D01*
X112395000Y-114046000D02*
X113665000Y-114046000D01*
X111760000Y-114681000D02*
X112395000Y-114046000D01*
X111760000Y-115951000D02*
X111125000Y-116586000D01*
X111125000Y-114046000D02*
X111760000Y-114681000D01*
X109855000Y-114046000D02*
X111125000Y-114046000D01*
X118745000Y-116586000D02*
X117475000Y-116586000D01*
X116840000Y-115951000D02*
X117475000Y-116586000D01*
X117475000Y-114046000D02*
X116840000Y-114681000D01*
X114935000Y-116586000D02*
X114300000Y-115951000D01*
X116205000Y-116586000D02*
X114935000Y-116586000D01*
X116840000Y-115951000D02*
X116205000Y-116586000D01*
X116205000Y-114046000D02*
X116840000Y-114681000D01*
X114935000Y-114046000D02*
X116205000Y-114046000D01*
X114300000Y-114681000D02*
X114935000Y-114046000D01*
X120015000Y-116586000D02*
X119380000Y-115951000D01*
X121285000Y-116586000D02*
X120015000Y-116586000D01*
X121920000Y-115951000D02*
X121285000Y-116586000D01*
X121285000Y-114046000D02*
X121920000Y-114681000D01*
X120015000Y-114046000D02*
X121285000Y-114046000D01*
X119380000Y-114681000D02*
X120015000Y-114046000D01*
X119380000Y-115951000D02*
X118745000Y-116586000D01*
X118745000Y-114046000D02*
X119380000Y-114681000D01*
X117475000Y-114046000D02*
X118745000Y-114046000D01*
X126365000Y-116586000D02*
X125095000Y-116586000D01*
X124460000Y-115951000D02*
X125095000Y-116586000D01*
X125095000Y-114046000D02*
X124460000Y-114681000D01*
X122555000Y-116586000D02*
X121920000Y-115951000D01*
X123825000Y-116586000D02*
X122555000Y-116586000D01*
X124460000Y-115951000D02*
X123825000Y-116586000D01*
X123825000Y-114046000D02*
X124460000Y-114681000D01*
X122555000Y-114046000D02*
X123825000Y-114046000D01*
X121920000Y-114681000D02*
X122555000Y-114046000D01*
X127000000Y-115951000D02*
X126365000Y-116586000D01*
X126365000Y-114046000D02*
X127000000Y-114681000D01*
X125095000Y-114046000D02*
X126365000Y-114046000D01*
D12*
X127241300Y-105339242D02*
X127328385Y-105368271D01*
X127473528Y-105368271D01*
X127531585Y-105339242D01*
X127560614Y-105310214D01*
X127589642Y-105252157D01*
X127589642Y-105194100D01*
X127560614Y-105136042D01*
X127531585Y-105107014D01*
X127473528Y-105077985D01*
X127357414Y-105048957D01*
X127299357Y-105019928D01*
X127270328Y-104990900D01*
X127241300Y-104932842D01*
X127241300Y-104874785D01*
X127270328Y-104816728D01*
X127299357Y-104787700D01*
X127357414Y-104758671D01*
X127502557Y-104758671D01*
X127589642Y-104787700D01*
X127792842Y-104758671D02*
X127937985Y-105368271D01*
X128054100Y-104932842D01*
X128170214Y-105368271D01*
X128315357Y-104758671D01*
X128518557Y-104816728D02*
X128547585Y-104787700D01*
X128605642Y-104758671D01*
X128750785Y-104758671D01*
X128808842Y-104787700D01*
X128837871Y-104816728D01*
X128866900Y-104874785D01*
X128866900Y-104932842D01*
X128837871Y-105019928D01*
X128489528Y-105368271D01*
X128866900Y-105368271D01*
X132355771Y-107057371D02*
X132065485Y-107260571D01*
X132355771Y-107405714D02*
X131746171Y-107405714D01*
X131746171Y-107173485D01*
X131775200Y-107115428D01*
X131804228Y-107086400D01*
X131862285Y-107057371D01*
X131949371Y-107057371D01*
X132007428Y-107086400D01*
X132036457Y-107115428D01*
X132065485Y-107173485D01*
X132065485Y-107405714D01*
X132036457Y-106796114D02*
X132036457Y-106592914D01*
X132355771Y-106505828D02*
X132355771Y-106796114D01*
X131746171Y-106796114D01*
X131746171Y-106505828D01*
X132326742Y-106273600D02*
X132355771Y-106186514D01*
X132355771Y-106041371D01*
X132326742Y-105983314D01*
X132297714Y-105954285D01*
X132239657Y-105925257D01*
X132181600Y-105925257D01*
X132123542Y-105954285D01*
X132094514Y-105983314D01*
X132065485Y-106041371D01*
X132036457Y-106157485D01*
X132007428Y-106215542D01*
X131978400Y-106244571D01*
X131920342Y-106273600D01*
X131862285Y-106273600D01*
X131804228Y-106244571D01*
X131775200Y-106215542D01*
X131746171Y-106157485D01*
X131746171Y-106012342D01*
X131775200Y-105925257D01*
X132036457Y-105664000D02*
X132036457Y-105460800D01*
X132355771Y-105373714D02*
X132355771Y-105664000D01*
X131746171Y-105664000D01*
X131746171Y-105373714D01*
X131746171Y-105199542D02*
X131746171Y-104851200D01*
X132355771Y-105025371D02*
X131746171Y-105025371D01*
X113868200Y-110736742D02*
X113955285Y-110765771D01*
X114100428Y-110765771D01*
X114158485Y-110736742D01*
X114187514Y-110707714D01*
X114216542Y-110649657D01*
X114216542Y-110591600D01*
X114187514Y-110533542D01*
X114158485Y-110504514D01*
X114100428Y-110475485D01*
X113984314Y-110446457D01*
X113926257Y-110417428D01*
X113897228Y-110388400D01*
X113868200Y-110330342D01*
X113868200Y-110272285D01*
X113897228Y-110214228D01*
X113926257Y-110185200D01*
X113984314Y-110156171D01*
X114129457Y-110156171D01*
X114216542Y-110185200D01*
X114419742Y-110156171D02*
X114564885Y-110765771D01*
X114681000Y-110330342D01*
X114797114Y-110765771D01*
X114942257Y-110156171D01*
X115493800Y-110765771D02*
X115145457Y-110765771D01*
X115319628Y-110765771D02*
X115319628Y-110156171D01*
X115261571Y-110243257D01*
X115203514Y-110301314D01*
X115145457Y-110330342D01*
X118320457Y-112079314D02*
X118349485Y-111992228D01*
X118378514Y-111963200D01*
X118436571Y-111934171D01*
X118523657Y-111934171D01*
X118581714Y-111963200D01*
X118610742Y-111992228D01*
X118639771Y-112050285D01*
X118639771Y-112282514D01*
X118030171Y-112282514D01*
X118030171Y-112079314D01*
X118059200Y-112021257D01*
X118088228Y-111992228D01*
X118146285Y-111963200D01*
X118204342Y-111963200D01*
X118262400Y-111992228D01*
X118291428Y-112021257D01*
X118320457Y-112079314D01*
X118320457Y-112282514D01*
X118030171Y-111556800D02*
X118030171Y-111440685D01*
X118059200Y-111382628D01*
X118117257Y-111324571D01*
X118233371Y-111295542D01*
X118436571Y-111295542D01*
X118552685Y-111324571D01*
X118610742Y-111382628D01*
X118639771Y-111440685D01*
X118639771Y-111556800D01*
X118610742Y-111614857D01*
X118552685Y-111672914D01*
X118436571Y-111701942D01*
X118233371Y-111701942D01*
X118117257Y-111672914D01*
X118059200Y-111614857D01*
X118030171Y-111556800D01*
X118030171Y-110918171D02*
X118030171Y-110802057D01*
X118059200Y-110744000D01*
X118117257Y-110685942D01*
X118233371Y-110656914D01*
X118436571Y-110656914D01*
X118552685Y-110685942D01*
X118610742Y-110744000D01*
X118639771Y-110802057D01*
X118639771Y-110918171D01*
X118610742Y-110976228D01*
X118552685Y-111034285D01*
X118436571Y-111063314D01*
X118233371Y-111063314D01*
X118117257Y-111034285D01*
X118059200Y-110976228D01*
X118030171Y-110918171D01*
X118030171Y-110482742D02*
X118030171Y-110134400D01*
X118639771Y-110308571D02*
X118030171Y-110308571D01*
D10*
X107566666Y-108529333D02*
X107566666Y-108096000D01*
X107833333Y-108329333D01*
X107833333Y-108229333D01*
X107866666Y-108162666D01*
X107900000Y-108129333D01*
X107966666Y-108096000D01*
X108133333Y-108096000D01*
X108200000Y-108129333D01*
X108233333Y-108162666D01*
X108266666Y-108229333D01*
X108266666Y-108429333D01*
X108233333Y-108496000D01*
X108200000Y-108529333D01*
X107800000Y-107862666D02*
X108266666Y-107696000D01*
X107800000Y-107529333D01*
X107566666Y-107329333D02*
X107566666Y-106896000D01*
X107833333Y-107129333D01*
X107833333Y-107029333D01*
X107866666Y-106962666D01*
X107900000Y-106929333D01*
X107966666Y-106896000D01*
X108133333Y-106896000D01*
X108200000Y-106929333D01*
X108233333Y-106962666D01*
X108266666Y-107029333D01*
X108266666Y-107229333D01*
X108233333Y-107296000D01*
X108200000Y-107329333D01*
D13*
X105966380Y-97282000D02*
X105845428Y-97221523D01*
X105664000Y-97221523D01*
X105482571Y-97282000D01*
X105361619Y-97402952D01*
X105301142Y-97523904D01*
X105240666Y-97765809D01*
X105240666Y-97947238D01*
X105301142Y-98189142D01*
X105361619Y-98310095D01*
X105482571Y-98431047D01*
X105664000Y-98491523D01*
X105784952Y-98491523D01*
X105966380Y-98431047D01*
X106026857Y-98370571D01*
X106026857Y-97947238D01*
X105784952Y-97947238D01*
X107296857Y-98491523D02*
X106873523Y-97886761D01*
X106571142Y-98491523D02*
X106571142Y-97221523D01*
X107054952Y-97221523D01*
X107175904Y-97282000D01*
X107236380Y-97342476D01*
X107296857Y-97463428D01*
X107296857Y-97644857D01*
X107236380Y-97765809D01*
X107175904Y-97826285D01*
X107054952Y-97886761D01*
X106571142Y-97886761D01*
X107841142Y-98491523D02*
X107841142Y-97221523D01*
X108566857Y-98491523D01*
X108566857Y-97221523D01*
X105621666Y-114971285D02*
X105803095Y-115031761D01*
X105863571Y-115092238D01*
X105924047Y-115213190D01*
X105924047Y-115394619D01*
X105863571Y-115515571D01*
X105803095Y-115576047D01*
X105682142Y-115636523D01*
X105198333Y-115636523D01*
X105198333Y-114366523D01*
X105621666Y-114366523D01*
X105742619Y-114427000D01*
X105803095Y-114487476D01*
X105863571Y-114608428D01*
X105863571Y-114729380D01*
X105803095Y-114850333D01*
X105742619Y-114910809D01*
X105621666Y-114971285D01*
X105198333Y-114971285D01*
X107073095Y-115636523D02*
X106468333Y-115636523D01*
X106468333Y-114366523D01*
X107496428Y-115636523D02*
X107496428Y-114366523D01*
X108222142Y-115636523D02*
X107677857Y-114910809D01*
X108222142Y-114366523D02*
X107496428Y-115092238D01*
D12*
X108139895Y-103661028D02*
X108139895Y-103196571D01*
X108952695Y-103428800D02*
X108139895Y-103428800D01*
X108139895Y-103003047D02*
X108952695Y-102461180D01*
X108139895Y-102461180D02*
X108952695Y-103003047D01*
X108139895Y-101996723D02*
X108139895Y-101841904D01*
X108178600Y-101764495D01*
X108256009Y-101687085D01*
X108410828Y-101648380D01*
X108681761Y-101648380D01*
X108836580Y-101687085D01*
X108913990Y-101764495D01*
X108952695Y-101841904D01*
X108952695Y-101996723D01*
X108913990Y-102074133D01*
X108836580Y-102151542D01*
X108681761Y-102190247D01*
X108410828Y-102190247D01*
X108256009Y-102151542D01*
X108178600Y-102074133D01*
X108139895Y-101996723D01*
X108952695Y-105484990D02*
X108565647Y-105755923D01*
X108952695Y-105949447D02*
X108139895Y-105949447D01*
X108139895Y-105639809D01*
X108178600Y-105562400D01*
X108217304Y-105523695D01*
X108294714Y-105484990D01*
X108410828Y-105484990D01*
X108488238Y-105523695D01*
X108526942Y-105562400D01*
X108565647Y-105639809D01*
X108565647Y-105949447D01*
X108139895Y-105214057D02*
X108952695Y-104672190D01*
X108139895Y-104672190D02*
X108952695Y-105214057D01*
X108952695Y-104362552D02*
X108139895Y-104362552D01*
X108800295Y-108779733D02*
X109613095Y-108508800D01*
X108800295Y-108237866D01*
X109535685Y-107502476D02*
X109574390Y-107541180D01*
X109613095Y-107657295D01*
X109613095Y-107734704D01*
X109574390Y-107850819D01*
X109496980Y-107928228D01*
X109419571Y-107966933D01*
X109264752Y-108005638D01*
X109148638Y-108005638D01*
X108993819Y-107966933D01*
X108916409Y-107928228D01*
X108839000Y-107850819D01*
X108800295Y-107734704D01*
X108800295Y-107657295D01*
X108839000Y-107541180D01*
X108877704Y-107502476D01*
X109535685Y-106689676D02*
X109574390Y-106728380D01*
X109613095Y-106844495D01*
X109613095Y-106921904D01*
X109574390Y-107038019D01*
X109496980Y-107115428D01*
X109419571Y-107154133D01*
X109264752Y-107192838D01*
X109148638Y-107192838D01*
X108993819Y-107154133D01*
X108916409Y-107115428D01*
X108839000Y-107038019D01*
X108800295Y-106921904D01*
X108800295Y-106844495D01*
X108839000Y-106728380D01*
X108877704Y-106689676D01*
X108952695Y-101004914D02*
X108139895Y-101004914D01*
X108139895Y-100811390D01*
X108178600Y-100695276D01*
X108256009Y-100617866D01*
X108333419Y-100579161D01*
X108488238Y-100540457D01*
X108604352Y-100540457D01*
X108759171Y-100579161D01*
X108836580Y-100617866D01*
X108913990Y-100695276D01*
X108952695Y-100811390D01*
X108952695Y-101004914D01*
X108139895Y-100308228D02*
X108139895Y-99843771D01*
X108952695Y-100076000D02*
X108139895Y-100076000D01*
X108952695Y-99108380D02*
X108565647Y-99379314D01*
X108952695Y-99572838D02*
X108139895Y-99572838D01*
X108139895Y-99263200D01*
X108178600Y-99185790D01*
X108217304Y-99147085D01*
X108294714Y-99108380D01*
X108410828Y-99108380D01*
X108488238Y-99147085D01*
X108526942Y-99185790D01*
X108565647Y-99263200D01*
X108565647Y-99572838D01*
X108178600Y-113395276D02*
X108139895Y-113472685D01*
X108139895Y-113588800D01*
X108178600Y-113704914D01*
X108256009Y-113782323D01*
X108333419Y-113821028D01*
X108488238Y-113859733D01*
X108604352Y-113859733D01*
X108759171Y-113821028D01*
X108836580Y-113782323D01*
X108913990Y-113704914D01*
X108952695Y-113588800D01*
X108952695Y-113511390D01*
X108913990Y-113395276D01*
X108875285Y-113356571D01*
X108604352Y-113356571D01*
X108604352Y-113511390D01*
X108952695Y-113008228D02*
X108139895Y-113008228D01*
X108952695Y-112543771D01*
X108139895Y-112543771D01*
X108952695Y-112156723D02*
X108139895Y-112156723D01*
X108139895Y-111963200D01*
X108178600Y-111847085D01*
X108256009Y-111769676D01*
X108333419Y-111730971D01*
X108488238Y-111692266D01*
X108604352Y-111692266D01*
X108759171Y-111730971D01*
X108836580Y-111769676D01*
X108913990Y-111847085D01*
X108952695Y-111963200D01*
X108952695Y-112156723D01*
X108875285Y-110681104D02*
X108913990Y-110719809D01*
X108952695Y-110835923D01*
X108952695Y-110913333D01*
X108913990Y-111029447D01*
X108836580Y-111106857D01*
X108759171Y-111145561D01*
X108604352Y-111184266D01*
X108488238Y-111184266D01*
X108333419Y-111145561D01*
X108256009Y-111106857D01*
X108178600Y-111029447D01*
X108139895Y-110913333D01*
X108139895Y-110835923D01*
X108178600Y-110719809D01*
X108217304Y-110681104D01*
X108139895Y-110448876D02*
X108139895Y-109984419D01*
X108952695Y-110216647D02*
X108139895Y-110216647D01*
X108913990Y-109752190D02*
X108952695Y-109636076D01*
X108952695Y-109442552D01*
X108913990Y-109365142D01*
X108875285Y-109326438D01*
X108797876Y-109287733D01*
X108720466Y-109287733D01*
X108643057Y-109326438D01*
X108604352Y-109365142D01*
X108565647Y-109442552D01*
X108526942Y-109597371D01*
X108488238Y-109674780D01*
X108449533Y-109713485D01*
X108372123Y-109752190D01*
X108294714Y-109752190D01*
X108217304Y-109713485D01*
X108178600Y-109674780D01*
X108139895Y-109597371D01*
X108139895Y-109403847D01*
X108178600Y-109287733D01*
D14*
X134977142Y-103258666D02*
X135024761Y-103306285D01*
X135072380Y-103449142D01*
X135072380Y-103544380D01*
X135024761Y-103687238D01*
X134929523Y-103782476D01*
X134834285Y-103830095D01*
X134643809Y-103877714D01*
X134500952Y-103877714D01*
X134310476Y-103830095D01*
X134215238Y-103782476D01*
X134120000Y-103687238D01*
X134072380Y-103544380D01*
X134072380Y-103449142D01*
X134120000Y-103306285D01*
X134167619Y-103258666D01*
X135072380Y-102306285D02*
X135072380Y-102877714D01*
X135072380Y-102592000D02*
X134072380Y-102592000D01*
X134215238Y-102687238D01*
X134310476Y-102782476D01*
X134358095Y-102877714D01*
X134977142Y-109926666D02*
X135024761Y-109974285D01*
X135072380Y-110117142D01*
X135072380Y-110212380D01*
X135024761Y-110355238D01*
X134929523Y-110450476D01*
X134834285Y-110498095D01*
X134643809Y-110545714D01*
X134500952Y-110545714D01*
X134310476Y-110498095D01*
X134215238Y-110450476D01*
X134120000Y-110355238D01*
X134072380Y-110212380D01*
X134072380Y-110117142D01*
X134120000Y-109974285D01*
X134167619Y-109926666D01*
X134167619Y-109545714D02*
X134120000Y-109498095D01*
X134072380Y-109402857D01*
X134072380Y-109164761D01*
X134120000Y-109069523D01*
X134167619Y-109021904D01*
X134262857Y-108974285D01*
X134358095Y-108974285D01*
X134500952Y-109021904D01*
X135072380Y-109593333D01*
X135072380Y-108974285D01*
X114419333Y-101957142D02*
X114371714Y-102004761D01*
X114228857Y-102052380D01*
X114133619Y-102052380D01*
X113990761Y-102004761D01*
X113895523Y-101909523D01*
X113847904Y-101814285D01*
X113800285Y-101623809D01*
X113800285Y-101480952D01*
X113847904Y-101290476D01*
X113895523Y-101195238D01*
X113990761Y-101100000D01*
X114133619Y-101052380D01*
X114228857Y-101052380D01*
X114371714Y-101100000D01*
X114419333Y-101147619D01*
X114752666Y-101052380D02*
X115371714Y-101052380D01*
X115038380Y-101433333D01*
X115181238Y-101433333D01*
X115276476Y-101480952D01*
X115324095Y-101528571D01*
X115371714Y-101623809D01*
X115371714Y-101861904D01*
X115324095Y-101957142D01*
X115276476Y-102004761D01*
X115181238Y-102052380D01*
X114895523Y-102052380D01*
X114800285Y-102004761D01*
X114752666Y-101957142D01*
X127849333Y-111863142D02*
X127801714Y-111910761D01*
X127658857Y-111958380D01*
X127563619Y-111958380D01*
X127420761Y-111910761D01*
X127325523Y-111815523D01*
X127277904Y-111720285D01*
X127230285Y-111529809D01*
X127230285Y-111386952D01*
X127277904Y-111196476D01*
X127325523Y-111101238D01*
X127420761Y-111006000D01*
X127563619Y-110958380D01*
X127658857Y-110958380D01*
X127801714Y-111006000D01*
X127849333Y-111053619D01*
X128706476Y-111291714D02*
X128706476Y-111958380D01*
X128468380Y-110910761D02*
X128230285Y-111625047D01*
X128849333Y-111625047D01*
X121927880Y-110720095D02*
X120927880Y-110720095D01*
X120927880Y-110482000D01*
X120975500Y-110339142D01*
X121070738Y-110243904D01*
X121165976Y-110196285D01*
X121356452Y-110148666D01*
X121499309Y-110148666D01*
X121689785Y-110196285D01*
X121785023Y-110243904D01*
X121880261Y-110339142D01*
X121927880Y-110482000D01*
X121927880Y-110720095D01*
X121927880Y-109196285D02*
X121927880Y-109767714D01*
X121927880Y-109482000D02*
X120927880Y-109482000D01*
X121070738Y-109577238D01*
X121165976Y-109672476D01*
X121213595Y-109767714D01*
X121927880Y-103322666D02*
X121451690Y-103656000D01*
X121927880Y-103894095D02*
X120927880Y-103894095D01*
X120927880Y-103513142D01*
X120975500Y-103417904D01*
X121023119Y-103370285D01*
X121118357Y-103322666D01*
X121261214Y-103322666D01*
X121356452Y-103370285D01*
X121404071Y-103417904D01*
X121451690Y-103513142D01*
X121451690Y-103894095D01*
X121927880Y-102370285D02*
X121927880Y-102941714D01*
X121927880Y-102656000D02*
X120927880Y-102656000D01*
X121070738Y-102751238D01*
X121165976Y-102846476D01*
X121213595Y-102941714D01*
X114419333Y-104846380D02*
X114086000Y-104370190D01*
X113847904Y-104846380D02*
X113847904Y-103846380D01*
X114228857Y-103846380D01*
X114324095Y-103894000D01*
X114371714Y-103941619D01*
X114419333Y-104036857D01*
X114419333Y-104179714D01*
X114371714Y-104274952D01*
X114324095Y-104322571D01*
X114228857Y-104370190D01*
X113847904Y-104370190D01*
X114800285Y-103941619D02*
X114847904Y-103894000D01*
X114943142Y-103846380D01*
X115181238Y-103846380D01*
X115276476Y-103894000D01*
X115324095Y-103941619D01*
X115371714Y-104036857D01*
X115371714Y-104132095D01*
X115324095Y-104274952D01*
X114752666Y-104846380D01*
X115371714Y-104846380D01*
X127881333Y-109100880D02*
X127548000Y-108624690D01*
X127309904Y-109100880D02*
X127309904Y-108100880D01*
X127690857Y-108100880D01*
X127786095Y-108148500D01*
X127833714Y-108196119D01*
X127881333Y-108291357D01*
X127881333Y-108434214D01*
X127833714Y-108529452D01*
X127786095Y-108577071D01*
X127690857Y-108624690D01*
X127309904Y-108624690D01*
X128214666Y-108100880D02*
X128833714Y-108100880D01*
X128500380Y-108481833D01*
X128643238Y-108481833D01*
X128738476Y-108529452D01*
X128786095Y-108577071D01*
X128833714Y-108672309D01*
X128833714Y-108910404D01*
X128786095Y-109005642D01*
X128738476Y-109053261D01*
X128643238Y-109100880D01*
X128357523Y-109100880D01*
X128262285Y-109053261D01*
X128214666Y-109005642D01*
D18*
X149634619Y-110884761D02*
X148534619Y-110884761D01*
X149634619Y-110256190D01*
X148534619Y-110256190D01*
X149634619Y-109732380D02*
X148534619Y-109732380D01*
X149634619Y-109208571D02*
X148534619Y-109208571D01*
X149634619Y-108580000D01*
X148534619Y-108580000D01*
X149320333Y-108108571D02*
X149320333Y-107584761D01*
X149634619Y-108213333D02*
X148534619Y-107846666D01*
X149634619Y-107480000D01*
X149215571Y-107113333D02*
X149215571Y-106275238D01*
X148534619Y-105856190D02*
X149634619Y-105594285D01*
X148848904Y-105384761D01*
X149634619Y-105175238D01*
X148534619Y-104913333D01*
X149634619Y-103918095D02*
X149634619Y-104546666D01*
X149634619Y-104232380D02*
X148534619Y-104232380D01*
X148691761Y-104337142D01*
X148796523Y-104441904D01*
X148848904Y-104546666D01*
X148534619Y-103237142D02*
X148534619Y-103132380D01*
X148587000Y-103027619D01*
X148639380Y-102975238D01*
X148744142Y-102922857D01*
X148953666Y-102870476D01*
X149215571Y-102870476D01*
X149425095Y-102922857D01*
X149529857Y-102975238D01*
X149582238Y-103027619D01*
X149634619Y-103132380D01*
X149634619Y-103237142D01*
X149582238Y-103341904D01*
X149529857Y-103394285D01*
X149425095Y-103446666D01*
X149215571Y-103499047D01*
X148953666Y-103499047D01*
X148744142Y-103446666D01*
X148639380Y-103394285D01*
X148587000Y-103341904D01*
X148534619Y-103237142D01*
X148639380Y-102451428D02*
X148587000Y-102399047D01*
X148534619Y-102294285D01*
X148534619Y-102032380D01*
X148587000Y-101927619D01*
X148639380Y-101875238D01*
X148744142Y-101822857D01*
X148848904Y-101822857D01*
X149006047Y-101875238D01*
X149634619Y-102503809D01*
X149634619Y-101822857D01*
D14*
D12*
X146812000Y-111680171D02*
X146812000Y-112115600D01*
X146782971Y-112202685D01*
X146724914Y-112260742D01*
X146637828Y-112289771D01*
X146579771Y-112289771D01*
X147102285Y-112289771D02*
X147102285Y-111680171D01*
X147334514Y-111680171D01*
X147392571Y-111709200D01*
X147421600Y-111738228D01*
X147450628Y-111796285D01*
X147450628Y-111883371D01*
X147421600Y-111941428D01*
X147392571Y-111970457D01*
X147334514Y-111999485D01*
X147102285Y-111999485D01*
X148031200Y-112289771D02*
X147682857Y-112289771D01*
X147857028Y-112289771D02*
X147857028Y-111680171D01*
X147798971Y-111767257D01*
X147740914Y-111825314D01*
X147682857Y-111854342D01*
X108331000Y-96313171D02*
X108331000Y-96748600D01*
X108301971Y-96835685D01*
X108243914Y-96893742D01*
X108156828Y-96922771D01*
X108098771Y-96922771D01*
X108592257Y-96371228D02*
X108621285Y-96342200D01*
X108679342Y-96313171D01*
X108824485Y-96313171D01*
X108882542Y-96342200D01*
X108911571Y-96371228D01*
X108940600Y-96429285D01*
X108940600Y-96487342D01*
X108911571Y-96574428D01*
X108563228Y-96922771D01*
X108940600Y-96922771D01*
X108396800Y-115866171D02*
X108396800Y-116301600D01*
X108367771Y-116388685D01*
X108309714Y-116446742D01*
X108222628Y-116475771D01*
X108164571Y-116475771D01*
X109006400Y-116475771D02*
X108658057Y-116475771D01*
X108832228Y-116475771D02*
X108832228Y-115866171D01*
X108774171Y-115953257D01*
X108716114Y-116011314D01*
X108658057Y-116040342D01*
M02*
