%TF.GenerationSoftware,KiCad,Pcbnew,5.1.10*%
%TF.CreationDate,2021-05-04T23:01:40-04:00*%
%TF.ProjectId,NINA-W102_minimal_breakout,4e494e41-2d57-4313-9032-5f6d696e696d,0.5*%
%TF.SameCoordinates,Original*%
%TF.FileFunction,Soldermask,Top*%
%TF.FilePolarity,Negative*%
%FSLAX46Y46*%
G04 Gerber Fmt 4.6, Leading zero omitted, Abs format (unit mm)*
G04 Created by KiCad (PCBNEW 5.1.10) date 2021-05-04 23:01:40*
%MOMM*%
%LPD*%
G01*
G04 APERTURE LIST*
%ADD10C,0.400000*%
%ADD11C,2.082800*%
G04 APERTURE END LIST*
D10*
%TO.C,JP1*%
X144838420Y-112763300D02*
X145224500Y-112763300D01*
%TD*%
%TO.C,SW2*%
G36*
G01*
X130016250Y-104430830D02*
X130016250Y-102833170D01*
G75*
G02*
X130117850Y-102731570I101600J0D01*
G01*
X132416550Y-102731570D01*
G75*
G02*
X132518150Y-102833170I0J-101600D01*
G01*
X132518150Y-104430830D01*
G75*
G02*
X132416550Y-104532430I-101600J0D01*
G01*
X130117850Y-104532430D01*
G75*
G02*
X130016250Y-104430830I0J101600D01*
G01*
G37*
G36*
G01*
X123717050Y-104430830D02*
X123717050Y-102833170D01*
G75*
G02*
X123818650Y-102731570I101600J0D01*
G01*
X126117350Y-102731570D01*
G75*
G02*
X126218950Y-102833170I0J-101600D01*
G01*
X126218950Y-104430830D01*
G75*
G02*
X126117350Y-104532430I-101600J0D01*
G01*
X123818650Y-104532430D01*
G75*
G02*
X123717050Y-104430830I0J101600D01*
G01*
G37*
%TD*%
%TO.C,SW1*%
G36*
G01*
X112655350Y-108167170D02*
X112655350Y-109764830D01*
G75*
G02*
X112553750Y-109866430I-101600J0D01*
G01*
X110255050Y-109866430D01*
G75*
G02*
X110153450Y-109764830I0J101600D01*
G01*
X110153450Y-108167170D01*
G75*
G02*
X110255050Y-108065570I101600J0D01*
G01*
X112553750Y-108065570D01*
G75*
G02*
X112655350Y-108167170I0J-101600D01*
G01*
G37*
G36*
G01*
X118954550Y-108167170D02*
X118954550Y-109764830D01*
G75*
G02*
X118852950Y-109866430I-101600J0D01*
G01*
X116554250Y-109866430D01*
G75*
G02*
X116452650Y-109764830I0J101600D01*
G01*
X116452650Y-108167170D01*
G75*
G02*
X116554250Y-108065570I101600J0D01*
G01*
X118852950Y-108065570D01*
G75*
G02*
X118954550Y-108167170I0J-101600D01*
G01*
G37*
%TD*%
D11*
%TO.C,J3*%
X106680000Y-100076000D03*
X106430000Y-102616000D03*
X106680000Y-105156000D03*
X106430000Y-107696000D03*
X106680000Y-110236000D03*
X106430000Y-112776000D03*
%TD*%
%TO.C,C1*%
G36*
G01*
X135420000Y-106142800D02*
X133820000Y-106142800D01*
G75*
G02*
X133769200Y-106092000I0J50800D01*
G01*
X133769200Y-104092000D01*
G75*
G02*
X133820000Y-104041200I50800J0D01*
G01*
X135420000Y-104041200D01*
G75*
G02*
X135470800Y-104092000I0J-50800D01*
G01*
X135470800Y-106092000D01*
G75*
G02*
X135420000Y-106142800I-50800J0D01*
G01*
G37*
G36*
G01*
X135420000Y-102142800D02*
X133820000Y-102142800D01*
G75*
G02*
X133769200Y-102092000I0J50800D01*
G01*
X133769200Y-100092000D01*
G75*
G02*
X133820000Y-100041200I50800J0D01*
G01*
X135420000Y-100041200D01*
G75*
G02*
X135470800Y-100092000I0J-50800D01*
G01*
X135470800Y-102092000D01*
G75*
G02*
X135420000Y-102142800I-50800J0D01*
G01*
G37*
%TD*%
%TO.C,C2*%
G36*
G01*
X135420000Y-112778800D02*
X133820000Y-112778800D01*
G75*
G02*
X133769200Y-112728000I0J50800D01*
G01*
X133769200Y-110728000D01*
G75*
G02*
X133820000Y-110677200I50800J0D01*
G01*
X135420000Y-110677200D01*
G75*
G02*
X135470800Y-110728000I0J-50800D01*
G01*
X135470800Y-112728000D01*
G75*
G02*
X135420000Y-112778800I-50800J0D01*
G01*
G37*
G36*
G01*
X135420000Y-108778800D02*
X133820000Y-108778800D01*
G75*
G02*
X133769200Y-108728000I0J50800D01*
G01*
X133769200Y-106728000D01*
G75*
G02*
X133820000Y-106677200I50800J0D01*
G01*
X135420000Y-106677200D01*
G75*
G02*
X135470800Y-106728000I0J-50800D01*
G01*
X135470800Y-108728000D01*
G75*
G02*
X135420000Y-108778800I-50800J0D01*
G01*
G37*
%TD*%
%TO.C,C3*%
G36*
G01*
X111535200Y-102400000D02*
X111535200Y-100800000D01*
G75*
G02*
X111586000Y-100749200I50800J0D01*
G01*
X113586000Y-100749200D01*
G75*
G02*
X113636800Y-100800000I0J-50800D01*
G01*
X113636800Y-102400000D01*
G75*
G02*
X113586000Y-102450800I-50800J0D01*
G01*
X111586000Y-102450800D01*
G75*
G02*
X111535200Y-102400000I0J50800D01*
G01*
G37*
G36*
G01*
X115535200Y-102400000D02*
X115535200Y-100800000D01*
G75*
G02*
X115586000Y-100749200I50800J0D01*
G01*
X117586000Y-100749200D01*
G75*
G02*
X117636800Y-100800000I0J-50800D01*
G01*
X117636800Y-102400000D01*
G75*
G02*
X117586000Y-102450800I-50800J0D01*
G01*
X115586000Y-102450800D01*
G75*
G02*
X115535200Y-102400000I0J50800D01*
G01*
G37*
%TD*%
%TO.C,C4*%
G36*
G01*
X124997200Y-112306000D02*
X124997200Y-110706000D01*
G75*
G02*
X125048000Y-110655200I50800J0D01*
G01*
X127048000Y-110655200D01*
G75*
G02*
X127098800Y-110706000I0J-50800D01*
G01*
X127098800Y-112306000D01*
G75*
G02*
X127048000Y-112356800I-50800J0D01*
G01*
X125048000Y-112356800D01*
G75*
G02*
X124997200Y-112306000I0J50800D01*
G01*
G37*
G36*
G01*
X128997200Y-112306000D02*
X128997200Y-110706000D01*
G75*
G02*
X129048000Y-110655200I50800J0D01*
G01*
X131048000Y-110655200D01*
G75*
G02*
X131098800Y-110706000I0J-50800D01*
G01*
X131098800Y-112306000D01*
G75*
G02*
X131048000Y-112356800I-50800J0D01*
G01*
X129048000Y-112356800D01*
G75*
G02*
X128997200Y-112306000I0J50800D01*
G01*
G37*
%TD*%
%TO.C,D1*%
G36*
G01*
X120562000Y-106931200D02*
X122262000Y-106931200D01*
G75*
G02*
X122312800Y-106982000I0J-50800D01*
G01*
X122312800Y-108982000D01*
G75*
G02*
X122262000Y-109032800I-50800J0D01*
G01*
X120562000Y-109032800D01*
G75*
G02*
X120511200Y-108982000I0J50800D01*
G01*
X120511200Y-106982000D01*
G75*
G02*
X120562000Y-106931200I50800J0D01*
G01*
G37*
G36*
G01*
X120562000Y-110931200D02*
X122262000Y-110931200D01*
G75*
G02*
X122312800Y-110982000I0J-50800D01*
G01*
X122312800Y-112982000D01*
G75*
G02*
X122262000Y-113032800I-50800J0D01*
G01*
X120562000Y-113032800D01*
G75*
G02*
X120511200Y-112982000I0J50800D01*
G01*
X120511200Y-110982000D01*
G75*
G02*
X120562000Y-110931200I50800J0D01*
G01*
G37*
%TD*%
%TO.C,R1*%
G36*
G01*
X122262000Y-106206800D02*
X120562000Y-106206800D01*
G75*
G02*
X120511200Y-106156000I0J50800D01*
G01*
X120511200Y-104156000D01*
G75*
G02*
X120562000Y-104105200I50800J0D01*
G01*
X122262000Y-104105200D01*
G75*
G02*
X122312800Y-104156000I0J-50800D01*
G01*
X122312800Y-106156000D01*
G75*
G02*
X122262000Y-106206800I-50800J0D01*
G01*
G37*
G36*
G01*
X122262000Y-102206800D02*
X120562000Y-102206800D01*
G75*
G02*
X120511200Y-102156000I0J50800D01*
G01*
X120511200Y-100156000D01*
G75*
G02*
X120562000Y-100105200I50800J0D01*
G01*
X122262000Y-100105200D01*
G75*
G02*
X122312800Y-100156000I0J-50800D01*
G01*
X122312800Y-102156000D01*
G75*
G02*
X122262000Y-102206800I-50800J0D01*
G01*
G37*
%TD*%
%TO.C,R2*%
G36*
G01*
X117636800Y-103544000D02*
X117636800Y-105244000D01*
G75*
G02*
X117586000Y-105294800I-50800J0D01*
G01*
X115586000Y-105294800D01*
G75*
G02*
X115535200Y-105244000I0J50800D01*
G01*
X115535200Y-103544000D01*
G75*
G02*
X115586000Y-103493200I50800J0D01*
G01*
X117586000Y-103493200D01*
G75*
G02*
X117636800Y-103544000I0J-50800D01*
G01*
G37*
G36*
G01*
X113636800Y-103544000D02*
X113636800Y-105244000D01*
G75*
G02*
X113586000Y-105294800I-50800J0D01*
G01*
X111586000Y-105294800D01*
G75*
G02*
X111535200Y-105244000I0J50800D01*
G01*
X111535200Y-103544000D01*
G75*
G02*
X111586000Y-103493200I50800J0D01*
G01*
X113586000Y-103493200D01*
G75*
G02*
X113636800Y-103544000I0J-50800D01*
G01*
G37*
%TD*%
%TO.C,R3*%
G36*
G01*
X131098800Y-107862000D02*
X131098800Y-109562000D01*
G75*
G02*
X131048000Y-109612800I-50800J0D01*
G01*
X129048000Y-109612800D01*
G75*
G02*
X128997200Y-109562000I0J50800D01*
G01*
X128997200Y-107862000D01*
G75*
G02*
X129048000Y-107811200I50800J0D01*
G01*
X131048000Y-107811200D01*
G75*
G02*
X131098800Y-107862000I0J-50800D01*
G01*
G37*
G36*
G01*
X127098800Y-107862000D02*
X127098800Y-109562000D01*
G75*
G02*
X127048000Y-109612800I-50800J0D01*
G01*
X125048000Y-109612800D01*
G75*
G02*
X124997200Y-109562000I0J50800D01*
G01*
X124997200Y-107862000D01*
G75*
G02*
X125048000Y-107811200I50800J0D01*
G01*
X127048000Y-107811200D01*
G75*
G02*
X127098800Y-107862000I0J-50800D01*
G01*
G37*
%TD*%
%TO.C,U1*%
G36*
G01*
X137036200Y-111130001D02*
X137036200Y-109979999D01*
G75*
G02*
X137086999Y-109929200I50799J0D01*
G01*
X137787001Y-109929200D01*
G75*
G02*
X137837800Y-109979999I0J-50799D01*
G01*
X137837800Y-111130001D01*
G75*
G02*
X137787001Y-111180800I-50799J0D01*
G01*
X137086999Y-111180800D01*
G75*
G02*
X137036200Y-111130001I0J50799D01*
G01*
G37*
G36*
G01*
X138036200Y-111130001D02*
X138036200Y-109979999D01*
G75*
G02*
X138086999Y-109929200I50799J0D01*
G01*
X138787001Y-109929200D01*
G75*
G02*
X138837800Y-109979999I0J-50799D01*
G01*
X138837800Y-111130001D01*
G75*
G02*
X138787001Y-111180800I-50799J0D01*
G01*
X138086999Y-111180800D01*
G75*
G02*
X138036200Y-111130001I0J50799D01*
G01*
G37*
G36*
G01*
X139036200Y-111130001D02*
X139036200Y-109979999D01*
G75*
G02*
X139086999Y-109929200I50799J0D01*
G01*
X139787001Y-109929200D01*
G75*
G02*
X139837800Y-109979999I0J-50799D01*
G01*
X139837800Y-111130001D01*
G75*
G02*
X139787001Y-111180800I-50799J0D01*
G01*
X139086999Y-111180800D01*
G75*
G02*
X139036200Y-111130001I0J50799D01*
G01*
G37*
G36*
G01*
X140036200Y-111130001D02*
X140036200Y-109979999D01*
G75*
G02*
X140086999Y-109929200I50799J0D01*
G01*
X140787001Y-109929200D01*
G75*
G02*
X140837800Y-109979999I0J-50799D01*
G01*
X140837800Y-111130001D01*
G75*
G02*
X140787001Y-111180800I-50799J0D01*
G01*
X140086999Y-111180800D01*
G75*
G02*
X140036200Y-111130001I0J50799D01*
G01*
G37*
G36*
G01*
X141036200Y-111130001D02*
X141036200Y-109979999D01*
G75*
G02*
X141086999Y-109929200I50799J0D01*
G01*
X141787001Y-109929200D01*
G75*
G02*
X141837800Y-109979999I0J-50799D01*
G01*
X141837800Y-111130001D01*
G75*
G02*
X141787001Y-111180800I-50799J0D01*
G01*
X141086999Y-111180800D01*
G75*
G02*
X141036200Y-111130001I0J50799D01*
G01*
G37*
G36*
G01*
X142036200Y-111130001D02*
X142036200Y-109979999D01*
G75*
G02*
X142086999Y-109929200I50799J0D01*
G01*
X142787001Y-109929200D01*
G75*
G02*
X142837800Y-109979999I0J-50799D01*
G01*
X142837800Y-111130001D01*
G75*
G02*
X142787001Y-111180800I-50799J0D01*
G01*
X142086999Y-111180800D01*
G75*
G02*
X142036200Y-111130001I0J50799D01*
G01*
G37*
G36*
G01*
X143036200Y-111130001D02*
X143036200Y-109979999D01*
G75*
G02*
X143086999Y-109929200I50799J0D01*
G01*
X143787001Y-109929200D01*
G75*
G02*
X143837800Y-109979999I0J-50799D01*
G01*
X143837800Y-111130001D01*
G75*
G02*
X143787001Y-111180800I-50799J0D01*
G01*
X143086999Y-111180800D01*
G75*
G02*
X143036200Y-111130001I0J50799D01*
G01*
G37*
G36*
G01*
X144036200Y-111130001D02*
X144036200Y-109979999D01*
G75*
G02*
X144086999Y-109929200I50799J0D01*
G01*
X144787001Y-109929200D01*
G75*
G02*
X144837800Y-109979999I0J-50799D01*
G01*
X144837800Y-111130001D01*
G75*
G02*
X144787001Y-111180800I-50799J0D01*
G01*
X144086999Y-111180800D01*
G75*
G02*
X144036200Y-111130001I0J50799D01*
G01*
G37*
G36*
G01*
X145036200Y-111130001D02*
X145036200Y-109979999D01*
G75*
G02*
X145086999Y-109929200I50799J0D01*
G01*
X145787001Y-109929200D01*
G75*
G02*
X145837800Y-109979999I0J-50799D01*
G01*
X145837800Y-111130001D01*
G75*
G02*
X145787001Y-111180800I-50799J0D01*
G01*
X145086999Y-111180800D01*
G75*
G02*
X145036200Y-111130001I0J50799D01*
G01*
G37*
G36*
G01*
X146036200Y-111130001D02*
X146036200Y-109979999D01*
G75*
G02*
X146086999Y-109929200I50799J0D01*
G01*
X146787001Y-109929200D01*
G75*
G02*
X146837800Y-109979999I0J-50799D01*
G01*
X146837800Y-111130001D01*
G75*
G02*
X146787001Y-111180800I-50799J0D01*
G01*
X146086999Y-111180800D01*
G75*
G02*
X146036200Y-111130001I0J50799D01*
G01*
G37*
G36*
G01*
X146937001Y-108830800D02*
X145786999Y-108830800D01*
G75*
G02*
X145736200Y-108780001I0J50799D01*
G01*
X145736200Y-108079999D01*
G75*
G02*
X145786999Y-108029200I50799J0D01*
G01*
X146937001Y-108029200D01*
G75*
G02*
X146987800Y-108079999I0J-50799D01*
G01*
X146987800Y-108780001D01*
G75*
G02*
X146937001Y-108830800I-50799J0D01*
G01*
G37*
G36*
G01*
X146937001Y-107830800D02*
X145786999Y-107830800D01*
G75*
G02*
X145736200Y-107780001I0J50799D01*
G01*
X145736200Y-107079999D01*
G75*
G02*
X145786999Y-107029200I50799J0D01*
G01*
X146937001Y-107029200D01*
G75*
G02*
X146987800Y-107079999I0J-50799D01*
G01*
X146987800Y-107780001D01*
G75*
G02*
X146937001Y-107830800I-50799J0D01*
G01*
G37*
G36*
G01*
X146937001Y-106830800D02*
X145786999Y-106830800D01*
G75*
G02*
X145736200Y-106780001I0J50799D01*
G01*
X145736200Y-106079999D01*
G75*
G02*
X145786999Y-106029200I50799J0D01*
G01*
X146937001Y-106029200D01*
G75*
G02*
X146987800Y-106079999I0J-50799D01*
G01*
X146987800Y-106780001D01*
G75*
G02*
X146937001Y-106830800I-50799J0D01*
G01*
G37*
G36*
G01*
X146937001Y-105830800D02*
X145786999Y-105830800D01*
G75*
G02*
X145736200Y-105780001I0J50799D01*
G01*
X145736200Y-105079999D01*
G75*
G02*
X145786999Y-105029200I50799J0D01*
G01*
X146937001Y-105029200D01*
G75*
G02*
X146987800Y-105079999I0J-50799D01*
G01*
X146987800Y-105780001D01*
G75*
G02*
X146937001Y-105830800I-50799J0D01*
G01*
G37*
G36*
G01*
X146937001Y-104830800D02*
X145786999Y-104830800D01*
G75*
G02*
X145736200Y-104780001I0J50799D01*
G01*
X145736200Y-104079999D01*
G75*
G02*
X145786999Y-104029200I50799J0D01*
G01*
X146937001Y-104029200D01*
G75*
G02*
X146987800Y-104079999I0J-50799D01*
G01*
X146987800Y-104780001D01*
G75*
G02*
X146937001Y-104830800I-50799J0D01*
G01*
G37*
G36*
G01*
X146036200Y-102880001D02*
X146036200Y-101729999D01*
G75*
G02*
X146086999Y-101679200I50799J0D01*
G01*
X146787001Y-101679200D01*
G75*
G02*
X146837800Y-101729999I0J-50799D01*
G01*
X146837800Y-102880001D01*
G75*
G02*
X146787001Y-102930800I-50799J0D01*
G01*
X146086999Y-102930800D01*
G75*
G02*
X146036200Y-102880001I0J50799D01*
G01*
G37*
G36*
G01*
X145036200Y-102880001D02*
X145036200Y-101729999D01*
G75*
G02*
X145086999Y-101679200I50799J0D01*
G01*
X145787001Y-101679200D01*
G75*
G02*
X145837800Y-101729999I0J-50799D01*
G01*
X145837800Y-102880001D01*
G75*
G02*
X145787001Y-102930800I-50799J0D01*
G01*
X145086999Y-102930800D01*
G75*
G02*
X145036200Y-102880001I0J50799D01*
G01*
G37*
G36*
G01*
X144036200Y-102880001D02*
X144036200Y-101729999D01*
G75*
G02*
X144086999Y-101679200I50799J0D01*
G01*
X144787001Y-101679200D01*
G75*
G02*
X144837800Y-101729999I0J-50799D01*
G01*
X144837800Y-102880001D01*
G75*
G02*
X144787001Y-102930800I-50799J0D01*
G01*
X144086999Y-102930800D01*
G75*
G02*
X144036200Y-102880001I0J50799D01*
G01*
G37*
G36*
G01*
X143036200Y-102880001D02*
X143036200Y-101729999D01*
G75*
G02*
X143086999Y-101679200I50799J0D01*
G01*
X143787001Y-101679200D01*
G75*
G02*
X143837800Y-101729999I0J-50799D01*
G01*
X143837800Y-102880001D01*
G75*
G02*
X143787001Y-102930800I-50799J0D01*
G01*
X143086999Y-102930800D01*
G75*
G02*
X143036200Y-102880001I0J50799D01*
G01*
G37*
G36*
G01*
X142036200Y-102880001D02*
X142036200Y-101729999D01*
G75*
G02*
X142086999Y-101679200I50799J0D01*
G01*
X142787001Y-101679200D01*
G75*
G02*
X142837800Y-101729999I0J-50799D01*
G01*
X142837800Y-102880001D01*
G75*
G02*
X142787001Y-102930800I-50799J0D01*
G01*
X142086999Y-102930800D01*
G75*
G02*
X142036200Y-102880001I0J50799D01*
G01*
G37*
G36*
G01*
X141036200Y-102880001D02*
X141036200Y-101729999D01*
G75*
G02*
X141086999Y-101679200I50799J0D01*
G01*
X141787001Y-101679200D01*
G75*
G02*
X141837800Y-101729999I0J-50799D01*
G01*
X141837800Y-102880001D01*
G75*
G02*
X141787001Y-102930800I-50799J0D01*
G01*
X141086999Y-102930800D01*
G75*
G02*
X141036200Y-102880001I0J50799D01*
G01*
G37*
G36*
G01*
X140036200Y-102880001D02*
X140036200Y-101729999D01*
G75*
G02*
X140086999Y-101679200I50799J0D01*
G01*
X140787001Y-101679200D01*
G75*
G02*
X140837800Y-101729999I0J-50799D01*
G01*
X140837800Y-102880001D01*
G75*
G02*
X140787001Y-102930800I-50799J0D01*
G01*
X140086999Y-102930800D01*
G75*
G02*
X140036200Y-102880001I0J50799D01*
G01*
G37*
G36*
G01*
X139036200Y-102880001D02*
X139036200Y-101729999D01*
G75*
G02*
X139086999Y-101679200I50799J0D01*
G01*
X139787001Y-101679200D01*
G75*
G02*
X139837800Y-101729999I0J-50799D01*
G01*
X139837800Y-102880001D01*
G75*
G02*
X139787001Y-102930800I-50799J0D01*
G01*
X139086999Y-102930800D01*
G75*
G02*
X139036200Y-102880001I0J50799D01*
G01*
G37*
G36*
G01*
X138036200Y-102880001D02*
X138036200Y-101729999D01*
G75*
G02*
X138086999Y-101679200I50799J0D01*
G01*
X138787001Y-101679200D01*
G75*
G02*
X138837800Y-101729999I0J-50799D01*
G01*
X138837800Y-102880001D01*
G75*
G02*
X138787001Y-102930800I-50799J0D01*
G01*
X138086999Y-102930800D01*
G75*
G02*
X138036200Y-102880001I0J50799D01*
G01*
G37*
G36*
G01*
X137036200Y-102880001D02*
X137036200Y-101729999D01*
G75*
G02*
X137086999Y-101679200I50799J0D01*
G01*
X137787001Y-101679200D01*
G75*
G02*
X137837800Y-101729999I0J-50799D01*
G01*
X137837800Y-102880001D01*
G75*
G02*
X137787001Y-102930800I-50799J0D01*
G01*
X137086999Y-102930800D01*
G75*
G02*
X137036200Y-102880001I0J50799D01*
G01*
G37*
G36*
G01*
X138087001Y-104830800D02*
X136936999Y-104830800D01*
G75*
G02*
X136886200Y-104780001I0J50799D01*
G01*
X136886200Y-104079999D01*
G75*
G02*
X136936999Y-104029200I50799J0D01*
G01*
X138087001Y-104029200D01*
G75*
G02*
X138137800Y-104079999I0J-50799D01*
G01*
X138137800Y-104780001D01*
G75*
G02*
X138087001Y-104830800I-50799J0D01*
G01*
G37*
G36*
G01*
X138087001Y-105830800D02*
X136936999Y-105830800D01*
G75*
G02*
X136886200Y-105780001I0J50799D01*
G01*
X136886200Y-105079999D01*
G75*
G02*
X136936999Y-105029200I50799J0D01*
G01*
X138087001Y-105029200D01*
G75*
G02*
X138137800Y-105079999I0J-50799D01*
G01*
X138137800Y-105780001D01*
G75*
G02*
X138087001Y-105830800I-50799J0D01*
G01*
G37*
G36*
G01*
X138087001Y-106830800D02*
X136936999Y-106830800D01*
G75*
G02*
X136886200Y-106780001I0J50799D01*
G01*
X136886200Y-106079999D01*
G75*
G02*
X136936999Y-106029200I50799J0D01*
G01*
X138087001Y-106029200D01*
G75*
G02*
X138137800Y-106079999I0J-50799D01*
G01*
X138137800Y-106780001D01*
G75*
G02*
X138087001Y-106830800I-50799J0D01*
G01*
G37*
G36*
G01*
X138087001Y-107830800D02*
X136936999Y-107830800D01*
G75*
G02*
X136886200Y-107780001I0J50799D01*
G01*
X136886200Y-107079999D01*
G75*
G02*
X136936999Y-107029200I50799J0D01*
G01*
X138087001Y-107029200D01*
G75*
G02*
X138137800Y-107079999I0J-50799D01*
G01*
X138137800Y-107780001D01*
G75*
G02*
X138087001Y-107830800I-50799J0D01*
G01*
G37*
G36*
G01*
X138087001Y-108830800D02*
X136936999Y-108830800D01*
G75*
G02*
X136886200Y-108780001I0J50799D01*
G01*
X136886200Y-108079999D01*
G75*
G02*
X136936999Y-108029200I50799J0D01*
G01*
X138087001Y-108029200D01*
G75*
G02*
X138137800Y-108079999I0J-50799D01*
G01*
X138137800Y-108780001D01*
G75*
G02*
X138087001Y-108830800I-50799J0D01*
G01*
G37*
G36*
G01*
X139237001Y-109580800D02*
X138536999Y-109580800D01*
G75*
G02*
X138486200Y-109530001I0J50799D01*
G01*
X138486200Y-108829999D01*
G75*
G02*
X138536999Y-108779200I50799J0D01*
G01*
X139237001Y-108779200D01*
G75*
G02*
X139287800Y-108829999I0J-50799D01*
G01*
X139287800Y-109530001D01*
G75*
G02*
X139237001Y-109580800I-50799J0D01*
G01*
G37*
G36*
G01*
X139237001Y-108480800D02*
X138536999Y-108480800D01*
G75*
G02*
X138486200Y-108430001I0J50799D01*
G01*
X138486200Y-107729999D01*
G75*
G02*
X138536999Y-107679200I50799J0D01*
G01*
X139237001Y-107679200D01*
G75*
G02*
X139287800Y-107729999I0J-50799D01*
G01*
X139287800Y-108430001D01*
G75*
G02*
X139237001Y-108480800I-50799J0D01*
G01*
G37*
G36*
G01*
X139237001Y-107380800D02*
X138536999Y-107380800D01*
G75*
G02*
X138486200Y-107330001I0J50799D01*
G01*
X138486200Y-106629999D01*
G75*
G02*
X138536999Y-106579200I50799J0D01*
G01*
X139237001Y-106579200D01*
G75*
G02*
X139287800Y-106629999I0J-50799D01*
G01*
X139287800Y-107330001D01*
G75*
G02*
X139237001Y-107380800I-50799J0D01*
G01*
G37*
G36*
G01*
X139237001Y-106280800D02*
X138536999Y-106280800D01*
G75*
G02*
X138486200Y-106230001I0J50799D01*
G01*
X138486200Y-105529999D01*
G75*
G02*
X138536999Y-105479200I50799J0D01*
G01*
X139237001Y-105479200D01*
G75*
G02*
X139287800Y-105529999I0J-50799D01*
G01*
X139287800Y-106230001D01*
G75*
G02*
X139237001Y-106280800I-50799J0D01*
G01*
G37*
G36*
G01*
X139237001Y-105180800D02*
X138536999Y-105180800D01*
G75*
G02*
X138486200Y-105130001I0J50799D01*
G01*
X138486200Y-104429999D01*
G75*
G02*
X138536999Y-104379200I50799J0D01*
G01*
X139237001Y-104379200D01*
G75*
G02*
X139287800Y-104429999I0J-50799D01*
G01*
X139287800Y-105130001D01*
G75*
G02*
X139237001Y-105180800I-50799J0D01*
G01*
G37*
G36*
G01*
X139237001Y-104080800D02*
X138536999Y-104080800D01*
G75*
G02*
X138486200Y-104030001I0J50799D01*
G01*
X138486200Y-103329999D01*
G75*
G02*
X138536999Y-103279200I50799J0D01*
G01*
X139237001Y-103279200D01*
G75*
G02*
X139287800Y-103329999I0J-50799D01*
G01*
X139287800Y-104030001D01*
G75*
G02*
X139237001Y-104080800I-50799J0D01*
G01*
G37*
G36*
G01*
X140567001Y-107405800D02*
X139866999Y-107405800D01*
G75*
G02*
X139816200Y-107355001I0J50799D01*
G01*
X139816200Y-106654999D01*
G75*
G02*
X139866999Y-106604200I50799J0D01*
G01*
X140567001Y-106604200D01*
G75*
G02*
X140617800Y-106654999I0J-50799D01*
G01*
X140617800Y-107355001D01*
G75*
G02*
X140567001Y-107405800I-50799J0D01*
G01*
G37*
G36*
G01*
X140567001Y-106255800D02*
X139866999Y-106255800D01*
G75*
G02*
X139816200Y-106205001I0J50799D01*
G01*
X139816200Y-105504999D01*
G75*
G02*
X139866999Y-105454200I50799J0D01*
G01*
X140567001Y-105454200D01*
G75*
G02*
X140617800Y-105504999I0J-50799D01*
G01*
X140617800Y-106205001D01*
G75*
G02*
X140567001Y-106255800I-50799J0D01*
G01*
G37*
G36*
G01*
X141717001Y-108555800D02*
X141016999Y-108555800D01*
G75*
G02*
X140966200Y-108505001I0J50799D01*
G01*
X140966200Y-107804999D01*
G75*
G02*
X141016999Y-107754200I50799J0D01*
G01*
X141717001Y-107754200D01*
G75*
G02*
X141767800Y-107804999I0J-50799D01*
G01*
X141767800Y-108505001D01*
G75*
G02*
X141717001Y-108555800I-50799J0D01*
G01*
G37*
G36*
G01*
X141717001Y-107405800D02*
X141016999Y-107405800D01*
G75*
G02*
X140966200Y-107355001I0J50799D01*
G01*
X140966200Y-106654999D01*
G75*
G02*
X141016999Y-106604200I50799J0D01*
G01*
X141717001Y-106604200D01*
G75*
G02*
X141767800Y-106654999I0J-50799D01*
G01*
X141767800Y-107355001D01*
G75*
G02*
X141717001Y-107405800I-50799J0D01*
G01*
G37*
G36*
G01*
X141717001Y-106255800D02*
X141016999Y-106255800D01*
G75*
G02*
X140966200Y-106205001I0J50799D01*
G01*
X140966200Y-105504999D01*
G75*
G02*
X141016999Y-105454200I50799J0D01*
G01*
X141717001Y-105454200D01*
G75*
G02*
X141767800Y-105504999I0J-50799D01*
G01*
X141767800Y-106205001D01*
G75*
G02*
X141717001Y-106255800I-50799J0D01*
G01*
G37*
G36*
G01*
X141717001Y-105105800D02*
X141016999Y-105105800D01*
G75*
G02*
X140966200Y-105055001I0J50799D01*
G01*
X140966200Y-104354999D01*
G75*
G02*
X141016999Y-104304200I50799J0D01*
G01*
X141717001Y-104304200D01*
G75*
G02*
X141767800Y-104354999I0J-50799D01*
G01*
X141767800Y-105055001D01*
G75*
G02*
X141717001Y-105105800I-50799J0D01*
G01*
G37*
G36*
G01*
X142867001Y-107405800D02*
X142166999Y-107405800D01*
G75*
G02*
X142116200Y-107355001I0J50799D01*
G01*
X142116200Y-106654999D01*
G75*
G02*
X142166999Y-106604200I50799J0D01*
G01*
X142867001Y-106604200D01*
G75*
G02*
X142917800Y-106654999I0J-50799D01*
G01*
X142917800Y-107355001D01*
G75*
G02*
X142867001Y-107405800I-50799J0D01*
G01*
G37*
G36*
G01*
X142867001Y-106255800D02*
X142166999Y-106255800D01*
G75*
G02*
X142116200Y-106205001I0J50799D01*
G01*
X142116200Y-105504999D01*
G75*
G02*
X142166999Y-105454200I50799J0D01*
G01*
X142867001Y-105454200D01*
G75*
G02*
X142917800Y-105504999I0J-50799D01*
G01*
X142917800Y-106205001D01*
G75*
G02*
X142867001Y-106255800I-50799J0D01*
G01*
G37*
G36*
G01*
X144017001Y-108555800D02*
X143316999Y-108555800D01*
G75*
G02*
X143266200Y-108505001I0J50799D01*
G01*
X143266200Y-107804999D01*
G75*
G02*
X143316999Y-107754200I50799J0D01*
G01*
X144017001Y-107754200D01*
G75*
G02*
X144067800Y-107804999I0J-50799D01*
G01*
X144067800Y-108505001D01*
G75*
G02*
X144017001Y-108555800I-50799J0D01*
G01*
G37*
G36*
G01*
X144017001Y-107405800D02*
X143316999Y-107405800D01*
G75*
G02*
X143266200Y-107355001I0J50799D01*
G01*
X143266200Y-106654999D01*
G75*
G02*
X143316999Y-106604200I50799J0D01*
G01*
X144017001Y-106604200D01*
G75*
G02*
X144067800Y-106654999I0J-50799D01*
G01*
X144067800Y-107355001D01*
G75*
G02*
X144017001Y-107405800I-50799J0D01*
G01*
G37*
G36*
G01*
X144017001Y-106255800D02*
X143316999Y-106255800D01*
G75*
G02*
X143266200Y-106205001I0J50799D01*
G01*
X143266200Y-105504999D01*
G75*
G02*
X143316999Y-105454200I50799J0D01*
G01*
X144017001Y-105454200D01*
G75*
G02*
X144067800Y-105504999I0J-50799D01*
G01*
X144067800Y-106205001D01*
G75*
G02*
X144017001Y-106255800I-50799J0D01*
G01*
G37*
G36*
G01*
X144017001Y-105105800D02*
X143316999Y-105105800D01*
G75*
G02*
X143266200Y-105055001I0J50799D01*
G01*
X143266200Y-104354999D01*
G75*
G02*
X143316999Y-104304200I50799J0D01*
G01*
X144017001Y-104304200D01*
G75*
G02*
X144067800Y-104354999I0J-50799D01*
G01*
X144067800Y-105055001D01*
G75*
G02*
X144017001Y-105105800I-50799J0D01*
G01*
G37*
%TD*%
%TO.C,JP1*%
G36*
G01*
X144106900Y-113398300D02*
X144106900Y-112128300D01*
G75*
G02*
X144208500Y-112026700I101600J0D01*
G01*
X144843500Y-112026700D01*
G75*
G02*
X144945100Y-112128300I0J-101600D01*
G01*
X144945100Y-113398300D01*
G75*
G02*
X144843500Y-113499900I-101600J0D01*
G01*
X144208500Y-113499900D01*
G75*
G02*
X144106900Y-113398300I0J101600D01*
G01*
G37*
G36*
G01*
X145122900Y-113398300D02*
X145122900Y-112128300D01*
G75*
G02*
X145224500Y-112026700I101600J0D01*
G01*
X145859500Y-112026700D01*
G75*
G02*
X145961100Y-112128300I0J-101600D01*
G01*
X145961100Y-113398300D01*
G75*
G02*
X145859500Y-113499900I-101600J0D01*
G01*
X145224500Y-113499900D01*
G75*
G02*
X145122900Y-113398300I0J101600D01*
G01*
G37*
%TD*%
%TO.C,J2*%
X110490000Y-97409000D03*
X113030000Y-97663000D03*
X115570000Y-97409000D03*
X118110000Y-97663000D03*
X120650000Y-97409000D03*
X123190000Y-97663000D03*
X125730000Y-97409000D03*
X128270000Y-97663000D03*
X130810000Y-97409000D03*
X133350000Y-97663000D03*
X135890000Y-97409000D03*
X138430000Y-97663000D03*
X140970000Y-97409000D03*
X143510000Y-97663000D03*
X146050000Y-97409000D03*
%TD*%
%TO.C,J1*%
X110490000Y-115189000D03*
X113030000Y-115443000D03*
X115570000Y-115189000D03*
X118110000Y-115443000D03*
X120650000Y-115189000D03*
X123190000Y-115443000D03*
X125730000Y-115189000D03*
X128270000Y-115443000D03*
X130810000Y-115189000D03*
X133350000Y-115443000D03*
X135890000Y-115189000D03*
X138430000Y-115443000D03*
X140970000Y-115189000D03*
X143510000Y-115443000D03*
X146050000Y-115189000D03*
%TD*%
M02*
