%TF.GenerationSoftware,KiCad,Pcbnew,5.1.10*%
%TF.CreationDate,2021-05-04T23:01:40-04:00*%
%TF.ProjectId,NINA-W102_minimal_breakout,4e494e41-2d57-4313-9032-5f6d696e696d,0.5*%
%TF.SameCoordinates,Original*%
%TF.FileFunction,Paste,Top*%
%TF.FilePolarity,Positive*%
%FSLAX46Y46*%
G04 Gerber Fmt 4.6, Leading zero omitted, Abs format (unit mm)*
G04 Created by KiCad (PCBNEW 5.1.10) date 2021-05-04 23:01:40*
%MOMM*%
%LPD*%
G01*
G04 APERTURE LIST*
%ADD10R,2.298700X1.597660*%
%ADD11R,1.600000X2.000000*%
%ADD12R,2.000000X1.600000*%
%ADD13R,1.700000X2.000000*%
%ADD14R,2.000000X1.700000*%
%ADD15R,0.700000X1.150000*%
%ADD16R,1.150000X0.700000*%
%ADD17R,0.700000X0.700000*%
G04 APERTURE END LIST*
D10*
%TO.C,SW2*%
X131267200Y-103632000D03*
X124968000Y-103632000D03*
%TD*%
%TO.C,SW1*%
X111404400Y-108966000D03*
X117703600Y-108966000D03*
%TD*%
D11*
%TO.C,C1*%
X134620000Y-105092000D03*
X134620000Y-101092000D03*
%TD*%
%TO.C,C2*%
X134620000Y-111728000D03*
X134620000Y-107728000D03*
%TD*%
D12*
%TO.C,C3*%
X112586000Y-101600000D03*
X116586000Y-101600000D03*
%TD*%
%TO.C,C4*%
X126048000Y-111506000D03*
X130048000Y-111506000D03*
%TD*%
D13*
%TO.C,D1*%
X121412000Y-107982000D03*
X121412000Y-111982000D03*
%TD*%
%TO.C,R1*%
X121412000Y-105156000D03*
X121412000Y-101156000D03*
%TD*%
D14*
%TO.C,R2*%
X116586000Y-104394000D03*
X112586000Y-104394000D03*
%TD*%
%TO.C,R3*%
X130048000Y-108712000D03*
X126048000Y-108712000D03*
%TD*%
D15*
%TO.C,U1*%
X137437000Y-110555000D03*
X138437000Y-110555000D03*
X139437000Y-110555000D03*
X140437000Y-110555000D03*
X141437000Y-110555000D03*
X142437000Y-110555000D03*
X143437000Y-110555000D03*
X144437000Y-110555000D03*
X145437000Y-110555000D03*
X146437000Y-110555000D03*
D16*
X146362000Y-108430000D03*
X146362000Y-107430000D03*
X146362000Y-106430000D03*
X146362000Y-105430000D03*
X146362000Y-104430000D03*
D15*
X146437000Y-102305000D03*
X145437000Y-102305000D03*
X144437000Y-102305000D03*
X143437000Y-102305000D03*
X142437000Y-102305000D03*
X141437000Y-102305000D03*
X140437000Y-102305000D03*
X139437000Y-102305000D03*
X138437000Y-102305000D03*
X137437000Y-102305000D03*
D16*
X137512000Y-104430000D03*
X137512000Y-105430000D03*
X137512000Y-106430000D03*
X137512000Y-107430000D03*
X137512000Y-108430000D03*
D17*
X138887000Y-109180000D03*
X138887000Y-108080000D03*
X138887000Y-106980000D03*
X138887000Y-105880000D03*
X138887000Y-104780000D03*
X138887000Y-103680000D03*
X140217000Y-107005000D03*
X140217000Y-105855000D03*
X141367000Y-108155000D03*
X141367000Y-107005000D03*
X141367000Y-105855000D03*
X141367000Y-104705000D03*
X142517000Y-107005000D03*
X142517000Y-105855000D03*
X143667000Y-108155000D03*
X143667000Y-107005000D03*
X143667000Y-105855000D03*
X143667000Y-104705000D03*
%TD*%
M02*
